<svg xmlns="http://www.w3.org/2000/svg" width="17.711" height="17.711" viewBox="0 0 17.711 17.711">
  <g id="Group_367" data-name="Group 367" transform="translate(-257 -464)">
    <path id="Path_607" data-name="Path 607" d="M711.324,69.323a8.855,8.855,0,1,0-12.963,7.847l2.034-4.068a4.309,4.309,0,1,1,4.148,0l2.034,4.068A8.854,8.854,0,0,0,711.324,69.323Z" transform="translate(-436.613 403.532)" fill="#6300ff"/>
    <path id="Path_608" data-name="Path 608" d="M704.477,72.987,702.4,68.839l-2.073,4.148L698.3,77.054c.1.05.191.1.287.144a8.872,8.872,0,0,0,7.641,0c.1-.046.192-.094.287-.144Z" transform="translate(-436.548 403.648)" fill="#d81698"/>
  </g>
</svg>
