<svg xmlns="http://www.w3.org/2000/svg" width="59.798" height="17.711" viewBox="0 0 59.798 17.711">
  <g id="Group_37" data-name="Group 37" transform="translate(-693.613 -60.468)">
    <path id="Path_115" data-name="Path 115" d="M711.324,69.323a8.855,8.855,0,1,0-12.963,7.847l2.034-4.068a4.309,4.309,0,1,1,4.148,0l2.034,4.068A8.854,8.854,0,0,0,711.324,69.323Z" transform="translate(0 0)" fill="#6300ff"/>
    <path id="Path_116" data-name="Path 116" d="M704.477,72.987,702.4,68.839l-2.073,4.148L698.3,77.054c.1.05.191.1.287.144a8.872,8.872,0,0,0,7.641,0c.1-.046.192-.094.287-.144Z" transform="translate(0.065 0.116)" fill="#d81698"/>
    <path id="Path_117" data-name="Path 117" d="M718.873,75.664a5.4,5.4,0,0,1-4.288-1.893,7.337,7.337,0,0,1-1.638-4.98,7.147,7.147,0,0,1,1.912-5.122,6.37,6.37,0,0,1,4.828-2.017,9.768,9.768,0,0,1,4.62,1.117l-1.572,4.3-.094-.019a5.272,5.272,0,0,0-1.156-2.935,3.108,3.108,0,0,0-2.423-1,2.686,2.686,0,0,0-2.187.975,4.027,4.027,0,0,0-.805,2.641,6.179,6.179,0,0,0,1.364,4.166,4.462,4.462,0,0,0,3.56,1.591,4.14,4.14,0,0,0,1.978-.4,2.441,2.441,0,0,0,1.089-1.268l.133.057Q723.114,75.664,718.873,75.664Z" transform="translate(0.268 0.73)" fill="#6300ff"/>
    <path id="Path_118" data-name="Path 118" d="M731.848,75.47,727.38,64.413l-.492,8.123a3.382,3.382,0,0,0,.236,1.845,2.382,2.382,0,0,0,1.316.8v.1h-3.635v-.1a1.909,1.909,0,0,0,1.022-.852,5.051,5.051,0,0,0,.341-1.8l.493-8.483a1.836,1.836,0,0,0-1.136-1.931v-.094h5.188l2.935,7.29,2.953-7.29h4.885v.094a1.914,1.914,0,0,0-1.155,2.083l.511,9.012a2.041,2.041,0,0,0,1.288,1.969v.1h-6.665v-.1a2.508,2.508,0,0,0,1.364-2.707l-.4-8.066L731.963,75.47Z" transform="translate(0.432 0.736)" fill="#6300ff"/>
    <path id="Path_119" data-name="Path 119" d="M747.567,75.664A10.367,10.367,0,0,1,742.36,74.4l1.193-3.616h.094a5.3,5.3,0,0,0,1.789,2.953,4.446,4.446,0,0,0,2.849,1.06,2.019,2.019,0,0,0,1.344-.445,1.468,1.468,0,0,0,.53-1.183q0-1.06-1.344-1.666l-3.143-1.44a5.055,5.055,0,0,1-2.093-1.723,4.144,4.144,0,0,1-.728-2.367,4.43,4.43,0,0,1,.274-1.552,4.305,4.305,0,0,1,.844-1.373,3.906,3.906,0,0,1,1.59-1.013,6.857,6.857,0,0,1,2.386-.379,10.439,10.439,0,0,1,2.575.342,9.089,9.089,0,0,1,2.215.832l-1.364,3.105h-.094a5.275,5.275,0,0,0-1.666-2.556,3.814,3.814,0,0,0-2.424-.89,2.126,2.126,0,0,0-1.41.4,1.194,1.194,0,0,0-.464.928,1.933,1.933,0,0,0,1.326,1.7l3.237,1.534a5.044,5.044,0,0,1,2.1,1.6,3.861,3.861,0,0,1,.605,2.206,4.623,4.623,0,0,1-1.4,3.427A4.932,4.932,0,0,1,747.567,75.664Z" transform="translate(0.675 0.73)" fill="#6300ff"/>
  </g>
</svg>
