<?xml version="1.0" standalone="no"?>
<!DOCTYPE svg PUBLIC "-//W3C//DTD SVG 1.1//EN" "http://www.w3.org/Graphics/SVG/1.1/DTD/svg11.dtd" >
<svg>
<metadata>
Created by FontForge 20120731 at Thu Aug 29 00:12:09 2019
 By www
Noel Leu
</metadata>
<defs>
<font id="GTSuperDisplay-Bold" horiz-adv-x="580" >
  <font-face 
    font-family="GT Super Display Bold"
    font-weight="700"
    font-stretch="normal"
    units-per-em="1000"
    panose-1="0 0 8 0 0 0 0 0 0 0"
    ascent="763"
    descent="-237"
    x-height="514"
    cap-height="700"
    bbox="-367 -226 1253 874"
    underline-thickness="50"
    underline-position="-50"
    unicode-range="U+000D-FB02"
  />
<missing-glyph horiz-adv-x="662" 
d="M460 479q182 -89 182 -256q0 -132 -93 -215.5t-241 -83.5q-128 0 -208 58t-80 150q0 70 46 111t126 41q89 0 152.5 -50t63.5 -120q0 -45 -27.5 -72.5t-72.5 -27.5q-43 0 -70.5 27.5t-27.5 69.5q0 38 28 64.5t68 26.5q22 0 40 -6q-39 52 -114 52q-51 0 -81 -31.5
t-30 -86.5q0 -77 58 -127t147 -50q82 0 132.5 41t50.5 106q0 93 -129 156l-152 74q-153 75 -153 211q0 99 75.5 161t196.5 62q68 0 142.5 -17.5t121.5 -44.5l-72 -194h-5q-22 93 -93 156t-154 63q-43 0 -67 -18t-24 -49q0 -28 23.5 -52t77.5 -50z" />
    <glyph glyph-name="fi" unicode="fi" horiz-adv-x="623" 
d="M25 0v6q30 7 44.5 22t14.5 44v422h-57v20h57v12q0 95 62.5 148t170.5 53q42 0 89 -9t88.5 -32.5t41.5 -57.5q0 -24 -16.5 -39.5t-46.5 -15.5q-47 0 -88 64q-38 60 -110 60q-46 0 -74 -25t-28 -68q0 -56 59 -90h68v-20h-68v-422q0 -29 14.5 -44t44.5 -22v-6h-266zM337 0v6
q30 7 44.5 22t14.5 44v318q0 39 -12.5 54t-46.5 18v6l207 58v-454q0 -29 14.5 -44t44.5 -22v-6h-266z" />
    <glyph glyph-name="fl" unicode="fl" horiz-adv-x="621" 
d="M25 0v6q30 7 44.5 22t14.5 44v422h-57v20h57v9q0 103 65.5 153.5t169.5 50.5q146 0 224 -51v-608q1 -48 58 -62v-6h-265v6q30 7 44 22t14 44v559q-37 64 -121 64q-47 0 -73 -26t-26 -66q0 -61 58 -89h76v-20h-76v-422q0 -29 14.5 -44t44.5 -22v-6h-266z" />
    <glyph glyph-name="f_f" unicode="ff" horiz-adv-x="656" 
d="M575 720q71 0 128 -36l-52 -103l-6 1q-4 47 -30 75t-64 28t-57 -24.5t-19 -52.5q0 -70 55 -94h96v-20h-80v-422q0 -32 18 -46t61 -20v-6h-286v6q30 7 44.5 22t14.5 44v422h-57v20h57v23q0 44 10 74q-20 35 -54.5 57t-78.5 22q-50 0 -78 -25.5t-27 -68.5q0 -52 51 -82h74
v-20h-63v-422q0 -29 14.5 -44t44.5 -22v-6h-266v6q30 7 44.5 22t14.5 44v422h-57v20h57v18q0 87 55.5 137.5t154.5 50.5q91 0 155 -42q47 42 126 42z" />
    <glyph glyph-name="f_f_i" unicode="ffi" horiz-adv-x="937" 
d="M487 604q0 -56 59 -90h68v-20h-68v-422q0 -29 14.5 -44t44.5 -22v-6h-266v6q30 7 44.5 22t14.5 44v422h-57v20h57v12q0 42 14 78q-19 38 -55 62t-82 24q-50 0 -78 -25.5t-27 -68.5q0 -52 51 -82h74v-20h-63v-422q0 -29 14.5 -44t44.5 -22v-6h-266v6q30 7 44.5 22t14.5 44
v422h-57v20h57v18q0 87 55.5 137.5t154.5 50.5t164 -48q63 55 173 55q42 0 89 -9t88.5 -32.5t41.5 -57.5q0 -24 -16.5 -39.5t-46.5 -15.5q-47 0 -88 64q-38 60 -110 60q-46 0 -74 -25t-28 -68zM858 72q0 -29 14.5 -44t44.5 -22v-6h-266v6q30 7 44.5 22t14.5 44v318
q0 39 -12.5 54t-46.5 18v6l207 58v-454z" />
    <glyph glyph-name="f_f_l" unicode="ffl" horiz-adv-x="934" 
d="M856 68q1 -48 58 -62v-6h-265v6q30 7 44 22t14 44v559q-37 64 -121 64q-47 0 -73 -26t-26 -66q0 -61 58 -89h76v-20h-76v-422q0 -29 14.5 -44t44.5 -22v-6h-266v6q30 7 44.5 22t14.5 44v422h-57v20h57v9q0 46 14 82q-19 38 -55 61.5t-81 23.5q-50 0 -78 -25.5t-27 -68.5
q0 -52 51 -82h74v-20h-63v-422q0 -29 14.5 -44t44.5 -22v-6h-266v6q30 7 44.5 22t14.5 44v422h-57v20h57v18q0 87 55.5 137.5t154.5 50.5q97 0 164 -47q63 54 174 54q146 0 224 -51v-608z" />
    <glyph glyph-name="f_b.liga" unicode="fb" horiz-adv-x="903" 
d="M577 -15q-104 0 -183 44v602q-37 64 -121 64q-47 0 -73 -26t-26 -66q0 -61 58 -89h76v-20h-76v-422q0 -32 18 -46t61 -20v-6h-286v6q30 7 44.5 22t14.5 44v422h-57v20h57v9q0 102 66 153t169 51q146 0 224 -51v-236q18 40 60.5 64.5t91.5 24.5q78 0 127 -64t49 -169
q0 -142 -82.5 -226.5t-211.5 -84.5zM601 13q51 0 80.5 58.5t29.5 169.5q0 220 -106 220q-47 0 -62 -39v-384q17 -25 58 -25z" />
    <glyph glyph-name="f_f_b.liga" unicode="ffb" horiz-adv-x="1216" 
d="M1009 529q78 0 127 -64t49 -169q0 -142 -82.5 -226.5t-211.5 -84.5q-104 0 -183 44v602q-37 64 -121 64q-47 0 -73 -26t-26 -66q0 -61 58 -89h76v-20h-76v-422q0 -32 18 -46t61 -20v-6h-286v6q30 7 44.5 22t14.5 44v422h-57v20h57v9q0 45 14 81q-19 38 -55 62t-82 24
q-50 0 -78 -25.5t-27 -68.5q0 -52 51 -82h74v-20h-63v-422q0 -29 14.5 -44t44.5 -22v-6h-266v6q30 7 44.5 22t14.5 44v422h-57v20h57v18q0 87 55.5 137.5t154.5 50.5t165 -48q62 55 174 55q146 0 224 -51v-236q18 40 60.5 64.5t91.5 24.5zM915 13q51 0 80.5 58.5t29.5 169.5
q0 220 -106 220q-47 0 -62 -39v-384q17 -25 58 -25z" />
    <glyph glyph-name="f_f_h.liga" unicode="ffh" horiz-adv-x="1228" 
d="M1150 72q0 -29 14 -44t44 -22v-6h-252v6q25 6 35 19t10 41v305q0 91 -70 91q-52 0 -74 -49v-347q0 -28 10 -41t35 -19v-6h-252v6q30 7 44 22t14 44v559q-37 64 -121 64q-47 0 -73 -26t-26 -66q0 -61 58 -89h76v-20h-76v-422q0 -29 14.5 -44t44.5 -22v-6h-266v6
q30 7 44.5 22t14.5 44v422h-57v20h57v9q0 44 14 80q-18 38 -54.5 62.5t-82.5 24.5q-50 0 -78 -25.5t-27 -68.5q0 -52 51 -82h74v-20h-63v-422q0 -29 14.5 -44t44.5 -22v-6h-266v6q30 7 44.5 22t14.5 44v422h-57v20h57v18q0 87 55.5 137.5t154.5 50.5q100 0 166 -49
q65 56 173 56q146 0 224 -51v-246q14 45 53.5 72t93.5 27q70 0 108 -40.5t38 -110.5v-306z" />
    <glyph glyph-name="f_f_j.liga" unicode="ffj" horiz-adv-x="925" 
d="M339 6q30 7 44.5 22t14.5 44v422h-57v20h57v12q0 40 14 77q-18 38 -54 62.5t-83 24.5q-50 0 -78 -25.5t-27 -68.5q0 -52 51 -82h74v-20h-63v-422q0 -29 14.5 -44t44.5 -22v-6h-266v6q30 7 44.5 22t14.5 44v422h-57v20h57v18q0 87 55.5 137.5t154.5 50.5q100 0 167 -49
q64 56 170 56q42 0 89 -9t88.5 -33.5t41.5 -59.5q0 -27 -17 -44.5t-47 -17.5q-26 0 -45.5 16t-41.5 54q-37 64 -110 64q-46 0 -74 -25t-28 -68q0 -56 59 -90h68v-20h-68v-422q0 -32 18 -46t61 -20v-6h-286v6zM651 468l207 58v-560q0 -97 -44.5 -139t-109.5 -42
q-88 0 -144 58l8 6q32 -31 71 -31q34 0 52.5 23.5t18.5 61.5v487q0 39 -12.5 54t-46.5 18v6z" />
    <glyph glyph-name="f_f_k.liga" unicode="ffk" horiz-adv-x="1258" 
d="M857 66q0 -28 10 -41t35 -19v-6h-252v6q30 7 44 22t14 44v559q-37 64 -121 64q-47 0 -73 -26t-26 -66q0 -61 58 -89h76v-20h-76v-422q0 -29 14.5 -44t44.5 -22v-6h-266v6q30 7 44.5 22t14.5 44v422h-57v20h57v9q0 44 14 81q-19 38 -55 62t-82 24q-50 0 -78 -25.5
t-27 -68.5q0 -52 51 -82h74v-20h-63v-422q0 -29 14.5 -44t44.5 -22v-6h-266v6q30 7 44.5 22t14.5 44v422h-57v20h57v18q0 87 55.5 137.5t154.5 50.5t165 -49q63 56 174 56q146 0 224 -51v-610zM1164 78q24 -35 44 -51t45 -21v-6h-219l-172 268l152 120q55 44 55 76
q0 41 -62 44v6h208v-6q-48 -21 -130 -88l-94 -79z" />
    <glyph glyph-name="f_h.liga" unicode="fh" horiz-adv-x="914" 
d="M25 0v6q30 7 44.5 22t14.5 44v422h-57v20h57v9q0 99 66.5 151.5t168.5 52.5q146 0 224 -51v-246q14 45 53.5 72t93.5 27q70 0 108 -40.5t38 -110.5v-306q0 -29 14 -44t44 -22v-6h-252v6q25 6 35 19t10 41v305q0 91 -70 91q-52 0 -74 -49v-347q0 -28 10 -41t35 -19v-6
h-252v6q30 7 44 22t14 44v559q-37 64 -121 64q-47 0 -73 -26t-26 -66q0 -61 58 -89h76v-20h-76v-422q0 -29 14.5 -44t44.5 -22v-6h-266z" />
    <glyph glyph-name="f_j.liga" unicode="fj" horiz-adv-x="611" 
d="M25 0v6q30 7 44.5 22t14.5 44v422h-57v20h57v12q0 89 63 145t170 56q42 0 89 -9t88.5 -33.5t41.5 -59.5q0 -27 -17 -44.5t-47 -17.5q-26 0 -45.5 16t-41.5 54q-37 64 -110 64q-46 0 -74 -25t-28 -68q0 -56 59 -90h68v-20h-68v-422q0 -32 18 -46t61 -20v-6h-286zM390 -215
q-88 0 -144 58l8 6q32 -31 71 -31q34 0 52.5 23.5t18.5 61.5v487q0 39 -12.5 54t-46.5 18v6l207 58v-560q0 -97 -44.5 -139t-109.5 -42z" />
    <glyph glyph-name="f_k.liga" unicode="fk" horiz-adv-x="944" 
d="M25 0v6q30 7 44.5 22t14.5 44v422h-57v20h57v9q0 101 66 152.5t169 51.5q146 0 224 -51v-610q0 -28 10 -41t35 -19v-6h-252v6q30 7 44 22t14 44v559q-37 64 -121 64q-47 0 -73 -26t-26 -66q0 -61 58 -89h76v-20h-76v-422q0 -29 14.5 -44t44.5 -22v-6h-266zM720 0
l-172 268l152 120q55 44 55 76q0 41 -62 44v6h208v-6q-48 -21 -130 -88l-94 -79l173 -263q24 -35 44 -51t45 -21v-6h-219z" />
    <glyph glyph-name=".notdef" horiz-adv-x="662" 
d="M460 479q182 -89 182 -256q0 -132 -93 -215.5t-241 -83.5q-128 0 -208 58t-80 150q0 70 46 111t126 41q89 0 152.5 -50t63.5 -120q0 -45 -27.5 -72.5t-72.5 -27.5q-43 0 -70.5 27.5t-27.5 69.5q0 38 28 64.5t68 26.5q22 0 40 -6q-39 52 -114 52q-51 0 -81 -31.5
t-30 -86.5q0 -77 58 -127t147 -50q82 0 132.5 41t50.5 106q0 93 -129 156l-152 74q-153 75 -153 211q0 99 75.5 161t196.5 62q68 0 142.5 -17.5t121.5 -44.5l-72 -194h-5q-22 93 -93 156t-154 63q-43 0 -67 -18t-24 -49q0 -28 23.5 -52t77.5 -50z" />
    <glyph glyph-name=".null" horiz-adv-x="600" 
 />
    <glyph glyph-name="nonmarkingreturn" horiz-adv-x="333" 
 />
    <glyph glyph-name="CR" unicode="&#xd;" horiz-adv-x="600" 
 />
    <glyph glyph-name="space" unicode=" " horiz-adv-x="210" 
 />
    <glyph glyph-name="exclam" unicode="!" horiz-adv-x="306" 
d="M143 218l-72 377q-4 15 -4 38q0 41 24 64t62 23q37 0 61.5 -23t24.5 -64q0 -16 -4 -38l-72 -377h-20zM154 -13q-34 0 -58.5 24.5t-24.5 58.5q0 33 24.5 57.5t58.5 24.5t58 -24.5t24 -57.5q0 -34 -24 -58.5t-58 -24.5z" />
    <glyph glyph-name="quotedbl" unicode="&#x22;" horiz-adv-x="420" 
d="M109 453l-58 158q-8 26 -8 46q1 31 21.5 52t51.5 21t51.5 -21t21.5 -52q0 -20 -8 -46l-58 -158h-14zM296 453l-58 158q-8 26 -8 46q1 31 21.5 52t51.5 21t51.5 -21t21.5 -52q0 -20 -8 -46l-58 -158h-14z" />
    <glyph glyph-name="numbersign" unicode="#" horiz-adv-x="625" 
d="M605 445h-167l-42 -192h172v-28h-178l-50 -229h-29l50 229h-156l-50 -229h-29l50 229h-156v28h162l42 192h-167v29h173l49 226h29l-49 -226h156l49 226h29l-49 -226h161v-29zM367 253l42 192h-156l-42 -192h156z" />
    <glyph glyph-name="dollar" unicode="$" horiz-adv-x="512" 
d="M486 199q0 -86 -56.5 -144.5t-147.5 -67.5v-87h-29v85h-2q-59 0 -121 15.5t-105 40.5l44 174h5q16 -82 64.5 -134t114.5 -59v229l-75 37q-135 66 -135 195q0 85 58 140.5t152 60.5v66h29v-65q114 -3 199 -53l-49 -162h-5q-37 157 -145 180v-221l71 -36q73 -37 103 -81.5
t30 -112.5zM218 462l35 -18v209h-7q-49 0 -79.5 -24.5t-30.5 -63.5q0 -33 19 -57t63 -46zM282 21q48 3 77 29.5t29 69.5q0 64 -81 104l-25 12v-215z" />
    <glyph glyph-name="percent" unicode="%" horiz-adv-x="770" 
d="M148 -40l429 722h43l-427 -722h-45zM199 315q-73 0 -116 47t-43 126q0 78 43.5 125.5t115.5 47.5t115.5 -47.5t43.5 -125.5q0 -79 -43 -126t-116 -47zM199 333q64 0 64 155q0 154 -64 154q-63 0 -63 -154q0 -155 63 -155zM571 -20q-73 0 -116 47t-43 126q0 78 43.5 125.5
t115.5 47.5t115.5 -47.5t43.5 -125.5q0 -79 -43 -126t-116 -47zM571 -2q64 0 64 155q0 154 -64 154q-63 0 -63 -154q0 -155 63 -155z" />
    <glyph glyph-name="ampersand" unicode="&#x26;" horiz-adv-x="760" 
d="M749 113l4 -3q-19 -58 -63.5 -92.5t-98.5 -34.5q-49 0 -81 20t-70 69l-32 40q-30 -59 -81.5 -94t-112.5 -35q-81 0 -134 50t-53 133q0 156 172 212l-9 11q-41 52 -57.5 90t-16.5 82q0 69 53 114t143 45q101 0 171 -49l-58 -141h-6q1 78 -28.5 123.5t-84.5 45.5
q-38 0 -56.5 -17.5t-18.5 -42.5q0 -27 14 -54t55 -77l279 -352q32 -41 57 -58t54 -17q35 0 59 32zM311 73q59 0 91 47l-198 251q-56 -32 -56 -113q0 -77 46.5 -131t116.5 -54z" />
    <glyph glyph-name="quotesingle" unicode="'" horiz-adv-x="233" 
d="M109 453l-58 158q-8 26 -8 46q1 31 21.5 52t51.5 21t51.5 -21t21.5 -52q0 -20 -8 -46l-58 -158h-14z" />
    <glyph glyph-name="parenleft" unicode="(" horiz-adv-x="327" 
d="M317 -147q-48 19 -94 56t-88.5 91.5t-68.5 133.5t-26 169t26 169t68.5 133.5t88.5 91.5t94 56l4 -4q-78 -58 -123 -181.5t-45 -264.5t45 -264.5t123 -181.5z" />
    <glyph glyph-name="parenright" unicode=")" horiz-adv-x="327" 
d="M10 753q48 -19 94 -56t88.5 -91.5t68.5 -133.5t26 -169t-26 -169t-68.5 -133.5t-88.5 -91.5t-94 -56l-4 4q78 58 123 181.5t45 264.5t-45 264.5t-123 181.5z" />
    <glyph glyph-name="asterisk" unicode="*" horiz-adv-x="418" 
d="M373 608q12 -39 -33 -56q-13 -5 -47 -5l-71 3l59 -38q22 -14 36 -32q14 -16 12 -34t-20 -30q-32 -24 -62 13q-14 16 -20 44l-18 69l-18 -69q-8 -31 -20 -44q-29 -38 -63 -13q-32 23 -8 64q9 15 37 32l59 38l-71 -3q-34 0 -47 5q-44 16 -32 56q5 19 21.5 26t36.5 1
q15 -4 42 -25l54 -43l-25 65q-10 25 -10 47q0 21 11.5 34.5t32.5 13.5q20 0 31 -13t12 -35q1 -16 -9 -47l-26 -66l56 44q21 19 41 25q21 6 37 -1t22 -26z" />
    <glyph glyph-name="plus" unicode="+" 
d="M490 321v-25h-186v-187h-27v187h-187v25h187v186h27v-186h186z" />
    <glyph glyph-name="comma" unicode="," horiz-adv-x="268" 
d="M76 -147l-6 19q90 27 90 81q0 20 -13 31.5t-39 18.5q-65 19 -65 73q0 32 20 53.5t56 21.5q40 0 68 -31t28 -89q0 -59 -28.5 -105.5t-110.5 -72.5z" />
    <glyph glyph-name="hyphen" unicode="-" horiz-adv-x="357" 
d="M35 280v51h287v-51h-287z" />
    <glyph glyph-name="period" unicode="." horiz-adv-x="251" 
d="M126 -14q-34 0 -58.5 24t-24.5 59q0 33 24.5 57.5t58.5 24.5t58 -24.5t24 -57.5q0 -34 -24 -58.5t-58 -24.5z" />
    <glyph glyph-name="slash" unicode="/" horiz-adv-x="341" 
d="M7 -60l293 822h34l-293 -822h-34z" />
    <glyph glyph-name="zero" unicode="0" horiz-adv-x="606" 
d="M303 -15q-112 0 -188.5 78t-76.5 214t76.5 214t188.5 78q111 0 188 -78.5t77 -213.5q0 -136 -77 -214t-188 -78zM303 15q57 0 80 61t23 201q0 139 -23 200.5t-80 61.5t-80 -61.5t-23 -200.5q0 -140 23 -201t80 -61z" />
    <glyph glyph-name="one" unicode="1" horiz-adv-x="440" 
d="M41 0v8q62 9 87 28.5t25 65.5v298q0 33 -12.5 49t-43.5 16q-17 0 -56 -12l-3 10l255 106h9v-467q0 -45 26 -65.5t86 -28.5v-8h-373z" />
    <glyph glyph-name="two" unicode="2" horiz-adv-x="505" 
d="M27 0v7l132 119q78 71 110 124t32 118q0 60 -30 93t-79 33q-101 0 -133 -116l-12 3q13 89 72.5 138.5t152.5 49.5q88 0 139 -41t51 -112q0 -64 -45.5 -117.5t-160.5 -131.5l-56 -40h284l-40 -127h-417z" />
    <glyph glyph-name="three" unicode="3" horiz-adv-x="511" 
d="M255 -155q-77 0 -135.5 30.5t-87.5 87.5l11 6q46 -72 124 -72q64 0 105 45t41 120q0 73 -38.5 113t-108.5 40h-20v16h21q64 0 102 41t38 108q0 63 -32 99t-90 36q-103 0 -139 -111l-10 4q14 75 73 118t149 43q96 0 152.5 -44.5t56.5 -118.5q0 -73 -49.5 -121.5
t-136.5 -58.5v-4q84 0 139 -46t55 -129q0 -85 -63 -143.5t-157 -58.5z" />
    <glyph glyph-name="four" unicode="4" horiz-adv-x="555" 
d="M277 -140v215h-267v27l353 452h63v-441h117v-38h-117v-215h-149zM57 114h220v286z" />
    <glyph glyph-name="five" unicode="5" horiz-adv-x="519" 
d="M211 -155q-145 0 -198 109l16 9q38 -77 130 -77q67 0 107 49.5t40 136.5q0 74 -34.5 118.5t-90.5 44.5q-55 0 -89 -34l-21 13l80 340h355l-37 -121h-307l-45 -186q47 32 126 32q111 0 168 -57.5t57 -148.5q0 -104 -73 -166t-184 -62z" />
    <glyph glyph-name="six" unicode="6" horiz-adv-x="577" 
d="M348 413q88 0 141 -52.5t53 -138.5q0 -102 -66.5 -169.5t-178.5 -67.5q-116 0 -188.5 81.5t-72.5 216.5q0 170 112 286t284 116q65 0 110 -17l-8 -18q-30 12 -79 12q-124 0 -184 -80t-69 -240q47 71 146 71zM295 5q42 0 63.5 46t21.5 127q0 183 -107 183q-45 0 -72 -40
q-1 -16 -1 -49q0 -267 95 -267z" />
    <glyph glyph-name="seven" unicode="7" horiz-adv-x="484" 
d="M40 -140l351 573h-369l37 121h419l1 -5l-340 -689h-99z" />
    <glyph glyph-name="eight" unicode="8" horiz-adv-x="571" 
d="M441 343q100 -58 100 -157q0 -87 -71 -144t-192 -57q-111 0 -179.5 47.5t-68.5 125.5q0 120 161 163l-29 18q-114 65 -114 167q0 83 63.5 131t173.5 48q102 0 165.5 -42t63.5 -113q0 -103 -149 -141zM276 662q-47 0 -72 -23.5t-25 -67.5q0 -71 75 -115l95 -57
q43 42 43 122q0 141 -116 141zM290 7q56 0 87.5 29.5t31.5 82.5q0 69 -69 108l-131 83q-54 -46 -54 -140q0 -77 35.5 -120t99.5 -43z" />
    <glyph glyph-name="nine" unicode="9" horiz-adv-x="577" 
d="M280 569q116 0 188.5 -81.5t72.5 -216.5q0 -180 -112 -303t-284 -123q-65 0 -110 17l8 18q30 -12 79 -12q125 0 185 86.5t69 258.5q-47 -72 -147 -72q-87 0 -140 53.5t-53 144.5q0 101 67 165.5t177 64.5zM305 193q46 0 72 42q1 15 1 47q0 267 -93 267q-42 0 -65 -46
t-23 -127q0 -183 108 -183z" />
    <glyph glyph-name="colon" unicode=":" horiz-adv-x="251" 
d="M126 353q-34 0 -58.5 24.5t-24.5 58.5q0 33 24.5 57.5t58.5 24.5t58 -24.5t24 -57.5q0 -34 -24 -58.5t-58 -24.5zM126 -14q-34 0 -58.5 24t-24.5 59q0 33 24.5 57.5t58.5 24.5t58 -24.5t24 -57.5q0 -34 -24 -58.5t-58 -24.5z" />
    <glyph glyph-name="semicolon" unicode=";" horiz-adv-x="272" 
d="M126 353q-34 0 -58.5 24.5t-24.5 58.5q0 33 24.5 57.5t58.5 24.5t58 -24.5t24 -57.5q0 -34 -24 -58.5t-58 -24.5zM79 -147l-6 19q90 27 90 81q0 20 -13 31.5t-39 18.5q-65 19 -65 73q0 32 20 53.5t56 21.5q40 0 68 -31t28 -89q0 -59 -28.5 -105.5t-110.5 -72.5z" />
    <glyph glyph-name="less" unicode="&#x3c;" 
d="M490 64l-400 201v24l400 201v-30l-365 -183l365 -183v-30z" />
    <glyph glyph-name="equal" unicode="=" 
d="M91 375v25h399v-25h-399zM91 216v25h399v-25h-399z" />
    <glyph glyph-name="greater" unicode="&#x3e;" 
d="M89 64v30l365 183l-365 183v30l400 -201v-24z" />
    <glyph glyph-name="question" unicode="?" horiz-adv-x="466" 
d="M195 216v31q0 32 11 54t36 50q63 72 63 160q0 61 -35 99t-89 38q-123 0 -157 -134l-7 2q16 95 76 149.5t158 54.5q85 0 138.5 -49t53.5 -126q0 -118 -137 -193q-47 -28 -66 -54t-19 -66v-16h-26zM212 -15q-34 0 -58.5 24.5t-24.5 58.5q0 33 24.5 57.5t58.5 24.5t58 -24.5
t24 -57.5q0 -34 -24 -58.5t-58 -24.5z" />
    <glyph glyph-name="at" unicode="@" horiz-adv-x="806" 
d="M410 336l21 4v9q0 103 -89 103q-74 0 -97 -66l-7 2q15 57 58 90t105 33q66 0 105.5 -37.5t39.5 -102.5v-174q0 -62 49 -62q55 0 91 58.5t36 149.5q0 141 -86 219t-223 78q-149 0 -239 -94t-90 -244q0 -164 96 -255t254 -91q168 0 241 96l5 -5q-80 -132 -269 -132
q-169 0 -275 104t-106 282q0 170 107.5 277.5t276.5 107.5q159 0 260.5 -93t101.5 -246q0 -119 -59 -190t-162 -71q-106 0 -123 84q-26 -74 -107 -74q-46 0 -74 26t-28 71q0 56 47.5 93t139.5 50zM388 155q18 0 29.5 13t13.5 35v121l-12 -3q-80 -17 -80 -97
q0 -32 13.5 -50.5t35.5 -18.5z" />
    <glyph glyph-name="A" unicode="A" horiz-adv-x="739" 
d="M648 108q17 -48 34.5 -70t50.5 -32v-6h-315v6q41 13 50.5 43.5t-9.5 89.5l-39 115h-235l-45 -131q-32 -92 51 -117v-6h-184v6q35 11 56 37.5t41 82.5l201 574h132zM194 282h217l-108 317z" />
    <glyph glyph-name="B" unicode="B" horiz-adv-x="669" 
d="M398 359q111 1 177 -45t66 -129q0 -90 -71.5 -137.5t-209.5 -47.5h-330v6q38 10 53.5 30.5t15.5 71.5v490q0 47 -15.5 67t-53.5 29v6h330q246 0 246 -165q0 -75 -55.5 -120.5t-152.5 -51.5v-4zM304 675h-41v-307h41q129 0 129 157q0 150 -129 150zM324 25q62 0 98 42
t36 117q0 83 -35.5 122.5t-108.5 39.5h-51v-321h61z" />
    <glyph glyph-name="C" unicode="C" horiz-adv-x="649" 
d="M343 -20q-141 0 -227 99t-86 262q0 167 97 273t251 106q126 0 233 -52l-56 -231l-7 1q-20 221 -201 221q-86 0 -136.5 -60.5t-50.5 -163.5q0 -143 75 -232t195 -89q141 0 176 114l8 -2q-51 -246 -271 -246z" />
    <glyph glyph-name="D" unicode="D" horiz-adv-x="724" 
d="M332 700q168 0 264 -93t96 -255q0 -169 -100 -260.5t-258 -91.5h-304v6q38 10 53.5 30.5t15.5 71.5v490q0 47 -15.5 67t-53.5 29v6h302zM297 25q118 0 167.5 67.5t49.5 246.5q0 186 -51.5 261t-165.5 75h-34v-650h34z" />
    <glyph glyph-name="E" unicode="E" horiz-adv-x="614" 
d="M571 271h6l-26 -271h-521v6q38 10 53.5 30.5t15.5 71.5v490q0 47 -15.5 67t-53.5 29v6h509l18 -238h-6q-57 213 -226 213h-62v-304h39q119 0 149 124h6v-280h-6q-31 131 -149 131h-39v-321h62q100 0 155 57.5t91 188.5z" />
    <glyph glyph-name="F" unicode="F" horiz-adv-x="574" 
d="M539 700l18 -238h-6q-57 213 -237 213h-51v-314h43q57 0 95 35.5t50 93.5h6v-280h-6q-12 57 -50 93t-95 36h-43v-230q0 -51 22 -73.5t79 -29.5v-6h-333v6q34 8 49.5 26t18.5 60v506q0 47 -15.5 67t-53.5 29v6h509z" />
    <glyph glyph-name="G" unicode="G" horiz-adv-x="729" 
d="M714 331v-6q-69 -18 -69 -96v-176q-49 -34 -118 -53.5t-140 -19.5q-163 0 -260 99t-97 264q0 172 107.5 274.5t288.5 102.5q120 0 224 -49l-51 -209h-6q-13 219 -181 219q-95 0 -146.5 -77.5t-51.5 -222.5q0 -162 58.5 -268.5t147.5 -106.5q49 0 68 24v184q0 54 -21 77.5
t-80 33.5v6h327z" />
    <glyph glyph-name="H" unicode="H" horiz-adv-x="776" 
d="M746 694q-37 -9 -53 -31t-16 -68v-490q0 -46 16 -68t53 -31v-6h-302v6q37 9 53 31t16 68v237h-250v-237q0 -46 16 -68t53 -31v-6h-302v6q37 9 53 31t16 68v490q0 46 -16 68t-53 31v6h302v-6q-37 -9 -53 -31t-16 -68v-225h250v225q0 46 -16 68t-53 31v6h302v-6z" />
    <glyph glyph-name="I" unicode="I" horiz-adv-x="362" 
d="M332 694q-69 -17 -69 -96v-490q0 -85 69 -102v-6h-302v6q38 10 53.5 30.5t15.5 71.5v490q0 47 -15.5 67t-53.5 29v6h302v-6z" />
    <glyph glyph-name="J" unicode="J" horiz-adv-x="351" 
d="M72 -78q-52 0 -84 13v6h17q49 0 78 36.5t29 106.5v514q0 47 -15.5 67t-53.5 29v6h302v-6q-69 -17 -69 -96v-474q0 -100 -54 -151t-150 -51z" />
    <glyph glyph-name="K" unicode="K" horiz-adv-x="763" 
d="M332 694q-69 -17 -69 -96v-490q0 -85 69 -102v-6h-302v6q38 10 53.5 30.5t15.5 71.5v490q0 47 -15.5 67t-53.5 29v6h302v-6zM648 101q36 -52 56.5 -70t51.5 -25v-6h-246l-247 358l204 198q31 30 43 47t12 35q0 48 -80 56v6h265v-6q-48 -11 -83.5 -35.5t-86.5 -72.5
l-136 -133z" />
    <glyph glyph-name="L" unicode="L" horiz-adv-x="568" 
d="M541 288h7l-30 -288h-488v6q38 10 53.5 30.5t15.5 71.5v490q0 47 -15.5 67t-53.5 29v6h302v-6q-69 -17 -69 -96v-573h29q100 0 158.5 65.5t90.5 197.5z" />
    <glyph glyph-name="M" unicode="M" horiz-adv-x="919" 
d="M394 -10l-245 605l-26 -457q-4 -72 14 -96t77 -36v-6h-199v6q41 12 56 38t19 93l26 453q3 46 -11.5 69.5t-53.5 34.5v6h233l182 -452l183 452h222v-6q-38 -9 -53.5 -33.5t-12.5 -74.5l26 -478q3 -45 20 -69t53 -33v-6h-313v6q41 12 59 42t15 87l-22 462l-244 -607h-5z
" />
    <glyph glyph-name="N" unicode="N" horiz-adv-x="748" 
d="M529 700h204v-6q-44 -8 -62.5 -33.5t-18.5 -76.5v-594h-5l-496 585v-453q0 -56 20.5 -80.5t70.5 -35.5v-6h-212v6q50 9 69 33.5t19 82.5v492q-46 52 -88 80v6h233l358 -413v297q0 52 -19 75t-73 35v6z" />
    <glyph glyph-name="O" unicode="O" horiz-adv-x="785" 
d="M392 -20q-161 0 -261.5 103t-100.5 267t100.5 267t261.5 103t262 -103t101 -267t-101 -267t-262 -103zM392 15q90 0 134 82t44 253q0 172 -43.5 253.5t-134.5 81.5q-90 0 -134 -82t-44 -253q0 -335 178 -335z" />
    <glyph glyph-name="P" unicode="P" horiz-adv-x="626" 
d="M327 299h-64v-190q0 -51 22 -73.5t79 -29.5v-6h-334v6q38 10 53.5 30.5t15.5 71.5v490q0 47 -15.5 67t-53.5 29v6h297q135 0 207.5 -51t72.5 -149t-72.5 -149.5t-207.5 -51.5zM296 676h-33v-353h33q60 0 97 48t37 129t-37 128.5t-97 47.5z" />
    <glyph glyph-name="Q" unicode="Q" horiz-adv-x="785" 
d="M700 -175q-293 0 -536 224q-134 123 -134 301q0 164 100.5 267t261.5 103t262 -103t101 -267q0 -144 -77.5 -241t-210.5 -120q146 -108 354 -108q120 0 177 43l5 -6q-45 -40 -124 -66.5t-179 -26.5zM392 15q90 0 134 82t44 253q0 172 -43.5 253.5t-134.5 81.5
q-90 0 -134 -82t-44 -253q0 -335 178 -335z" />
    <glyph glyph-name="R" unicode="R" horiz-adv-x="731" 
d="M30 0v6q38 10 53.5 30.5t15.5 71.5v490q0 47 -15.5 67t-53.5 29v6h311q266 0 266 -171q0 -74 -66 -123t-159 -49v-6q73 2 127 -30t77 -92l53 -136q29 -74 87 -86v-7h-223q-17 26 -44 99l-53 146q-22 56 -43 76t-62 20h-38v-233q0 -85 69 -102v-6h-302zM263 363h33
q131 0 131 163q0 73 -28 111.5t-96 38.5h-40v-313z" />
    <glyph glyph-name="S" unicode="S" horiz-adv-x="561" 
d="M276 -20q-142 0 -251 62l42 196h6q20 -104 84.5 -162.5t151.5 -58.5q54 0 87 28.5t33 78.5q0 36 -20.5 61.5t-70.5 47.5l-143 65q-152 68 -152 208q0 91 64.5 152.5t191.5 61.5t231 -56l-49 -178h-6q-22 98 -78 148t-133 50q-58 0 -88.5 -25.5t-30.5 -64.5
q0 -36 21 -60.5t72 -48.5l151 -71q77 -35 110.5 -82t33.5 -115q0 -104 -71 -170.5t-186 -66.5z" />
    <glyph glyph-name="T" unicode="T" horiz-adv-x="601" 
d="M583 726h5v-272h-6q-14 100 -59 157t-116 57h-24v-559q0 -51 21.5 -73.5t78.5 -29.5v-6h-365v6q57 7 78.5 29.5t21.5 73.5v559h-24q-72 0 -116.5 -57t-58.5 -157h-6v272h5q23 -26 84 -26h397q61 0 84 26z" />
    <glyph glyph-name="U" unicode="U" horiz-adv-x="689" 
d="M682 700v-6q-38 -10 -55 -32.5t-17 -73.5v-339q0 -128 -66 -198.5t-192 -70.5q-134 0 -205.5 73.5t-71.5 214.5v330q0 47 -15 67t-53 29v6h317v-6q-46 -11 -64.5 -33t-18.5 -73v-320q0 -107 43 -162.5t126 -55.5q168 0 168 219v309q0 55 -22.5 80t-72.5 36v6h199z" />
    <glyph glyph-name="V" unicode="V" horiz-adv-x="720" 
d="M357 -10l-256 601q-22 50 -41.5 74t-54.5 29v6h336v-6q-70 -8 -70 -62q0 -24 13 -53l149 -352l142 344q13 33 13 58q0 57 -63 65v6h190v-6q-37 -7 -58 -31.5t-48 -87.5l-247 -585h-5z" />
    <glyph glyph-name="W" unicode="W" horiz-adv-x="1008" 
d="M821 700h182v-6q-35 -7 -55 -31.5t-44 -85.5l-226 -587h-4l-170 433l-168 -433h-4l-236 599q-19 50 -38 74.5t-53 30.5v6h308v-6q-47 -9 -47 -52q0 -27 16 -68l123 -325l82 216l-50 127q-16 41 -28 61t-35 41v6h301v-6q-66 -8 -66 -62q0 -19 11 -50l128 -333l122 325
q12 29 12 56q0 57 -61 64v6z" />
    <glyph glyph-name="X" unicode="X" horiz-adv-x="779" 
d="M653 110q32 -48 58.5 -71.5t60.5 -32.5v-6h-348v6q53 15 53 58q0 27 -44 92l-88 131l-122 -156q-34 -45 -34 -68q0 -42 57 -57v-6h-239v6q49 11 88 38.5t78 77.5l152 194l-187 277q-57 85 -124 101v6h358v-6q-57 -7 -57 -51q0 -25 47 -96l84 -126l97 125q47 59 47 93
q0 47 -63 55v6h219v-6q-63 -15 -145 -123l-136 -178z" />
    <glyph glyph-name="Y" unicode="Y" horiz-adv-x="674" 
d="M475 700h192v-6q-24 -3 -54 -31.5t-57 -77.5l-138 -255v-229q1 -46 23 -67t77 -28v-6h-365v6q57 7 78.5 29.5t21.5 73.5v218l-145 272q-48 89 -101 95v6h323v-6q-63 -9 -63 -62q0 -27 18 -60l117 -210l114 205q20 34 20 64q0 54 -61 63v6z" />
    <glyph glyph-name="Z" unicode="Z" horiz-adv-x="621" 
d="M20 0v5l384 670h-78q-64 -1 -109.5 -19t-76 -54t-49 -75t-37.5 -100h-6l27 273h521v-5l-380 -670h85q64 1 115.5 24.5t84.5 63.5t53.5 81.5t33.5 91.5h6l-29 -286h-545z" />
    <glyph glyph-name="bracketleft" unicode="[" horiz-adv-x="263" 
d="M253 725q-22 -2 -35 -5t-28 -10t-22.5 -21.5t-7.5 -36.5v-698q0 -22 7.5 -36.5t22.5 -21.5t28 -10t35 -5v-5h-187v854h187v-5z" />
    <glyph glyph-name="backslash" unicode="\" horiz-adv-x="334" 
d="M300 -60l-293 822h27l293 -822h-27z" />
    <glyph glyph-name="bracketright" unicode="]" horiz-adv-x="263" 
d="M10 725v5h187v-854h-187v5q22 2 35 5t28 10t22.5 21.5t7.5 36.5v698q0 22 -7.5 36.5t-22.5 21.5t-28 10t-35 5z" />
    <glyph glyph-name="asciicircum" unicode="^" horiz-adv-x="335" 
d="M23 460l134 245h21l134 -245h-30l-114 212l-115 -212h-30z" />
    <glyph glyph-name="underscore" unicode="_" horiz-adv-x="516" 
d="M0 -58v41h516v-41h-516z" />
    <glyph glyph-name="grave" unicode="`" horiz-adv-x="600" 
d="M209 567l-149 128v5h125l59 -133h-35z" />
    <glyph glyph-name="a" unicode="a" horiz-adv-x="555" 
d="M540 110l9 -1q-13 -60 -49.5 -92t-90.5 -32q-45 0 -72 23.5t-32 64.5l-2 8q-11 -40 -48 -68t-90 -28q-62 0 -98 36.5t-36 88.5q0 65 49.5 109t137.5 62l83 17v21q0 130 -112 130q-102 0 -133 -109l-8 2q12 87 67 137t143 50q96 0 143.5 -56.5t47.5 -156.5v-201
q0 -25 11 -39t28 -14q38 0 52 48zM242 61q42 0 59 37v175l-39 -7q-93 -19 -93 -114q0 -40 19 -65.5t54 -25.5z" />
    <glyph glyph-name="b" unicode="b" horiz-adv-x="579" 
d="M371 529q78 0 127 -64t49 -169q0 -142 -82.5 -226.5t-211.5 -84.5q-103 0 -183 44v565q0 35 -12.5 50t-45.5 19v6l207 61v-290q18 40 60.5 64.5t91.5 24.5zM277 13q51 0 80.5 58.5t29.5 169.5q0 220 -106 220q-47 0 -62 -39v-384q20 -25 58 -25z" />
    <glyph glyph-name="c" unicode="c" horiz-adv-x="478" 
d="M254 -15q-101 0 -163.5 72.5t-62.5 189.5q0 126 70.5 204t184.5 78q97 0 168 -38l-51 -178l-6 1q-4 77 -36.5 118t-87.5 41q-65 0 -98.5 -43.5t-33.5 -120.5q0 -80 47 -142t131 -62q100 0 130 81l7 -2q-7 -90 -62 -144.5t-137 -54.5z" />
    <glyph glyph-name="d" unicode="d" horiz-adv-x="587" 
d="M508 79q0 -36 14 -51t45 -22v-6h-207v87q-16 -44 -52.5 -73t-90.5 -29q-83 0 -134 69.5t-51 183.5q0 130 69.5 210.5t173.5 80.5q51 0 85 -23v92q0 33 -19 47.5t-64 10.5v6l231 68v-651zM298 64q46 0 62 39v361q-16 38 -60 38q-50 0 -79 -61t-29 -162q0 -99 30 -157
t76 -58z" />
    <glyph glyph-name="e" unicode="e" horiz-adv-x="486" 
d="M446 183l7 -2q-12 -69 -44.5 -114.5t-72.5 -63.5t-86 -18q-93 0 -157.5 69.5t-64.5 192.5q0 124 63 203t165 79q82 0 139.5 -55.5t56.5 -170.5h-308q7 -95 53 -147t120 -52q93 0 129 79zM234 501q-42 0 -66.5 -43.5t-24.5 -118.5v-11h173q1 173 -82 173z" />
    <glyph glyph-name="f" unicode="f" horiz-adv-x="342" 
d="M261 720q71 0 128 -36l-52 -103l-6 1q-4 47 -30 75t-64 28t-57 -24.5t-19 -52.5q0 -70 55 -94h96v-20h-80v-422q0 -32 18 -46t61 -20v-6h-286v6q30 7 44.5 22t14.5 44v422h-57v20h57v23q0 91 46.5 137t130.5 46z" />
    <glyph glyph-name="g" unicode="g" horiz-adv-x="525" 
d="M372 112q141 -10 141 -128q0 -80 -66 -139.5t-203 -59.5q-115 0 -172 31.5t-57 87.5q0 32 22.5 58.5t63.5 38.5q-58 28 -58 99q0 41 24.5 74t63.5 43q-84 48 -84 142q0 76 58 123t154 47q54 0 96 -15h151v-20h-109q75 -47 75 -135q0 -77 -58.5 -124t-154.5 -47
q-63 0 -110 21q-38 -11 -38 -40q0 -39 62 -42zM260 511q-70 0 -70 -157q0 -147 70 -147q69 0 69 147q0 155 -69 157zM286 -178q76 0 119 26t43 66q0 26 -18.5 38t-65.5 16l-210 19q-20 2 -35 7q-18 -21 -18 -50q0 -55 50 -88.5t135 -33.5z" />
    <glyph glyph-name="h" unicode="h" horiz-adv-x="599" 
d="M20 0v6q30 7 44.5 22t14.5 44v522q0 35 -13 50t-46 19v6l207 61v-300q14 45 53.5 72t93.5 27q70 0 108 -40.5t38 -110.5v-306q0 -29 14.5 -44t44.5 -22v-6h-252v6q25 6 35 19t10 41v305q0 91 -71 91q-50 0 -74 -49v-347q0 -28 10 -41t35 -19v-6h-252z" />
    <glyph glyph-name="i" unicode="i" horiz-adv-x="311" 
d="M152 561q-35 0 -59 23.5t-24 58.5t24 58.5t59 23.5t58.5 -23.5t23.5 -58.5t-23.5 -58.5t-58.5 -23.5zM232 72q0 -29 14.5 -44t44.5 -22v-6h-266v6q30 7 44.5 22t14.5 44v318q0 39 -12.5 54t-46.5 18v6l207 58v-454z" />
    <glyph glyph-name="j" unicode="j" horiz-adv-x="296" 
d="M147 561q-35 0 -59 23.5t-24 58.5t24 58.5t59 23.5t58.5 -23.5t23.5 -58.5t-23.5 -58.5t-58.5 -23.5zM49 -215q-48 0 -77 13v4q7 -1 19 -1q41 0 65 33.5t24 98.5v457q0 39 -12.5 54t-46.5 18v6l207 58v-550q0 -90 -43.5 -140.5t-135.5 -50.5z" />
    <glyph glyph-name="k" unicode="k" horiz-adv-x="629" 
d="M20 0v6q30 7 44.5 22t14.5 44v522q0 35 -13 50t-46 19v6l207 61v-664q0 -28 13 -41t45 -19v-6h-265zM405 0l-173 268l153 120q55 45 55 76q0 41 -63 44v6h208v-6q-51 -24 -129 -88l-95 -79l173 -263q24 -35 44 -51t46 -21v-6h-219z" />
    <glyph glyph-name="l" unicode="l" horiz-adv-x="306" 
d="M227 72q0 -29 14.5 -44t44.5 -22v-6h-266v6q30 7 44.5 22t14.5 44v522q0 35 -13 50t-46 19v6l207 61v-658z" />
    <glyph glyph-name="m" unicode="m" horiz-adv-x="867" 
d="M788 72q0 -29 14.5 -44t44.5 -22v-6h-249v6q22 4 31 11t11 23v332q0 91 -67 91q-45 0 -66 -50q3 -16 3 -35v-312q0 -28 10 -41t35 -19v-6h-238v6q25 6 35 19t10 41v306q0 91 -67 91q-44 0 -63 -46v-351q0 -28 10 -41t35 -19v-6h-252v6q30 7 44.5 22t14.5 44v319
q0 39 -12.5 54.5t-46.5 18.5v6l207 57v-94q14 45 50 70.5t85 25.5q55 0 90.5 -26.5t46.5 -73.5q15 45 53 72.5t89 27.5q68 0 105 -40.5t37 -110.5v-306z" />
    <glyph glyph-name="n" unicode="n" horiz-adv-x="604" 
d="M525 72q0 -29 14.5 -44t44.5 -22v-6h-252v6q25 6 35 19t10 41v305q0 92 -70 92q-51 0 -75 -49v-348q0 -28 10 -41t35 -19v-6h-252v6q30 7 44.5 22t14.5 44v319q0 39 -12.5 54.5t-46.5 18.5v6l207 57v-98q14 46 53.5 73t93.5 27q70 0 108 -40.5t38 -111.5v-305z" />
    <glyph glyph-name="o" unicode="o" horiz-adv-x="576" 
d="M288 -15q-116 0 -188 76t-72 196t72 196t188 76t187.5 -76t71.5 -196t-71.5 -196t-187.5 -76zM288 17q53 0 77.5 57.5t24.5 182.5t-24.5 182.5t-77.5 57.5q-54 0 -78 -57t-24 -183q0 -125 24 -182.5t78 -57.5z" />
    <glyph glyph-name="p" unicode="p" horiz-adv-x="582" 
d="M15 -200v6q30 7 44.5 22t14.5 44v519q0 39 -12.5 54.5t-46.5 18.5v6l207 57v-87q19 42 57 65.5t86 23.5q81 0 133 -67.5t52 -178.5q0 -132 -68.5 -215t-173.5 -83q-48 0 -86 26v-139q0 -32 18 -46t61 -20v-6h-286zM284 11q47 0 76.5 61t29.5 163q0 104 -29.5 164.5
t-80.5 60.5q-40 0 -58 -32v-386q22 -31 62 -31z" />
    <glyph glyph-name="q" unicode="q" horiz-adv-x="575" 
d="M508 -128q0 -29 14.5 -44t44.5 -22v-6h-285v6q42 6 60 20t18 46v212q-16 -43 -57 -71t-89 -28q-83 0 -132.5 70t-49.5 166q0 144 79.5 226t213.5 82q98 0 183 -47v-610zM299 64q43 0 61 36v378q-18 27 -55 27q-51 0 -82 -57.5t-31 -148.5q0 -116 28 -175.5t79 -59.5z" />
    <glyph glyph-name="r" unicode="r" horiz-adv-x="408" 
d="M386 529h11v-144h-5q-17 9 -52 9q-53 0 -80.5 -37t-27.5 -131v-154q0 -32 18 -46t61 -20v-6h-286v6q30 7 44.5 22t14.5 44v310q0 43 -13 60.5t-46 20.5v6l201 58v-224h5q11 226 155 226z" />
    <glyph glyph-name="s" unicode="s" horiz-adv-x="445" 
d="M210 -15q-104 0 -185 59l40 143l7 -1q14 -72 61.5 -118.5t107.5 -46.5q43 0 64.5 20.5t21.5 49.5q0 45 -57 68l-133 59q-96 43 -96 141q0 68 53 119t153 51q98 0 168 -47l-42 -125h-7q-37 139 -152 139q-41 0 -60.5 -17t-19.5 -44q0 -45 56 -69l128 -57q98 -42 98 -137
q0 -78 -55 -132.5t-151 -54.5z" />
    <glyph glyph-name="t" unicode="t" horiz-adv-x="367" 
d="M352 121l8 -3q-18 -59 -59.5 -96t-103.5 -37q-61 0 -92.5 35.5t-31.5 96.5v375h-58v5q128 75 203 180h4v-165h101v-20h-101v-353q0 -35 14.5 -56t41.5 -21q53 0 74 59z" />
    <glyph glyph-name="u" unicode="u" horiz-adv-x="584" 
d="M505 79q0 -36 14 -51t45 -22v-6h-207v89q-16 -45 -53.5 -74.5t-87.5 -29.5q-68 0 -106 39.5t-38 122.5v265q0 41 -12.5 56t-46.5 18v6l207 35v-376q0 -43 19 -65.5t53 -22.5q45 2 65 41v309q0 41 -10.5 56.5t-38.5 18.5v6l197 33v-448z" />
    <glyph glyph-name="v" unicode="v" horiz-adv-x="542" 
d="M268 -10l-191 436q-17 39 -33 57.5t-39 24.5v6h279v-6q-54 -7 -54 -46q0 -16 11 -43l95 -225l95 223q11 29 11 45q0 39 -54 46v6h149v-6q-25 -7 -39.5 -24t-32.5 -58l-191 -436h-6z" />
    <glyph glyph-name="w" unicode="w" horiz-adv-x="844" 
d="M692 514h147v-6q-43 -16 -70 -82l-183 -436h-5l-157 353l-160 -353h-5l-180 436q-30 72 -74 82v6h262v-6q-36 -12 -36 -43q0 -15 13 -48l87 -224l79 183l-30 67q-23 56 -52 65v6h262v-6q-26 -2 -39 -14t-13 -29q0 -18 11 -46l92 -227l92 225q11 28 11 47q0 17 -13 29.5
t-39 14.5v6z" />
    <glyph glyph-name="x" unicode="x" horiz-adv-x="590" 
d="M499 80q23 -35 42 -51.5t42 -22.5v-6h-300v6q54 4 54 40q0 22 -19 50l-73 113l-75 -98q-28 -35 -28 -58q0 -18 15.5 -30.5t41.5 -16.5v-6h-188v6q56 16 102 75l117 150l-132 203q-24 39 -42.5 54t-45.5 20v6h299v-5q-52 -10 -52 -39q0 -21 21 -52l61 -94l59 77
q31 39 31 61q0 39 -56 47v5h185v-6q-56 -11 -110 -82l-94 -124z" />
    <glyph glyph-name="y" unicode="y" horiz-adv-x="543" 
d="M84 -215q-56 0 -101 27l38 127h5q19 -17 50 -27t58 -10q94 0 129 63l6 12l-189 446q-30 74 -74 85v6h276v-6q-52 -11 -52 -45q0 -23 10 -49l93 -247l95 237q11 26 11 49q0 46 -53 55v6h152v-6q-26 -8 -41.5 -28t-31.5 -64l-178 -454q-38 -101 -87 -139t-116 -38z" />
    <glyph glyph-name="z" unicode="z" horiz-adv-x="502" 
d="M23 0v3l282 489h-43q-78 0 -131 -51t-78 -143h-5l29 216h402v-3l-282 -489h36q169 0 229 210h5l-20 -232h-424z" />
    <glyph glyph-name="braceleft" unicode="{" horiz-adv-x="306" 
d="M294 -137q-90 5 -144 55t-54 128v156q0 74 -63 104v5q63 30 63 108v141q0 78 54 128t144 55v-5q-44 -11 -71 -56.5t-27 -106.5v-133q0 -74 -61 -108q61 -34 61 -108v-195q0 -61 27 -106t71 -57v-5z" />
    <glyph glyph-name="bar" unicode="|" horiz-adv-x="166" 
d="M100 730v-854h-34v854h34z" />
    <glyph glyph-name="braceright" unicode="}" horiz-adv-x="306" 
d="M12 -137v5q44 11 71 56.5t27 106.5v169q0 74 61 108q-61 34 -61 108v159q0 60 -27.5 106t-70.5 57v5q95 -5 146.5 -56.5t51.5 -126.5v-120q0 -74 63 -104v-5q-63 -30 -63 -108v-177q0 -75 -51.5 -126.5t-146.5 -56.5z" />
    <glyph glyph-name="asciitilde" unicode="~" horiz-adv-x="572" 
d="M398 285q-61 0 -136.5 30.5t-119.5 30.5q-68 0 -100 -56l-7 2q29 95 139 95q44 0 119.5 -30.5t136.5 -30.5q68 0 100 56l7 -2q-29 -95 -139 -95z" />
    <glyph glyph-name="DEL" horiz-adv-x="600" 
 />
    <glyph glyph-name="uni00A0" unicode="&#xa0;" horiz-adv-x="210" 
 />
    <glyph glyph-name="exclamdown" unicode="&#xa1;" horiz-adv-x="306" 
d="M154 518q34 0 58 -24.5t24 -58.5q0 -33 -24 -57.5t-58 -24.5t-58.5 24.5t-24.5 57.5q0 35 24.5 59t58.5 24zM143 287h20l72 -377q4 -22 4 -38q0 -41 -24.5 -64t-61.5 -23q-38 0 -62 23t-24 64q0 23 4 38z" />
    <glyph glyph-name="cent" unicode="&#xa2;" horiz-adv-x="515" 
d="M339 101q109 0 139 95l7 -2q-7 -86 -55 -141.5t-123 -66.5v-86h-27v84h-5q-110 0 -178.5 77.5t-68.5 203.5q0 132 69 214.5t183 89.5v81h27v-81q105 -2 180 -40l-53 -182l-7 1q-12 155 -120 175v-419q15 -3 32 -3zM139 340q0 -84 38.5 -146.5t102.5 -83.5v415h-3
q-65 0 -101.5 -48.5t-36.5 -136.5z" />
    <glyph glyph-name="sterling" unicode="&#xa3;" horiz-adv-x="554" 
d="M398 108q46 0 69.5 25.5t30.5 83.5l7 -1q-11 -231 -167 -231q-31 0 -86 16.5t-96 16.5q-71 0 -119 -33l-7 5q66 65 87.5 108t21.5 92q0 63 -28 126h-74v22h64q-33 72 -33 136q0 95 63 153t168 58q131 0 212 -59l-51 -162h-6q-27 191 -168 191q-50 0 -78.5 -25.5
t-28.5 -70.5q0 -46 38 -113.5t44 -107.5h136v-22h-134v-8q0 -100 -96 -193l5 -4q35 26 78 26q19 0 64.5 -14.5t83.5 -14.5z" />
    <glyph glyph-name="currency" unicode="&#xa4;" horiz-adv-x="592" 
d="M96 139l-11 11l64 64q-51 56 -51 136t51 136l-64 64l11 11l63 -63q56 53 137 53t137 -53l63 63l11 -11l-64 -64q51 -56 51 -136t-51 -136l64 -64l-11 -11l-63 63q-56 -53 -137 -53t-137 53zM296 165q79 0 129.5 53.5t50.5 131.5t-50.5 131.5t-129.5 53.5t-129.5 -53.5
t-50.5 -131.5t50.5 -131.5t129.5 -53.5z" />
    <glyph glyph-name="yen" unicode="&#xa5;" horiz-adv-x="637" 
d="M134 0v6q57 7 79 29.5t22 73.5v92h-130v26h130v65h-130v26h125l-122 251q-44 89 -101 95v6h310v-6q-25 -5 -39.5 -21t-14.5 -41q0 -23 19 -60l102 -200l99 195q21 39 21 64q0 55 -53 63v6h179v-6q-25 -3 -55 -31.5t-54 -77.5l-118 -237h127v-26h-131v-65h131v-26h-131
v-92q0 -51 22 -73.5t79 -29.5v-6h-366z" />
    <glyph glyph-name="brokenbar" unicode="&#xa6;" horiz-adv-x="166" 
d="M100 730v-362h-34v362h34zM66 -124v392h34v-392h-34z" />
    <glyph glyph-name="section" unicode="&#xa7;" horiz-adv-x="520" 
d="M410 112q72 -54 72 -132q0 -87 -61.5 -141t-180.5 -54q-124 0 -215 51l34 167h5q15 -86 75 -136.5t138 -50.5q53 0 81.5 24t28.5 67q0 31 -19 52.5t-66 42.5l-128 58q-134 61 -134 176q0 107 100 160q-77 53 -77 143q0 76 55 128.5t161 52.5q54 0 112 -14t98 -35
l-38 -151h-5q-19 83 -71.5 126.5t-125.5 43.5q-51 0 -76 -21.5t-25 -56.5q0 -30 19 -49.5t68 -41.5l131 -61q69 -31 98.5 -75.5t29.5 -106.5q0 -112 -84 -166zM347 148q29 -14 48 -25q33 25 33 81q0 37 -17.5 60t-65.5 42l-147 59q-24 9 -40 19q-38 -23 -38 -72
q0 -63 77 -98z" />
    <glyph glyph-name="dieresis" unicode="&#xa8;" horiz-adv-x="600" 
d="M116 584q-28 0 -47 18.5t-19 47.5q0 28 19 46.5t47 18.5t46.5 -18.5t18.5 -46.5q0 -29 -18.5 -47.5t-46.5 -18.5zM301 584q-28 0 -47 18.5t-19 47.5q0 28 19 46.5t47 18.5t47 -18.5t19 -46.5q0 -29 -19 -47.5t-47 -18.5z" />
    <glyph glyph-name="copyright" unicode="&#xa9;" horiz-adv-x="840" 
d="M420 -40q-173 0 -281.5 108t-108.5 282t108.5 282t281.5 108t281.5 -108t108.5 -282t-108.5 -282t-281.5 -108zM421 6q146 0 239 95.5t93 248.5t-93 248.5t-239 95.5t-239 -95.5t-93 -248.5t93 -248.5t239 -95.5zM418 150q-78 0 -125.5 55t-47.5 145q0 92 54.5 151
t139.5 59q66 0 129 -30l-32 -127h-5q-12 121 -110 121q-46 0 -73.5 -32t-27.5 -87q0 -79 41.5 -127.5t107.5 -48.5q75 0 95 59l5 -2q-29 -136 -151 -136z" />
    <glyph glyph-name="ordfeminine" unicode="&#xaa;" horiz-adv-x="472" 
d="M426 415l7 -1q-9 -47 -39 -71.5t-72 -24.5q-31 0 -50 16.5t-23 45.5l-2 3q-8 -28 -34.5 -46.5t-65.5 -18.5q-45 0 -71 26t-26 62q0 46 36.5 77.5t100.5 43.5l58 11v14q0 88 -79 88q-75 0 -98 -74l-5 1q9 63 50 98.5t106 35.5q72 0 107 -41t35 -112v-134q0 -37 29 -37
q27 0 36 38zM208 376q27 0 37 21v123l-24 -4q-64 -11 -64 -78q0 -28 13.5 -45t37.5 -17z" />
    <glyph glyph-name="guillemotleft" unicode="&#xab;" horiz-adv-x="504" 
d="M264 78l-218 201v4l218 201l8 -4l-123 -199l123 -199zM449 78l-218 201v4l218 201l8 -4l-123 -199l123 -199z" />
    <glyph glyph-name="logicalnot" unicode="&#xac;" 
d="M489 363v-190h-27v165h-371v25h398z" />
    <glyph glyph-name="uni00AD" unicode="&#xad;" horiz-adv-x="357" 
d="M35 280v51h287v-51h-287z" />
    <glyph glyph-name="registered" unicode="&#xae;" horiz-adv-x="583" 
d="M292 687q109 0 178.5 -72t69.5 -180t-69.5 -180t-178.5 -72t-179 72t-70 180t70 180t179 72zM292 221q91 0 147.5 60.5t56.5 153.5t-56.5 153.5t-147.5 60.5t-148 -60.5t-57 -153.5t57 -153.5t148 -60.5zM402 341q10 -29 27 -33v-3h-78q-5 9 -16 38l-18 56
q-8 21 -15.5 28.5t-23.5 7.5h-13v-88q0 -33 25 -40v-2h-113v2q25 7 25 40v189q0 18 -5.5 25.5t-19.5 11.5v2h116q99 0 99 -66q0 -31 -24 -48.5t-59 -17.5v-3q60 0 75 -46zM276 448q47 0 47 60q0 54 -45 54h-13v-114h11z" />
    <glyph glyph-name="macron" unicode="&#xaf;" horiz-adv-x="600" 
d="M50 608v35h302v-35h-302z" />
    <glyph glyph-name="degree" unicode="&#xb0;" horiz-adv-x="309" 
d="M154 510q-45 0 -78 31t-33 78t33 78t78 31t78 -31t33 -78t-33 -78t-78 -31zM154 557q25 0 43 17t18 45t-18 45.5t-43 17.5q-24 0 -42 -17.5t-18 -45.5q0 -27 18 -44.5t42 -17.5z" />
    <glyph glyph-name="plusminus" unicode="&#xb1;" 
d="M299 321h186v-25h-186v-187h-27v187h-187v25h187v186h27v-186zM85 0v25h400v-25h-400z" />
    <glyph glyph-name="two.sups" unicode="&#xb2;" horiz-adv-x="456" 
d="M49 328v6l95 99q68 65 97 111t29 103q0 44 -22 68.5t-64 24.5q-38 0 -69.5 -23.5t-41.5 -74.5l-7 1q4 67 46.5 116t127.5 49q72 0 111 -38t38 -91q-1 -57 -41.5 -103.5t-147.5 -119.5l-42 -31h162q40 0 57.5 10t28.5 30h5l-46 -137h-316z" />
    <glyph glyph-name="three.sups" unicode="&#xb3;" horiz-adv-x="431" 
d="M215 318q-52 0 -96 20.5t-66 60.5l8 5q33 -45 90 -45q43 0 73 29.5t30 70.5q0 49 -26.5 76.5t-75.5 27.5h-14v12h16q45 0 74.5 29t29.5 75q0 40 -23 64t-64 24q-68 0 -99 -74l-7 3q11 53 54.5 82.5t108.5 29.5q69 0 109 -29.5t40 -79.5q0 -51 -37 -85.5t-98 -41.5v-4
q59 0 98.5 -31t39.5 -83q0 -57 -44.5 -96.5t-120.5 -39.5z" />
    <glyph glyph-name="acute" unicode="&#xb4;" horiz-adv-x="600" 
d="M85 567h-35l59 133h125v-5z" />
    <glyph glyph-name="uni00B5" unicode="&#xb5;" horiz-adv-x="584" 
d="M72 -150v562q0 41 -12.5 56t-46.5 18v6l207 35v-376q0 -43 19 -65.5t53 -22.5q45 2 65 41v309q0 41 -10.5 56.5t-38.5 18.5v6l197 33v-448q0 -36 14 -51t45 -22v-6h-207v89q-16 -45 -53.5 -74.5t-87.5 -29.5q-88 0 -121 64v-37q0 -131 125 -157v-5h-148z" />
    <glyph glyph-name="paragraph" unicode="&#xb6;" horiz-adv-x="521" 
d="M511 700v-6q-38 -6 -53 -20t-15 -49v-755h-32v809h-127v-809h-32v470q-102 0 -168 47.5t-66 132.5t66 132.5t168 47.5h259z" />
    <glyph glyph-name="periodcentered" unicode="&#xb7;" horiz-adv-x="251" 
d="M126 270q-34 0 -58.5 24t-24.5 59q0 33 24.5 57.5t58.5 24.5t58 -24.5t24 -57.5q0 -34 -24 -58.5t-58 -24.5z" />
    <glyph glyph-name="cedilla" unicode="&#xb8;" horiz-adv-x="600" 
d="M218 -128q0 -39 -25 -63t-63 -24q-65 0 -80 66l9 4q16 -30 49 -30q20 0 32.5 13t12.5 35q0 20 -11 32t-29 12q-15 0 -26 -9l-13 7l52 85h18l-38 -59q13 8 35 8q32 0 54.5 -21t22.5 -56z" />
    <glyph glyph-name="one.sups" unicode="&#xb9;" horiz-adv-x="386" 
d="M60 328v5q43 6 61.5 20t18.5 45v290q0 44 -40 44q-16 0 -40 -7l-3 6l193 77h6v-410q0 -31 19.5 -45.5t61.5 -19.5v-5h-277z" />
    <glyph glyph-name="ordmasculine" unicode="&#xba;" horiz-adv-x="482" 
d="M241 318q-85 0 -138.5 53.5t-53.5 137.5q0 85 53.5 138.5t138.5 53.5t138.5 -53.5t53.5 -138.5q0 -84 -53.5 -137.5t-138.5 -53.5zM241 342q36 0 53 39.5t17 127.5q0 89 -17 128.5t-53 39.5t-53 -39.5t-17 -128.5q0 -88 17 -127.5t53 -39.5z" />
    <glyph glyph-name="guillemotright" unicode="&#xbb;" horiz-adv-x="504" 
d="M55 78l-8 4l123 199l-123 199l8 4l218 -201v-4zM240 78l-8 4l123 199l-123 199l8 4l218 -201v-4z" />
    <glyph glyph-name="onequarter" unicode="&#xbc;" horiz-adv-x="820" 
d="M55 302q33 7 48 19.5t15 40.5v237q0 40 -36 40q-12 0 -28 -5l-3 6l170 69h6v-347q0 -49 63 -60v-4h-235v4zM569 682h43l-427 -722h-45zM784 118h-69v-51q0 -49 39 -64v-3h-205v3q31 5 44.5 20t13.5 44v51h-154v21l216 263h46v-258h69v-26zM477 144h130v156z" />
    <glyph glyph-name="onehalf" unicode="&#xbd;" horiz-adv-x="810" 
d="M55 298v4q33 7 48 19.5t15 40.5v237q0 40 -36 40q-12 0 -28 -5l-3 6l170 69h6v-347q0 -49 63 -60v-4h-235zM140 -40l429 722h43l-427 -722h-45zM462 0v5l80 93q49 49 72.5 87t23.5 85q0 76 -67 76q-29 0 -54.5 -19t-35.5 -61h-5q4 58 39 101.5t109 43.5q61 0 93 -33
t31 -78q-1 -52 -36 -92t-124 -96l-26 -21h132q53 0 69 32h5l-40 -123h-266z" />
    <glyph glyph-name="threequarters" unicode="&#xbe;" horiz-adv-x="855" 
d="M324 407q0 -48 -37.5 -83t-100.5 -35q-44 0 -81 18t-57 53l7 5q26 -37 70 -37q34 0 58 25.5t24 59.5q0 40 -20 63t-56 23h-13v11h14q35 0 58 24.5t23 61.5q0 34 -17.5 54t-49.5 20q-54 0 -81 -61l-7 2q10 46 47 72t93 26q58 0 91.5 -25.5t33.5 -68.5t-29.5 -72t-79.5 -36
v-4q47 0 78.5 -25.5t31.5 -70.5zM604 682h43l-427 -722h-45zM819 118h-69v-51q0 -49 39 -64v-3h-205v3q31 5 44.5 20t13.5 44v51h-154v21l216 263h46v-258h69v-26zM512 144h130v156z" />
    <glyph glyph-name="questiondown" unicode="&#xbf;" horiz-adv-x="414" 
d="M257 520q35 0 59 -24t24 -59q0 -33 -24.5 -57.5t-58.5 -24.5t-58 24.5t-24 57.5q0 34 24 58.5t58 24.5zM269 290l-1 -31q0 -34 -9.5 -55.5t-33.5 -49.5q-64 -76 -64 -159q0 -62 36 -99.5t94 -37.5q98 0 127 79l7 -3q-14 -69 -68 -108.5t-142 -39.5q-84 0 -138 48.5
t-54 123.5q0 121 136 196q48 27 67.5 53.5t19.5 66.5v16h23z" />
    <glyph glyph-name="Agrave" unicode="&#xc0;" horiz-adv-x="739" 
d="M371 750h-15l-168 103v7h120zM648 108q17 -48 34.5 -70t50.5 -32v-6h-315v6q41 13 50.5 43.5t-9.5 89.5l-39 115h-235l-45 -131q-32 -92 51 -117v-6h-184v6q35 11 56 37.5t41 82.5l201 574h132zM194 282h217l-108 317z" />
    <glyph glyph-name="Aacute" unicode="&#xc1;" horiz-adv-x="739" 
d="M554 853l-168 -103h-15l63 110h120v-7zM648 108q17 -48 34.5 -70t50.5 -32v-6h-315v6q41 13 50.5 43.5t-9.5 89.5l-39 115h-235l-45 -131q-32 -92 51 -117v-6h-184v6q35 11 56 37.5t41 82.5l201 574h132zM194 282h217l-108 317z" />
    <glyph glyph-name="Acircumflex" unicode="&#xc2;" horiz-adv-x="739" 
d="M371 799l-111 -62h-18l119 123h20l119 -123h-18zM648 108q17 -48 34.5 -70t50.5 -32v-6h-315v6q41 13 50.5 43.5t-9.5 89.5l-39 115h-235l-45 -131q-32 -92 51 -117v-6h-184v6q35 11 56 37.5t41 82.5l201 574h132zM194 282h217l-108 317z" />
    <glyph glyph-name="Atilde" unicode="&#xc3;" horiz-adv-x="739" 
d="M297 796q-54 0 -71 -42h-7q9 103 104 103q31 0 71 -20t67 -20q53 0 71 42h6q-9 -103 -103 -103q-32 0 -71.5 20t-66.5 20zM648 108q17 -48 34.5 -70t50.5 -32v-6h-315v6q41 13 50.5 43.5t-9.5 89.5l-39 115h-235l-45 -131q-32 -92 51 -117v-6h-184v6q35 11 56 37.5
t41 82.5l201 574h132zM194 282h217l-108 317z" />
    <glyph glyph-name="Adieresis" unicode="&#xc4;" horiz-adv-x="739" 
d="M267 759q-24 0 -41 16.5t-17 40.5q0 25 17 41.5t41 16.5q23 0 40 -17t17 -41t-16.5 -40.5t-40.5 -16.5zM475 759q-24 0 -41 16.5t-17 40.5q0 25 17 41.5t41 16.5q23 0 40 -17t17 -41t-16.5 -40.5t-40.5 -16.5zM648 108q17 -48 34.5 -70t50.5 -32v-6h-315v6
q41 13 50.5 43.5t-9.5 89.5l-39 115h-235l-45 -131q-32 -92 51 -117v-6h-184v6q35 11 56 37.5t41 82.5l201 574h132zM194 282h217l-108 317z" />
    <glyph glyph-name="Aring" unicode="&#xc5;" horiz-adv-x="739" 
d="M371 719q-35 0 -57 21t-22 55q0 33 22 54t57 21t57 -21t22 -54q0 -34 -22 -55t-57 -21zM371 851q-25 0 -41 -14.5t-16 -41.5t16 -42t41 -15t41 15t16 42t-16 41.5t-41 14.5zM648 108q17 -48 34.5 -70t50.5 -32v-6h-315v6q41 13 50.5 43.5t-9.5 89.5l-39 115h-235
l-45 -131q-32 -92 51 -117v-6h-184v6q35 11 56 37.5t41 82.5l201 574h132zM194 282h217l-108 317z" />
    <glyph glyph-name="AE" unicode="&#xc6;" horiz-adv-x="957" 
d="M5 0v6q38 9 64 34.5t58 83.5l319 576h431l23 -238h-6q-58 211 -275 214v-315h32q61 0 98 28t56 90h7v-265h-7q-14 58 -53.5 88.5t-100.5 30.5h-32v-309q91 1 148 29t88 78t59 140h6l-26 -271h-508v6q37 10 52.5 30.5t15.5 71.5v147h-216l-78 -144q-18 -34 -18 -52
q0 -34 53 -53v-6h-190zM252 281h202v376z" />
    <glyph glyph-name="Ccedilla" unicode="&#xc7;" horiz-adv-x="649" 
d="M614 226q-49 -237 -257 -246l-25 -39q13 8 35 8q32 0 54.5 -21t22.5 -56q0 -39 -25 -63t-63 -24q-65 0 -80 66l9 4q16 -30 49 -30q20 0 32.5 13t12.5 35q0 20 -11 32t-29 12q-15 0 -26 -9l-13 7l40 65q-140 2 -225 100.5t-85 260.5q0 167 97 273t251 106q126 0 233 -52
l-56 -231l-7 1q-20 221 -201 221q-86 0 -136.5 -60.5t-50.5 -163.5q0 -143 75 -232t195 -89q141 0 176 114z" />
    <glyph glyph-name="Egrave" unicode="&#xc8;" horiz-adv-x="614" 
d="M318 750l-168 103v7h120l63 -110h-15zM571 271h6l-26 -271h-521v6q38 10 53.5 30.5t15.5 71.5v490q0 47 -15.5 67t-53.5 29v6h509l18 -238h-6q-57 213 -226 213h-62v-304h39q119 0 149 124h6v-280h-6q-31 131 -149 131h-39v-321h62q100 0 155 57.5t91 188.5z" />
    <glyph glyph-name="Eacute" unicode="&#xc9;" horiz-adv-x="614" 
d="M348 750h-15l63 110h120v-7zM571 271h6l-26 -271h-521v6q38 10 53.5 30.5t15.5 71.5v490q0 47 -15.5 67t-53.5 29v6h509l18 -238h-6q-57 213 -226 213h-62v-304h39q119 0 149 124h6v-280h-6q-31 131 -149 131h-39v-321h62q100 0 155 57.5t91 188.5z" />
    <glyph glyph-name="Ecircumflex" unicode="&#xca;" horiz-adv-x="614" 
d="M222 737h-18l119 123h20l119 -123h-18l-111 62zM571 271h6l-26 -271h-521v6q38 10 53.5 30.5t15.5 71.5v490q0 47 -15.5 67t-53.5 29v6h509l18 -238h-6q-57 213 -226 213h-62v-304h39q119 0 149 124h6v-280h-6q-31 131 -149 131h-39v-321h62q100 0 155 57.5t91 188.5z
" />
    <glyph glyph-name="Edieresis" unicode="&#xcb;" horiz-adv-x="614" 
d="M229 759q-24 0 -41 16.5t-17 40.5q0 25 17 41.5t41 16.5q23 0 40 -17t17 -41t-16.5 -40.5t-40.5 -16.5zM437 759q-24 0 -41 16.5t-17 40.5q0 25 17 41.5t41 16.5q23 0 40 -17t17 -41t-16.5 -40.5t-40.5 -16.5zM571 271h6l-26 -271h-521v6q38 10 53.5 30.5t15.5 71.5v490
q0 47 -15.5 67t-53.5 29v6h509l18 -238h-6q-57 213 -226 213h-62v-304h39q119 0 149 124h6v-280h-6q-31 131 -149 131h-39v-321h62q100 0 155 57.5t91 188.5z" />
    <glyph glyph-name="Igrave" unicode="&#xcc;" horiz-adv-x="362" 
d="M166 750l-168 103v7h120l63 -110h-15zM332 694q-69 -17 -69 -96v-490q0 -85 69 -102v-6h-302v6q38 10 53.5 30.5t15.5 71.5v490q0 47 -15.5 67t-53.5 29v6h302v-6z" />
    <glyph glyph-name="Iacute" unicode="&#xcd;" horiz-adv-x="362" 
d="M196 750h-15l63 110h120v-7zM332 694q-69 -17 -69 -96v-490q0 -85 69 -102v-6h-302v6q38 10 53.5 30.5t15.5 71.5v490q0 47 -15.5 67t-53.5 29v6h302v-6z" />
    <glyph glyph-name="Icircumflex" unicode="&#xce;" horiz-adv-x="362" 
d="M70 737h-18l119 123h20l119 -123h-18l-111 62zM332 694q-69 -17 -69 -96v-490q0 -85 69 -102v-6h-302v6q38 10 53.5 30.5t15.5 71.5v490q0 47 -15.5 67t-53.5 29v6h302v-6z" />
    <glyph glyph-name="Idieresis" unicode="&#xcf;" horiz-adv-x="362" 
d="M77 759q-24 0 -41 16.5t-17 40.5q0 25 17 41.5t41 16.5q23 0 40 -17t17 -41t-16.5 -40.5t-40.5 -16.5zM285 759q-24 0 -41 16.5t-17 40.5q0 25 17 41.5t41 16.5q23 0 40 -17t17 -41t-16.5 -40.5t-40.5 -16.5zM332 694q-69 -17 -69 -96v-490q0 -85 69 -102v-6h-302v6
q38 10 53.5 30.5t15.5 71.5v490q0 47 -15.5 67t-53.5 29v6h302v-6z" />
    <glyph glyph-name="Eth" unicode="&#xd0;" horiz-adv-x="734" 
d="M343 700q168 0 264 -93t96 -255q0 -169 -100 -260.5t-258 -91.5h-304v6q38 10 53.5 30.5t15.5 71.5v238h-80v20h80v232q0 47 -15.5 67t-53.5 29v6h302zM308 25q118 0 167.5 67.5t49.5 246.5q0 186 -51.5 261t-165.5 75h-34v-309h104v-20h-104v-321h34z" />
    <glyph glyph-name="Ntilde" unicode="&#xd1;" horiz-adv-x="748" 
d="M341 793q-54 0 -71 -42h-7q9 103 104 103q31 0 71 -20t67 -20q53 0 71 42h6q-9 -103 -103 -103q-32 0 -71.5 20t-66.5 20zM529 700h204v-6q-44 -8 -62.5 -33.5t-18.5 -76.5v-594h-5l-496 585v-453q0 -56 20.5 -80.5t70.5 -35.5v-6h-212v6q50 9 69 33.5t19 82.5v492
q-46 52 -88 80v6h233l358 -413v297q0 52 -19 75t-73 35v6z" />
    <glyph glyph-name="Ograve" unicode="&#xd2;" horiz-adv-x="785" 
d="M377 750l-168 103v7h120l63 -110h-15zM392 -20q-161 0 -261.5 103t-100.5 267t100.5 267t261.5 103t262 -103t101 -267t-101 -267t-262 -103zM392 15q90 0 134 82t44 253q0 172 -43.5 253.5t-134.5 81.5q-90 0 -134 -82t-44 -253q0 -335 178 -335z" />
    <glyph glyph-name="Oacute" unicode="&#xd3;" horiz-adv-x="785" 
d="M407 750h-15l63 110h120v-7zM392 -20q-161 0 -261.5 103t-100.5 267t100.5 267t261.5 103t262 -103t101 -267t-101 -267t-262 -103zM392 15q90 0 134 82t44 253q0 172 -43.5 253.5t-134.5 81.5q-90 0 -134 -82t-44 -253q0 -335 178 -335z" />
    <glyph glyph-name="Ocircumflex" unicode="&#xd4;" horiz-adv-x="785" 
d="M281 737h-18l119 123h20l119 -123h-18l-111 62zM392 -20q-161 0 -261.5 103t-100.5 267t100.5 267t261.5 103t262 -103t101 -267t-101 -267t-262 -103zM392 15q90 0 134 82t44 253q0 172 -43.5 253.5t-134.5 81.5q-90 0 -134 -82t-44 -253q0 -335 178 -335z" />
    <glyph glyph-name="Otilde" unicode="&#xd5;" horiz-adv-x="785" 
d="M456 756q-32 0 -71.5 20t-66.5 20q-54 0 -71 -42h-7q9 103 104 103q31 0 71 -20t67 -20q53 0 71 42h6q-9 -103 -103 -103zM392 -20q-161 0 -261.5 103t-100.5 267t100.5 267t261.5 103t262 -103t101 -267t-101 -267t-262 -103zM392 15q90 0 134 82t44 253
q0 172 -43.5 253.5t-134.5 81.5q-90 0 -134 -82t-44 -253q0 -335 178 -335z" />
    <glyph glyph-name="Odieresis" unicode="&#xd6;" horiz-adv-x="785" 
d="M288 759q-24 0 -41 16.5t-17 40.5q0 25 17 41.5t41 16.5t40.5 -17t16.5 -41t-16.5 -40.5t-40.5 -16.5zM496 759q-24 0 -41 16.5t-17 40.5q0 25 17 41.5t41 16.5t40.5 -17t16.5 -41t-16.5 -40.5t-40.5 -16.5zM392 -20q-161 0 -261.5 103t-100.5 267t100.5 267t261.5 103
t262 -103t101 -267t-101 -267t-262 -103zM392 15q90 0 134 82t44 253q0 172 -43.5 253.5t-134.5 81.5q-90 0 -134 -82t-44 -253q0 -335 178 -335z" />
    <glyph glyph-name="multiply" unicode="&#xd7;" 
d="M469 467l-160 -160l160 -159l-20 -20l-159 160l-160 -160l-19 20l159 159l-159 160l19 19l160 -159l159 159z" />
    <glyph glyph-name="Oslash" unicode="&#xd8;" horiz-adv-x="785" 
d="M638 632q117 -103 117 -282q0 -164 -101 -267t-262 -103q-126 0 -219 66l-53 -66h-39l68 85q-119 105 -119 285q0 164 100.5 267t261.5 103q129 0 222 -68l57 71h39zM214 350q0 -108 18 -180l312 393q-42 122 -152 122q-90 0 -134 -82t-44 -253zM392 15q90 0 134 82
t44 253q0 108 -16 176l-312 -392q43 -119 150 -119z" />
    <glyph glyph-name="Ugrave" unicode="&#xd9;" horiz-adv-x="689" 
d="M389 750l-168 103v7h120l63 -110h-15zM682 700v-6q-38 -10 -55 -32.5t-17 -73.5v-339q0 -128 -66 -198.5t-192 -70.5q-134 0 -205.5 73.5t-71.5 214.5v330q0 47 -15 67t-53 29v6h317v-6q-46 -11 -64.5 -33t-18.5 -73v-320q0 -107 43 -162.5t126 -55.5q168 0 168 219v309
q0 55 -22.5 80t-72.5 36v6h199z" />
    <glyph glyph-name="Uacute" unicode="&#xda;" horiz-adv-x="689" 
d="M419 750h-15l63 110h120v-7zM682 700v-6q-38 -10 -55 -32.5t-17 -73.5v-339q0 -128 -66 -198.5t-192 -70.5q-134 0 -205.5 73.5t-71.5 214.5v330q0 47 -15 67t-53 29v6h317v-6q-46 -11 -64.5 -33t-18.5 -73v-320q0 -107 43 -162.5t126 -55.5q168 0 168 219v309
q0 55 -22.5 80t-72.5 36v6h199z" />
    <glyph glyph-name="Ucircumflex" unicode="&#xdb;" horiz-adv-x="689" 
d="M293 737h-18l119 123h20l119 -123h-18l-111 62zM682 700v-6q-38 -10 -55 -32.5t-17 -73.5v-339q0 -128 -66 -198.5t-192 -70.5q-134 0 -205.5 73.5t-71.5 214.5v330q0 47 -15 67t-53 29v6h317v-6q-46 -11 -64.5 -33t-18.5 -73v-320q0 -107 43 -162.5t126 -55.5
q168 0 168 219v309q0 55 -22.5 80t-72.5 36v6h199z" />
    <glyph glyph-name="Udieresis" unicode="&#xdc;" horiz-adv-x="689" 
d="M300 759q-24 0 -41 16.5t-17 40.5q0 25 17 41.5t41 16.5t40.5 -17t16.5 -41t-16.5 -40.5t-40.5 -16.5zM508 759q-24 0 -41 16.5t-17 40.5q0 25 17 41.5t41 16.5t40.5 -17t16.5 -41t-16.5 -40.5t-40.5 -16.5zM682 700v-6q-38 -10 -55 -32.5t-17 -73.5v-339
q0 -128 -66 -198.5t-192 -70.5q-134 0 -205.5 73.5t-71.5 214.5v330q0 47 -15 67t-53 29v6h317v-6q-46 -11 -64.5 -33t-18.5 -73v-320q0 -107 43 -162.5t126 -55.5q168 0 168 219v309q0 55 -22.5 80t-72.5 36v6h199z" />
    <glyph glyph-name="Yacute" unicode="&#xdd;" horiz-adv-x="674" 
d="M417 750h-15l63 110h120v-7zM475 700h192v-6q-24 -3 -54 -31.5t-57 -77.5l-138 -255v-229q1 -46 23 -67t77 -28v-6h-365v6q57 7 78.5 29.5t21.5 73.5v218l-145 272q-48 89 -101 95v6h323v-6q-63 -9 -63 -62q0 -27 18 -60l117 -210l114 205q20 34 20 64q0 54 -61 63v6z
" />
    <glyph glyph-name="Thorn" unicode="&#xde;" horiz-adv-x="626" 
d="M318 158h-55v-50q0 -85 69 -102v-6h-302v6q38 10 53.5 30.5t15.5 71.5v490q0 47 -15.5 67t-53.5 29v6h302v-6q-69 -17 -69 -96v-39h55q142 0 216 -51.5t74 -148.5t-74 -149t-216 -52zM286 535h-23v-352h23q68 0 106 47t38 129t-38 129t-106 47z" />
    <glyph glyph-name="germandbls" unicode="&#xdf;" horiz-adv-x="601" 
d="M363 -13q-67 0 -101 25l6 10q16 -13 48 -13q45 0 72 41.5t27 130.5t-33.5 136.5t-85.5 47.5h-20v18h20q47 0 73 49.5t26 115.5q0 74 -23.5 112.5t-64.5 38.5q-80 0 -80 -108v-591h-207v6q30 7 44.5 22t14.5 44v360q0 84 21.5 144t58.5 89.5t75 42t82 12.5
q116 0 171.5 -49.5t55.5 -120.5t-48.5 -118.5t-126.5 -51.5l-43 -2v-5l41 -1q100 -4 152.5 -56t52.5 -128q0 -83 -55.5 -142t-152.5 -59z" />
    <glyph glyph-name="agrave" unicode="&#xe0;" horiz-adv-x="555" 
d="M278 567h-35l-149 128v5h125zM540 110l9 -1q-13 -60 -49.5 -92t-90.5 -32q-45 0 -72 23.5t-32 64.5l-2 8q-11 -40 -48 -68t-90 -28q-62 0 -98 36.5t-36 88.5q0 65 49.5 109t137.5 62l83 17v21q0 130 -112 130q-102 0 -133 -109l-8 2q12 87 67 137t143 50
q96 0 143.5 -56.5t47.5 -156.5v-201q0 -25 11 -39t28 -14q38 0 52 48zM242 61q42 0 59 37v175l-39 -7q-93 -19 -93 -114q0 -40 19 -65.5t54 -25.5z" />
    <glyph glyph-name="aacute" unicode="&#xe1;" horiz-adv-x="555" 
d="M426 695l-149 -128h-35l59 133h125v-5zM540 110l9 -1q-13 -60 -49.5 -92t-90.5 -32q-45 0 -72 23.5t-32 64.5l-2 8q-11 -40 -48 -68t-90 -28q-62 0 -98 36.5t-36 88.5q0 65 49.5 109t137.5 62l83 17v21q0 130 -112 130q-102 0 -133 -109l-8 2q12 87 67 137t143 50
q96 0 143.5 -56.5t47.5 -156.5v-201q0 -25 11 -39t28 -14q38 0 52 48zM242 61q42 0 59 37v175l-39 -7q-93 -19 -93 -114q0 -40 19 -65.5t54 -25.5z" />
    <glyph glyph-name="acircumflex" unicode="&#xe2;" horiz-adv-x="555" 
d="M260 640l-105 -77h-40l124 137h43l123 -137h-40zM540 110l9 -1q-13 -60 -49.5 -92t-90.5 -32q-45 0 -72 23.5t-32 64.5l-2 8q-11 -40 -48 -68t-90 -28q-62 0 -98 36.5t-36 88.5q0 65 49.5 109t137.5 62l83 17v21q0 130 -112 130q-102 0 -133 -109l-8 2q12 87 67 137
t143 50q96 0 143.5 -56.5t47.5 -156.5v-201q0 -25 11 -39t28 -14q38 0 52 48zM242 61q42 0 59 37v175l-39 -7q-93 -19 -93 -114q0 -40 19 -65.5t54 -25.5z" />
    <glyph glyph-name="atilde" unicode="&#xe3;" horiz-adv-x="555" 
d="M183 628q-52 0 -68 -48h-6q4 58 29.5 87.5t68.5 29.5q30 0 67 -23t63 -23q50 0 68 48h6q-8 -116 -98 -116q-30 0 -67.5 22.5t-62.5 22.5zM540 110l9 -1q-13 -60 -49.5 -92t-90.5 -32q-45 0 -72 23.5t-32 64.5l-2 8q-11 -40 -48 -68t-90 -28q-62 0 -98 36.5t-36 88.5
q0 65 49.5 109t137.5 62l83 17v21q0 130 -112 130q-102 0 -133 -109l-8 2q12 87 67 137t143 50q96 0 143.5 -56.5t47.5 -156.5v-201q0 -25 11 -39t28 -14q38 0 52 48zM242 61q42 0 59 37v175l-39 -7q-93 -19 -93 -114q0 -40 19 -65.5t54 -25.5z" />
    <glyph glyph-name="adieresis" unicode="&#xe4;" horiz-adv-x="555" 
d="M167 584q-28 0 -47 18.5t-19 47.5q0 28 19 46.5t47 18.5t46.5 -18.5t18.5 -46.5q0 -29 -18.5 -47.5t-46.5 -18.5zM352 584q-28 0 -47 18.5t-19 47.5q0 28 19 46.5t47 18.5t47 -18.5t19 -46.5q0 -29 -19 -47.5t-47 -18.5zM540 110l9 -1q-13 -60 -49.5 -92t-90.5 -32
q-45 0 -72 23.5t-32 64.5l-2 8q-11 -40 -48 -68t-90 -28q-62 0 -98 36.5t-36 88.5q0 65 49.5 109t137.5 62l83 17v21q0 130 -112 130q-102 0 -133 -109l-8 2q12 87 67 137t143 50q96 0 143.5 -56.5t47.5 -156.5v-201q0 -25 11 -39t28 -14q38 0 52 48zM242 61q42 0 59 37v175
l-39 -7q-93 -19 -93 -114q0 -40 19 -65.5t54 -25.5z" />
    <glyph glyph-name="aring" unicode="&#xe5;" horiz-adv-x="555" 
d="M260 558q-42 0 -69 26t-27 67t27 67t69 26q41 0 68 -26.5t27 -66.5q0 -41 -27 -67t-68 -26zM260 719q-30 0 -49.5 -18.5t-19.5 -49.5q0 -32 19 -50.5t50 -18.5q30 0 49 18.5t19 50.5q0 31 -19 49.5t-49 18.5zM540 110l9 -1q-13 -60 -49.5 -92t-90.5 -32q-45 0 -72 23.5
t-32 64.5l-2 8q-11 -40 -48 -68t-90 -28q-62 0 -98 36.5t-36 88.5q0 65 49.5 109t137.5 62l83 17v21q0 130 -112 130q-102 0 -133 -109l-8 2q12 87 67 137t143 50q96 0 143.5 -56.5t47.5 -156.5v-201q0 -25 11 -39t28 -14q38 0 52 48zM242 61q42 0 59 37v175l-39 -7
q-93 -19 -93 -114q0 -40 19 -65.5t54 -25.5z" />
    <glyph glyph-name="ae" unicode="&#xe6;" horiz-adv-x="738" 
d="M580 100q86 0 119 89l6 -1q-27 -202 -187 -202q-126 0 -180 120q-14 -57 -54.5 -89t-100.5 -32q-71 0 -111.5 38.5t-40.5 104.5q0 78 59.5 126.5t176.5 55.5l25 1l-1 5q-13 72 -42.5 102.5t-84.5 30.5q-44 0 -74.5 -25t-37.5 -67l-7 2q12 79 65.5 124.5t132.5 45.5
q110 0 144 -95q45 95 140 95q79 0 127 -62.5t53 -172.5h-277q8 -94 46 -144t104 -50zM503 499q-75 0 -75 -156q0 -20 1 -29h141q0 99 -15.5 142t-51.5 43zM263 73q48 0 68 50q-11 30 -19 72l-17 99h-1q-65 -3 -92 -36t-27 -81t24 -76t64 -28z" />
    <glyph glyph-name="ccedilla" unicode="&#xe7;" horiz-adv-x="478" 
d="M453 184q-7 -88 -58.5 -141.5t-131.5 -57.5l-28 -44q13 8 35 8q32 0 54.5 -21t22.5 -56q0 -39 -25 -63t-63 -24q-65 0 -80 66l9 4q16 -30 49 -30q20 0 32.5 13t12.5 35q0 20 -11 32t-29 12q-15 0 -26 -9l-13 7l43 70q-98 3 -158 75t-60 187q0 126 70.5 204t184.5 78
q97 0 168 -38l-51 -178l-6 1q-4 77 -36.5 118t-87.5 41q-65 0 -98.5 -43.5t-33.5 -120.5q0 -80 47 -142t131 -62q100 0 130 81z" />
    <glyph glyph-name="egrave" unicode="&#xe8;" horiz-adv-x="486" 
d="M258 567h-35l-149 128v5h125zM446 183l7 -2q-12 -69 -44.5 -114.5t-72.5 -63.5t-86 -18q-93 0 -157.5 69.5t-64.5 192.5q0 124 63 203t165 79q82 0 139.5 -55.5t56.5 -170.5h-308q7 -95 53 -147t120 -52q93 0 129 79zM234 501q-42 0 -66.5 -43.5t-24.5 -118.5v-11h173
q1 173 -82 173z" />
    <glyph glyph-name="eacute" unicode="&#xe9;" horiz-adv-x="486" 
d="M406 695l-149 -128h-35l59 133h125v-5zM446 183l7 -2q-12 -69 -44.5 -114.5t-72.5 -63.5t-86 -18q-93 0 -157.5 69.5t-64.5 192.5q0 124 63 203t165 79q82 0 139.5 -55.5t56.5 -170.5h-308q7 -95 53 -147t120 -52q93 0 129 79zM234 501q-42 0 -66.5 -43.5t-24.5 -118.5
v-11h173q1 173 -82 173z" />
    <glyph glyph-name="ecircumflex" unicode="&#xea;" horiz-adv-x="486" 
d="M240 640l-105 -77h-40l124 137h43l123 -137h-40zM446 183l7 -2q-12 -69 -44.5 -114.5t-72.5 -63.5t-86 -18q-93 0 -157.5 69.5t-64.5 192.5q0 124 63 203t165 79q82 0 139.5 -55.5t56.5 -170.5h-308q7 -95 53 -147t120 -52q93 0 129 79zM234 501q-42 0 -66.5 -43.5
t-24.5 -118.5v-11h173q1 173 -82 173z" />
    <glyph glyph-name="edieresis" unicode="&#xeb;" horiz-adv-x="486" 
d="M147 584q-28 0 -47 18.5t-19 47.5q0 28 19 46.5t47 18.5t46.5 -18.5t18.5 -46.5q0 -29 -18.5 -47.5t-46.5 -18.5zM332 584q-28 0 -47 18.5t-19 47.5q0 28 19 46.5t47 18.5t47 -18.5t19 -46.5q0 -29 -19 -47.5t-47 -18.5zM446 183l7 -2q-12 -69 -44.5 -114.5t-72.5 -63.5
t-86 -18q-93 0 -157.5 69.5t-64.5 192.5q0 124 63 203t165 79q82 0 139.5 -55.5t56.5 -170.5h-308q7 -95 53 -147t120 -52q93 0 129 79zM234 501q-42 0 -66.5 -43.5t-24.5 -118.5v-11h173q1 173 -82 173z" />
    <glyph glyph-name="igrave" unicode="&#xec;" horiz-adv-x="311" 
d="M135 567l-149 128v5h125l59 -133h-35zM232 72q0 -29 14.5 -44t44.5 -22v-6h-266v6q30 7 44.5 22t14.5 44v318q0 39 -12.5 54t-46.5 18v6l207 58v-454z" />
    <glyph glyph-name="iacute" unicode="&#xed;" horiz-adv-x="311" 
d="M169 567h-35l59 133h125v-5zM232 72q0 -29 14.5 -44t44.5 -22v-6h-266v6q30 7 44.5 22t14.5 44v318q0 39 -12.5 54t-46.5 18v6l207 58v-454z" />
    <glyph glyph-name="icircumflex" unicode="&#xee;" horiz-adv-x="311" 
d="M7 563l124 137h43l123 -137h-40l-105 77l-105 -77h-40zM232 72q0 -29 14.5 -44t44.5 -22v-6h-266v6q30 7 44.5 22t14.5 44v318q0 39 -12.5 54t-46.5 18v6l207 58v-454z" />
    <glyph glyph-name="idieresis" unicode="&#xef;" horiz-adv-x="311" 
d="M59 584q-28 0 -47 18.5t-19 47.5q0 28 19 46.5t47 18.5t46.5 -18.5t18.5 -46.5q0 -29 -18.5 -47.5t-46.5 -18.5zM244 584q-28 0 -47 18.5t-19 47.5q0 28 19 46.5t47 18.5t47 -18.5t19 -46.5q0 -29 -19 -47.5t-47 -18.5zM232 72q0 -29 14.5 -44t44.5 -22v-6h-266v6
q30 7 44.5 22t14.5 44v318q0 39 -12.5 54t-46.5 18v6l207 58v-454z" />
    <glyph glyph-name="eth" unicode="&#xf0;" horiz-adv-x="568" 
d="M360 647q173 -113 173 -354q0 -138 -69 -223t-182 -85q-115 0 -184.5 70t-69.5 203q0 128 60.5 199.5t149.5 71.5q79 0 125 -52q-18 93 -64 147l-179 -65v20l165 60q-49 47 -157 71l1 10q123 -12 211 -61l115 41v-19zM281 9q47 0 73 71.5t26 195.5q0 109 -13 180
q-20 34 -65 34q-49 0 -82.5 -63t-33.5 -190q0 -228 95 -228z" />
    <glyph glyph-name="ntilde" unicode="&#xf1;" horiz-adv-x="604" 
d="M352 583q-30 0 -67.5 22.5t-62.5 22.5q-52 0 -68 -48h-6q4 58 29.5 87.5t68.5 29.5q30 0 67 -23t63 -23q50 0 68 48h6q-8 -116 -98 -116zM525 72q0 -29 14.5 -44t44.5 -22v-6h-252v6q25 6 35 19t10 41v305q0 92 -70 92q-51 0 -75 -49v-348q0 -28 10 -41t35 -19v-6h-252v6
q30 7 44.5 22t14.5 44v319q0 39 -12.5 54.5t-46.5 18.5v6l207 57v-98q14 46 53.5 73t93.5 27q70 0 108 -40.5t38 -111.5v-305z" />
    <glyph glyph-name="ograve" unicode="&#xf2;" horiz-adv-x="576" 
d="M271 567l-149 128v5h125l59 -133h-35zM288 -15q-116 0 -188 76t-72 196t72 196t188 76t187.5 -76t71.5 -196t-71.5 -196t-187.5 -76zM288 17q53 0 77.5 57.5t24.5 182.5t-24.5 182.5t-77.5 57.5q-54 0 -78 -57t-24 -183q0 -125 24 -182.5t78 -57.5z" />
    <glyph glyph-name="oacute" unicode="&#xf3;" horiz-adv-x="576" 
d="M305 567h-35l59 133h125v-5zM288 -15q-116 0 -188 76t-72 196t72 196t188 76t187.5 -76t71.5 -196t-71.5 -196t-187.5 -76zM288 17q53 0 77.5 57.5t24.5 182.5t-24.5 182.5t-77.5 57.5q-54 0 -78 -57t-24 -183q0 -125 24 -182.5t78 -57.5z" />
    <glyph glyph-name="ocircumflex" unicode="&#xf4;" horiz-adv-x="576" 
d="M143 563l124 137h43l123 -137h-40l-105 77l-105 -77h-40zM288 -15q-116 0 -188 76t-72 196t72 196t188 76t187.5 -76t71.5 -196t-71.5 -196t-187.5 -76zM288 17q53 0 77.5 57.5t24.5 182.5t-24.5 182.5t-77.5 57.5q-54 0 -78 -57t-24 -183q0 -125 24 -182.5t78 -57.5z
" />
    <glyph glyph-name="otilde" unicode="&#xf5;" horiz-adv-x="576" 
d="M341 583q-30 0 -67.5 22.5t-62.5 22.5q-52 0 -68 -48h-6q4 58 29.5 87.5t68.5 29.5q30 0 67 -23t63 -23q50 0 68 48h6q-8 -116 -98 -116zM288 -15q-116 0 -188 76t-72 196t72 196t188 76t187.5 -76t71.5 -196t-71.5 -196t-187.5 -76zM288 17q53 0 77.5 57.5t24.5 182.5
t-24.5 182.5t-77.5 57.5q-54 0 -78 -57t-24 -183q0 -125 24 -182.5t78 -57.5z" />
    <glyph glyph-name="odieresis" unicode="&#xf6;" horiz-adv-x="576" 
d="M195 584q-28 0 -47 18.5t-19 47.5q0 28 19 46.5t47 18.5t46.5 -18.5t18.5 -46.5q0 -29 -18.5 -47.5t-46.5 -18.5zM380 584q-28 0 -47 18.5t-19 47.5q0 28 19 46.5t47 18.5t47 -18.5t19 -46.5q0 -29 -19 -47.5t-47 -18.5zM288 -15q-116 0 -188 76t-72 196t72 196t188 76
t187.5 -76t71.5 -196t-71.5 -196t-187.5 -76zM288 17q53 0 77.5 57.5t24.5 182.5t-24.5 182.5t-77.5 57.5q-54 0 -78 -57t-24 -183q0 -125 24 -182.5t78 -57.5z" />
    <glyph glyph-name="divide" unicode="&#xf7;" 
d="M291 403q-26 0 -44 17.5t-18 43.5q0 25 18.5 43t43.5 18t43 -18t18 -43t-18 -43t-43 -18zM91 296v25h398v-25h-398zM291 82q-25 0 -43.5 18t-18.5 43q0 26 18 44t44 18q25 0 43 -18.5t18 -43.5t-18 -43t-43 -18z" />
    <glyph glyph-name="oslash" unicode="&#xf8;" horiz-adv-x="576" 
d="M453 474q94 -76 94 -217q0 -120 -71.5 -196t-187.5 -76q-81 0 -140 38l-29 -43h-30l38 57q-99 77 -99 220q0 120 72 196t188 76q82 0 144 -40l32 48h31zM186 257q0 -68 8 -121l182 271q-22 90 -88 90q-54 0 -78 -57t-24 -183zM288 17q53 0 77.5 57.5t24.5 182.5
q0 71 -7 114l-182 -270q24 -84 87 -84z" />
    <glyph glyph-name="ugrave" unicode="&#xf9;" horiz-adv-x="584" 
d="M271 567l-149 128v5h125l59 -133h-35zM505 79q0 -36 14 -51t45 -22v-6h-207v89q-16 -45 -53.5 -74.5t-87.5 -29.5q-68 0 -106 39.5t-38 122.5v265q0 41 -12.5 56t-46.5 18v6l207 35v-376q0 -43 19 -65.5t53 -22.5q45 2 65 41v309q0 41 -10.5 56.5t-38.5 18.5v6l197 33
v-448z" />
    <glyph glyph-name="uacute" unicode="&#xfa;" horiz-adv-x="584" 
d="M305 567h-35l59 133h125v-5zM505 79q0 -36 14 -51t45 -22v-6h-207v89q-16 -45 -53.5 -74.5t-87.5 -29.5q-68 0 -106 39.5t-38 122.5v265q0 41 -12.5 56t-46.5 18v6l207 35v-376q0 -43 19 -65.5t53 -22.5q45 2 65 41v309q0 41 -10.5 56.5t-38.5 18.5v6l197 33v-448z" />
    <glyph glyph-name="ucircumflex" unicode="&#xfb;" horiz-adv-x="584" 
d="M143 563l124 137h43l123 -137h-40l-105 77l-105 -77h-40zM505 79q0 -36 14 -51t45 -22v-6h-207v89q-16 -45 -53.5 -74.5t-87.5 -29.5q-68 0 -106 39.5t-38 122.5v265q0 41 -12.5 56t-46.5 18v6l207 35v-376q0 -43 19 -65.5t53 -22.5q45 2 65 41v309q0 41 -10.5 56.5
t-38.5 18.5v6l197 33v-448z" />
    <glyph glyph-name="udieresis" unicode="&#xfc;" horiz-adv-x="584" 
d="M195 584q-28 0 -47 18.5t-19 47.5q0 28 19 46.5t47 18.5t46.5 -18.5t18.5 -46.5q0 -29 -18.5 -47.5t-46.5 -18.5zM380 584q-28 0 -47 18.5t-19 47.5q0 28 19 46.5t47 18.5t47 -18.5t19 -46.5q0 -29 -19 -47.5t-47 -18.5zM505 79q0 -36 14 -51t45 -22v-6h-207v89
q-16 -45 -53.5 -74.5t-87.5 -29.5q-68 0 -106 39.5t-38 122.5v265q0 41 -12.5 56t-46.5 18v6l207 35v-376q0 -43 19 -65.5t53 -22.5q45 2 65 41v309q0 41 -10.5 56.5t-38.5 18.5v6l197 33v-448z" />
    <glyph glyph-name="yacute" unicode="&#xfd;" horiz-adv-x="543" 
d="M351 567h-35l59 133h125v-5zM84 -215q-56 0 -101 27l38 127h5q19 -17 50 -27t58 -10q94 0 129 63l6 12l-189 446q-30 74 -74 85v6h276v-6q-52 -11 -52 -45q0 -23 10 -49l93 -247l95 237q11 26 11 49q0 46 -53 55v6h152v-6q-26 -8 -41.5 -28t-31.5 -64l-178 -454
q-38 -101 -87 -139t-116 -38z" />
    <glyph glyph-name="thorn" unicode="&#xfe;" horiz-adv-x="582" 
d="M20 -200v6q30 7 44.5 22t14.5 44v722q0 35 -13 50t-46 19v6l207 61v-290q19 42 57 65.5t86 23.5q81 0 133 -67.5t52 -178.5q0 -132 -68.5 -215t-173.5 -83q-48 0 -86 26v-139q0 -32 18 -46t61 -20v-6h-286zM289 11q47 0 76.5 61t29.5 163q0 104 -29.5 164.5t-80.5 60.5
q-40 0 -58 -32v-386q22 -31 62 -31z" />
    <glyph glyph-name="ydieresis" unicode="&#xff;" horiz-adv-x="543" 
d="M241 584q-28 0 -47 18.5t-19 47.5q0 28 19 46.5t47 18.5t46.5 -18.5t18.5 -46.5q0 -29 -18.5 -47.5t-46.5 -18.5zM426 584q-28 0 -47 18.5t-19 47.5q0 28 19 46.5t47 18.5t47 -18.5t19 -46.5q0 -29 -19 -47.5t-47 -18.5zM84 -215q-56 0 -101 27l38 127h5q19 -17 50 -27
t58 -10q94 0 129 63l6 12l-189 446q-30 74 -74 85v6h276v-6q-52 -11 -52 -45q0 -23 10 -49l93 -247l95 237q11 26 11 49q0 46 -53 55v6h152v-6q-26 -8 -41.5 -28t-31.5 -64l-178 -454q-38 -101 -87 -139t-116 -38z" />
    <glyph glyph-name="Amacron" unicode="&#x100;" horiz-adv-x="739" 
d="M522 817v-35h-302v35h302zM648 108q17 -48 34.5 -70t50.5 -32v-6h-315v6q41 13 50.5 43.5t-9.5 89.5l-39 115h-235l-45 -131q-32 -92 51 -117v-6h-184v6q35 11 56 37.5t41 82.5l201 574h132zM194 282h217l-108 317z" />
    <glyph glyph-name="amacron" unicode="&#x101;" horiz-adv-x="555" 
d="M411 643v-35h-302v35h302zM540 110l9 -1q-13 -60 -49.5 -92t-90.5 -32q-45 0 -72 23.5t-32 64.5l-2 8q-11 -40 -48 -68t-90 -28q-62 0 -98 36.5t-36 88.5q0 65 49.5 109t137.5 62l83 17v21q0 130 -112 130q-102 0 -133 -109l-8 2q12 87 67 137t143 50q96 0 143.5 -56.5
t47.5 -156.5v-201q0 -25 11 -39t28 -14q38 0 52 48zM242 61q42 0 59 37v175l-39 -7q-93 -19 -93 -114q0 -40 19 -65.5t54 -25.5z" />
    <glyph glyph-name="Abreve" unicode="&#x102;" horiz-adv-x="739" 
d="M372 752q-59 0 -97.5 31t-38.5 84h17q3 -29 35.5 -44.5t83.5 -15.5q110 0 118 60h17q0 -53 -38.5 -84t-96.5 -31zM648 108q17 -48 34.5 -70t50.5 -32v-6h-315v6q41 13 50.5 43.5t-9.5 89.5l-39 115h-235l-45 -131q-32 -92 51 -117v-6h-184v6q35 11 56 37.5t41 82.5
l201 574h132zM194 282h217l-108 317z" />
    <glyph glyph-name="abreve" unicode="&#x103;" horiz-adv-x="555" 
d="M260 562q-53 0 -87.5 36.5t-34.5 101.5h24q2 -36 29 -54.5t69 -18.5q43 0 69.5 18.5t29.5 54.5h23q0 -65 -34.5 -101.5t-87.5 -36.5zM540 110l9 -1q-13 -60 -49.5 -92t-90.5 -32q-45 0 -72 23.5t-32 64.5l-2 8q-11 -40 -48 -68t-90 -28q-62 0 -98 36.5t-36 88.5
q0 65 49.5 109t137.5 62l83 17v21q0 130 -112 130q-102 0 -133 -109l-8 2q12 87 67 137t143 50q96 0 143.5 -56.5t47.5 -156.5v-201q0 -25 11 -39t28 -14q38 0 52 48zM242 61q42 0 59 37v175l-39 -7q-93 -19 -93 -114q0 -40 19 -65.5t54 -25.5z" />
    <glyph glyph-name="Aogonek" unicode="&#x104;" horiz-adv-x="739" 
d="M418 0q-74 -25 -74 -84q0 -56 59 -56q46 0 65 45l5 -2q-17 -113 -108 -113q-45 0 -71.5 23t-26.5 63q0 46 38.5 81.5t112.5 47.5v1q41 13 50.5 43.5t-9.5 89.5l-39 115h-235l-45 -131q-32 -92 51 -117v-6h-184v6q35 11 56 37.5t41 82.5l201 574h132l211 -592
q17 -48 34.5 -70t50.5 -32v-6h-315zM194 282h217l-108 317z" />
    <glyph glyph-name="aogonek" unicode="&#x105;" horiz-adv-x="555" 
d="M450 -140q46 0 65 45l5 -2q-17 -113 -108 -113q-45 0 -71.5 23t-26.5 63q0 72 83 109q-40 4 -63.5 27t-28.5 61l-2 8q-11 -40 -48 -68t-90 -28q-62 0 -98 36.5t-36 88.5q0 65 49.5 109t137.5 62l83 17v21q0 130 -112 130q-102 0 -133 -109l-8 2q12 87 67 137t143 50
q96 0 143.5 -56.5t47.5 -156.5v-201q0 -25 11 -39t28 -14q38 0 52 48l9 -1q-11 -52 -40.5 -83t-72.5 -39q-45 -25 -45 -71q0 -56 59 -56zM242 61q42 0 59 37v175l-39 -7q-93 -19 -93 -114q0 -40 19 -65.5t54 -25.5z" />
    <glyph glyph-name="Cacute" unicode="&#x106;" horiz-adv-x="649" 
d="M392 750h-15l63 110h120v-7zM343 -20q-141 0 -227 99t-86 262q0 167 97 273t251 106q126 0 233 -52l-56 -231l-7 1q-20 221 -201 221q-86 0 -136.5 -60.5t-50.5 -163.5q0 -143 75 -232t195 -89q141 0 176 114l8 -2q-51 -246 -271 -246z" />
    <glyph glyph-name="cacute" unicode="&#x107;" horiz-adv-x="478" 
d="M281 567h-35l59 133h125v-5zM254 -15q-101 0 -163.5 72.5t-62.5 189.5q0 126 70.5 204t184.5 78q97 0 168 -38l-51 -178l-6 1q-4 77 -36.5 118t-87.5 41q-65 0 -98.5 -43.5t-33.5 -120.5q0 -80 47 -142t131 -62q100 0 130 81l7 -2q-7 -90 -62 -144.5t-137 -54.5z" />
    <glyph glyph-name="Ccircumflex" unicode="&#x108;" horiz-adv-x="649" 
d="M266 737h-18l119 123h20l119 -123h-18l-111 62zM343 -20q-141 0 -227 99t-86 262q0 167 97 273t251 106q126 0 233 -52l-56 -231l-7 1q-20 221 -201 221q-86 0 -136.5 -60.5t-50.5 -163.5q0 -143 75 -232t195 -89q141 0 176 114l8 -2q-51 -246 -271 -246z" />
    <glyph glyph-name="ccircumflex" unicode="&#x109;" horiz-adv-x="478" 
d="M119 563l124 137h43l123 -137h-40l-105 77l-105 -77h-40zM254 -15q-101 0 -163.5 72.5t-62.5 189.5q0 126 70.5 204t184.5 78q97 0 168 -38l-51 -178l-6 1q-4 77 -36.5 118t-87.5 41q-65 0 -98.5 -43.5t-33.5 -120.5q0 -80 47 -142t131 -62q100 0 130 81l7 -2
q-7 -90 -62 -144.5t-137 -54.5z" />
    <glyph glyph-name="Cdotaccent" unicode="&#x10a;" horiz-adv-x="649" 
d="M377 744q-26 0 -43.5 17.5t-17.5 44.5t17.5 44t43.5 17t43.5 -17t17.5 -44t-17.5 -44.5t-43.5 -17.5zM343 -20q-141 0 -227 99t-86 262q0 167 97 273t251 106q126 0 233 -52l-56 -231l-7 1q-20 221 -201 221q-86 0 -136.5 -60.5t-50.5 -163.5q0 -143 75 -232t195 -89
q141 0 176 114l8 -2q-51 -246 -271 -246z" />
    <glyph glyph-name="cdotaccent" unicode="&#x10b;" horiz-adv-x="478" 
d="M264 577q-31 0 -52 21t-21 52q0 30 21 51t52 21t52 -21t21 -51q0 -31 -21 -52t-52 -21zM254 -15q-101 0 -163.5 72.5t-62.5 189.5q0 126 70.5 204t184.5 78q97 0 168 -38l-51 -178l-6 1q-4 77 -36.5 118t-87.5 41q-65 0 -98.5 -43.5t-33.5 -120.5q0 -80 47 -142t131 -62
q100 0 130 81l7 -2q-7 -90 -62 -144.5t-137 -54.5z" />
    <glyph glyph-name="Ccaron" unicode="&#x10c;" horiz-adv-x="649" 
d="M266 860l111 -56l111 56h18l-119 -117h-20l-119 117h18zM343 -20q-141 0 -227 99t-86 262q0 167 97 273t251 106q126 0 233 -52l-56 -231l-7 1q-20 221 -201 221q-86 0 -136.5 -60.5t-50.5 -163.5q0 -143 75 -232t195 -89q141 0 176 114l8 -2q-51 -246 -271 -246z" />
    <glyph glyph-name="ccaron" unicode="&#x10d;" horiz-adv-x="478" 
d="M243 566l-124 134h40l105 -74l105 74h40l-123 -134h-43zM254 -15q-101 0 -163.5 72.5t-62.5 189.5q0 126 70.5 204t184.5 78q97 0 168 -38l-51 -178l-6 1q-4 77 -36.5 118t-87.5 41q-65 0 -98.5 -43.5t-33.5 -120.5q0 -80 47 -142t131 -62q100 0 130 81l7 -2
q-7 -90 -62 -144.5t-137 -54.5z" />
    <glyph glyph-name="Dcaron" unicode="&#x10e;" horiz-adv-x="724" 
d="M249 860l111 -56l111 56h18l-119 -117h-20l-119 117h18zM332 700q168 0 264 -93t96 -255q0 -169 -100 -260.5t-258 -91.5h-304v6q38 10 53.5 30.5t15.5 71.5v490q0 47 -15.5 67t-53.5 29v6h302zM297 25q118 0 167.5 67.5t49.5 246.5q0 186 -51.5 261t-165.5 75h-34v-650
h34z" />
    <glyph glyph-name="dcaron" unicode="&#x10f;" horiz-adv-x="667" 
d="M508 79q0 -36 14 -51t45 -22v-6h-207v87q-16 -44 -52.5 -73t-90.5 -29q-83 0 -134 69.5t-51 183.5q0 130 69.5 210.5t173.5 80.5q51 0 85 -23v92q0 33 -19 47.5t-64 10.5v6l231 68v-651zM559 536l-4 11q27 7 41.5 17.5t17 17t2.5 15.5q0 24 -34 27q-19 2 -32 13.5
t-13 31.5q0 22 14 36.5t37 14.5q27 0 46 -21.5t19 -60.5q0 -78 -94 -102zM298 64q46 0 62 39v361q-16 38 -60 38q-50 0 -79 -61t-29 -162q0 -99 30 -157t76 -58z" />
    <glyph glyph-name="Dcroat" unicode="&#x110;" horiz-adv-x="724" 
d="M332 700q168 0 264 -93t96 -255q0 -169 -100 -260.5t-258 -91.5h-304v6q38 10 53.5 30.5t15.5 71.5v243h-68v23h68v224q0 47 -15.5 67t-53.5 29v6h302zM297 25q118 0 167.5 67.5t49.5 246.5q0 186 -51.5 261t-165.5 75h-34v-301h121v-23h-121v-326h34z" />
    <glyph glyph-name="dcroat" unicode="&#x111;" horiz-adv-x="587" 
d="M567 582h-59v-503q0 -36 14 -51t45 -22v-6h-207v87q-16 -44 -52.5 -73t-90.5 -29q-83 0 -134 69.5t-51 183.5q0 130 69.5 210.5t173.5 80.5q51 0 85 -23v76h-190v16h190q0 33 -19 47.5t-64 10.5v6l231 68v-132h59v-16zM360 103v361q-16 38 -60 38q-50 0 -79 -61t-29 -162
q0 -99 30 -157t76 -58t62 39z" />
    <glyph glyph-name="Emacron" unicode="&#x112;" horiz-adv-x="614" 
d="M182 782v35h302v-35h-302zM571 271h6l-26 -271h-521v6q38 10 53.5 30.5t15.5 71.5v490q0 47 -15.5 67t-53.5 29v6h509l18 -238h-6q-57 213 -226 213h-62v-304h39q119 0 149 124h6v-280h-6q-31 131 -149 131h-39v-321h62q100 0 155 57.5t91 188.5z" />
    <glyph glyph-name="emacron" unicode="&#x113;" horiz-adv-x="486" 
d="M391 643v-35h-302v35h302zM446 183l7 -2q-12 -69 -44.5 -114.5t-72.5 -63.5t-86 -18q-93 0 -157.5 69.5t-64.5 192.5q0 124 63 203t165 79q82 0 139.5 -55.5t56.5 -170.5h-308q7 -95 53 -147t120 -52q93 0 129 79zM234 501q-42 0 -66.5 -43.5t-24.5 -118.5v-11h173
q1 173 -82 173z" />
    <glyph glyph-name="Ebreve" unicode="&#x114;" horiz-adv-x="614" 
d="M334 752q-59 0 -97.5 31t-38.5 84h17q3 -29 35.5 -44.5t83.5 -15.5q110 0 118 60h17q0 -53 -38.5 -84t-96.5 -31zM571 271h6l-26 -271h-521v6q38 10 53.5 30.5t15.5 71.5v490q0 47 -15.5 67t-53.5 29v6h509l18 -238h-6q-57 213 -226 213h-62v-304h39q119 0 149 124h6
v-280h-6q-31 131 -149 131h-39v-321h62q100 0 155 57.5t91 188.5z" />
    <glyph glyph-name="ebreve" unicode="&#x115;" horiz-adv-x="486" 
d="M240 562q-53 0 -87.5 36.5t-34.5 101.5h24q2 -36 29 -54.5t69 -18.5q43 0 69.5 18.5t29.5 54.5h23q0 -65 -34.5 -101.5t-87.5 -36.5zM446 183l7 -2q-12 -69 -44.5 -114.5t-72.5 -63.5t-86 -18q-93 0 -157.5 69.5t-64.5 192.5q0 124 63 203t165 79q82 0 139.5 -55.5
t56.5 -170.5h-308q7 -95 53 -147t120 -52q93 0 129 79zM234 501q-42 0 -66.5 -43.5t-24.5 -118.5v-11h173q1 173 -82 173z" />
    <glyph glyph-name="Edotaccent" unicode="&#x116;" horiz-adv-x="614" 
d="M333 744q-26 0 -43.5 17.5t-17.5 44.5t17.5 44t43.5 17t43.5 -17t17.5 -44t-17.5 -44.5t-43.5 -17.5zM571 271h6l-26 -271h-521v6q38 10 53.5 30.5t15.5 71.5v490q0 47 -15.5 67t-53.5 29v6h509l18 -238h-6q-57 213 -226 213h-62v-304h39q119 0 149 124h6v-280h-6
q-31 131 -149 131h-39v-321h62q100 0 155 57.5t91 188.5z" />
    <glyph glyph-name="edotaccent" unicode="&#x117;" horiz-adv-x="486" 
d="M240 577q-31 0 -52 21t-21 52q0 30 21 51t52 21t52 -21t21 -51q0 -31 -21 -52t-52 -21zM446 183l7 -2q-12 -69 -44.5 -114.5t-72.5 -63.5t-86 -18q-93 0 -157.5 69.5t-64.5 192.5q0 124 63 203t165 79q82 0 139.5 -55.5t56.5 -170.5h-308q7 -95 53 -147t120 -52
q93 0 129 79zM234 501q-42 0 -66.5 -43.5t-24.5 -118.5v-11h173q1 173 -82 173z" />
    <glyph glyph-name="Eogonek" unicode="&#x118;" horiz-adv-x="614" 
d="M453 0q-74 -25 -74 -84q0 -56 59 -56q46 0 65 45l5 -2q-17 -113 -108 -113q-45 0 -71.5 23t-26.5 63q0 42 32 75.5t94 48.5h-398v6q38 10 53.5 30.5t15.5 71.5v490q0 47 -15.5 67t-53.5 29v6h509l18 -238h-6q-57 213 -226 213h-62v-304h39q119 0 149 124h6v-280h-6
q-31 131 -149 131h-39v-321h62q100 0 155 57.5t91 188.5h6l-26 -271h-98z" />
    <glyph glyph-name="eogonek" unicode="&#x119;" horiz-adv-x="486" 
d="M313 -5q-60 -27 -60 -79q0 -56 59 -56q46 0 65 45l5 -2q-17 -113 -108 -113q-45 0 -71.5 23t-26.5 63q0 72 82 109h-8q-93 0 -157.5 69.5t-64.5 192.5q0 124 63 203t165 79q82 0 139.5 -55.5t56.5 -170.5h-308q7 -95 53 -147t120 -52q93 0 129 79l7 -2
q-26 -149 -140 -186zM234 501q-42 0 -66.5 -43.5t-24.5 -118.5v-11h173q1 173 -82 173z" />
    <glyph glyph-name="Ecaron" unicode="&#x11a;" horiz-adv-x="614" 
d="M222 860l111 -56l111 56h18l-119 -117h-20l-119 117h18zM571 271h6l-26 -271h-521v6q38 10 53.5 30.5t15.5 71.5v490q0 47 -15.5 67t-53.5 29v6h509l18 -238h-6q-57 213 -226 213h-62v-304h39q119 0 149 124h6v-280h-6q-31 131 -149 131h-39v-321h62q100 0 155 57.5
t91 188.5z" />
    <glyph glyph-name="ecaron" unicode="&#x11b;" horiz-adv-x="486" 
d="M262 566h-43l-124 134h40l105 -74l105 74h40zM446 183l7 -2q-12 -69 -44.5 -114.5t-72.5 -63.5t-86 -18q-93 0 -157.5 69.5t-64.5 192.5q0 124 63 203t165 79q82 0 139.5 -55.5t56.5 -170.5h-308q7 -95 53 -147t120 -52q93 0 129 79zM234 501q-42 0 -66.5 -43.5
t-24.5 -118.5v-11h173q1 173 -82 173z" />
    <glyph glyph-name="Gcircumflex" unicode="&#x11c;" horiz-adv-x="729" 
d="M303 737h-18l119 123h20l119 -123h-18l-111 62zM714 331v-6q-69 -18 -69 -96v-176q-49 -34 -118 -53.5t-140 -19.5q-163 0 -260 99t-97 264q0 172 107.5 274.5t288.5 102.5q120 0 224 -49l-51 -209h-6q-13 219 -181 219q-95 0 -146.5 -77.5t-51.5 -222.5
q0 -162 58.5 -268.5t147.5 -106.5q49 0 68 24v184q0 54 -21 77.5t-80 33.5v6h327z" />
    <glyph glyph-name="gcircumflex" unicode="&#x11d;" horiz-adv-x="525" 
d="M258 640l-105 -77h-40l124 137h43l123 -137h-40zM372 112q141 -10 141 -128q0 -80 -66 -139.5t-203 -59.5q-115 0 -172 31.5t-57 87.5q0 32 22.5 58.5t63.5 38.5q-58 28 -58 99q0 41 24.5 74t63.5 43q-84 48 -84 142q0 76 58 123t154 47q54 0 96 -15h151v-20h-109
q75 -47 75 -135q0 -77 -58.5 -124t-154.5 -47q-63 0 -110 21q-38 -11 -38 -40q0 -39 62 -42zM260 511q-70 0 -70 -157q0 -147 70 -147q69 0 69 147q0 155 -69 157zM286 -178q76 0 119 26t43 66q0 26 -18.5 38t-65.5 16l-210 19q-20 2 -35 7q-18 -21 -18 -50q0 -55 50 -88.5
t135 -33.5z" />
    <glyph glyph-name="Gbreve" unicode="&#x11e;" horiz-adv-x="729" 
d="M415 752q-59 0 -97.5 31t-38.5 84h17q3 -29 35.5 -44.5t83.5 -15.5t82.5 15.5t35.5 44.5h17q0 -53 -38.5 -84t-96.5 -31zM714 331v-6q-69 -18 -69 -96v-176q-49 -34 -118 -53.5t-140 -19.5q-163 0 -260 99t-97 264q0 172 107.5 274.5t288.5 102.5q120 0 224 -49l-51 -209
h-6q-13 219 -181 219q-95 0 -146.5 -77.5t-51.5 -222.5q0 -162 58.5 -268.5t147.5 -106.5q49 0 68 24v184q0 54 -21 77.5t-80 33.5v6h327z" />
    <glyph glyph-name="gbreve" unicode="&#x11f;" horiz-adv-x="525" 
d="M258 562q-53 0 -87.5 36.5t-34.5 101.5h24q2 -36 29 -54.5t69 -18.5q43 0 69.5 18.5t29.5 54.5h23q0 -65 -34.5 -101.5t-87.5 -36.5zM372 112q141 -10 141 -128q0 -80 -66 -139.5t-203 -59.5q-115 0 -172 31.5t-57 87.5q0 32 22.5 58.5t63.5 38.5q-58 28 -58 99
q0 41 24.5 74t63.5 43q-84 48 -84 142q0 76 58 123t154 47q54 0 96 -15h151v-20h-109q75 -47 75 -135q0 -77 -58.5 -124t-154.5 -47q-63 0 -110 21q-38 -11 -38 -40q0 -39 62 -42zM260 511q-70 0 -70 -157q0 -147 70 -147q69 0 69 147q0 155 -69 157zM286 -178q76 0 119 26
t43 66q0 26 -18.5 38t-65.5 16l-210 19q-20 2 -35 7q-18 -21 -18 -50q0 -55 50 -88.5t135 -33.5z" />
    <glyph glyph-name="Gdotaccent" unicode="&#x120;" horiz-adv-x="729" 
d="M414 744q-26 0 -43.5 17.5t-17.5 44.5t17.5 44t43.5 17t43.5 -17t17.5 -44t-17.5 -44.5t-43.5 -17.5zM714 331v-6q-69 -18 -69 -96v-176q-49 -34 -118 -53.5t-140 -19.5q-163 0 -260 99t-97 264q0 172 107.5 274.5t288.5 102.5q120 0 224 -49l-51 -209h-6
q-13 219 -181 219q-95 0 -146.5 -77.5t-51.5 -222.5q0 -162 58.5 -268.5t147.5 -106.5q49 0 68 24v184q0 54 -21 77.5t-80 33.5v6h327z" />
    <glyph glyph-name="gdotaccent" unicode="&#x121;" horiz-adv-x="525" 
d="M258 577q-31 0 -52 21t-21 52q0 30 21 51t52 21t52 -21t21 -51q0 -31 -21 -52t-52 -21zM372 112q141 -10 141 -128q0 -80 -66 -139.5t-203 -59.5q-115 0 -172 31.5t-57 87.5q0 32 22.5 58.5t63.5 38.5q-58 28 -58 99q0 41 24.5 74t63.5 43q-84 48 -84 142q0 76 58 123
t154 47q54 0 96 -15h151v-20h-109q75 -47 75 -135q0 -77 -58.5 -124t-154.5 -47q-63 0 -110 21q-38 -11 -38 -40q0 -39 62 -42zM260 511q-70 0 -70 -157q0 -147 70 -147q69 0 69 147q0 155 -69 157zM286 -178q76 0 119 26t43 66q0 26 -18.5 38t-65.5 16l-210 19q-20 2 -35 7
q-18 -21 -18 -50q0 -55 50 -88.5t135 -33.5z" />
    <glyph glyph-name="Gcommaaccent" unicode="&#x122;" horiz-adv-x="729" 
d="M714 331v-6q-69 -18 -69 -96v-176q-49 -34 -118 -53.5t-140 -19.5q-163 0 -260 99t-97 264q0 172 107.5 274.5t288.5 102.5q120 0 224 -49l-51 -209h-6q-13 219 -181 219q-95 0 -146.5 -77.5t-51.5 -222.5q0 -162 58.5 -268.5t147.5 -106.5q49 0 68 24v184q0 54 -21 77.5
t-80 33.5v6h327zM394 -213l-5 15q54 14 54 43q0 13 -7.5 19t-27.5 11q-38 9 -38 43q0 20 12.5 32t34.5 12q26 0 46 -23t20 -53q0 -74 -89 -99z" />
    <glyph glyph-name="gcommaaccent" unicode="&#x123;" horiz-adv-x="525" 
d="M260 572q-28 0 -47.5 24t-19.5 58q0 82 93 112l6 -18q-60 -17 -60 -47q0 -24 36 -32q44 -10 44 -49q0 -22 -14 -35t-38 -13zM372 112q141 -10 141 -128q0 -80 -66 -139.5t-203 -59.5q-115 0 -172 31.5t-57 87.5q0 32 22.5 58.5t63.5 38.5q-58 28 -58 99q0 41 24.5 74
t63.5 43q-84 48 -84 142q0 76 58 123t154 47q54 0 96 -15h151v-20h-109q75 -47 75 -135q0 -77 -58.5 -124t-154.5 -47q-63 0 -110 21q-38 -11 -38 -40q0 -39 62 -42zM260 511q-70 0 -70 -157q0 -147 70 -147q69 0 69 147q0 155 -69 157zM286 -178q76 0 119 26t43 66
q0 26 -18.5 38t-65.5 16l-210 19q-20 2 -35 7q-18 -21 -18 -50q0 -55 50 -88.5t135 -33.5z" />
    <glyph glyph-name="Hcircumflex" unicode="&#x124;" horiz-adv-x="776" 
d="M277 737h-18l119 123h20l119 -123h-18l-111 62zM746 694q-37 -9 -53 -31t-16 -68v-490q0 -46 16 -68t53 -31v-6h-302v6q37 9 53 31t16 68v237h-250v-237q0 -46 16 -68t53 -31v-6h-302v6q37 9 53 31t16 68v490q0 46 -16 68t-53 31v6h302v-6q-37 -9 -53 -31t-16 -68v-225
h250v225q0 46 -16 68t-53 31v6h302v-6z" />
    <glyph glyph-name="hcircumflex" unicode="&#x125;" horiz-adv-x="599" 
d="M42 737h-18l119 123h20l119 -123h-18l-111 62zM20 0v6q30 7 44.5 22t14.5 44v522q0 35 -13 50t-46 19v6l207 61v-300q14 45 53.5 72t93.5 27q70 0 108 -40.5t38 -110.5v-306q0 -29 14.5 -44t44.5 -22v-6h-252v6q25 6 35 19t10 41v305q0 91 -71 91q-50 0 -74 -49v-347
q0 -28 10 -41t35 -19v-6h-252z" />
    <glyph glyph-name="Hbar" unicode="&#x126;" horiz-adv-x="776" 
d="M746 694q-37 -9 -53 -31t-16 -68v-60h67v-20h-67v-410q0 -46 16 -68t53 -31v-6h-302v6q37 9 53 31t16 68v237h-250v-237q0 -46 16 -68t53 -31v-6h-302v6q37 9 53 31t16 68v410h-62v20h62v60q0 46 -16 68t-53 31v6h302v-6q-37 -9 -53 -31t-16 -68v-60h250v60q0 46 -16 68
t-53 31v6h302v-6zM513 370v145h-250v-145h250z" />
    <glyph glyph-name="hbar" unicode="&#x127;" horiz-adv-x="599" 
d="M520 72q0 -29 14.5 -44t44.5 -22v-6h-252v6q25 6 35 19t10 41v305q0 91 -71 91q-50 0 -74 -49v-347q0 -28 10 -41t35 -19v-6h-252v6q30 7 44.5 22t14.5 44v509h-69v16h69q-1 33 -14 47.5t-45 18.5v6l207 61v-133h180v-16h-180v-151q14 45 53.5 72t93.5 27q70 0 108 -40.5
t38 -110.5v-306z" />
    <glyph glyph-name="Itilde" unicode="&#x128;" horiz-adv-x="362" 
d="M245 756q-32 0 -71.5 20t-66.5 20q-54 0 -71 -42h-7q9 103 104 103q31 0 71 -20t67 -20q53 0 71 42h6q-9 -103 -103 -103zM332 694q-69 -17 -69 -96v-490q0 -85 69 -102v-6h-302v6q38 10 53.5 30.5t15.5 71.5v490q0 47 -15.5 67t-53.5 29v6h302v-6z" />
    <glyph glyph-name="itilde" unicode="&#x129;" horiz-adv-x="311" 
d="M205 583q-30 0 -67.5 22.5t-62.5 22.5q-52 0 -68 -48h-6q4 58 29.5 87.5t68.5 29.5q30 0 67 -23t63 -23q50 0 68 48h6q-8 -116 -98 -116zM232 72q0 -29 14.5 -44t44.5 -22v-6h-266v6q30 7 44.5 22t14.5 44v318q0 39 -12.5 54t-46.5 18v6l207 58v-454z" />
    <glyph glyph-name="Imacron" unicode="&#x12a;" horiz-adv-x="362" 
d="M30 782v35h302v-35h-302zM332 694q-69 -17 -69 -96v-490q0 -85 69 -102v-6h-302v6q38 10 53.5 30.5t15.5 71.5v490q0 47 -15.5 67t-53.5 29v6h302v-6z" />
    <glyph glyph-name="imacron" unicode="&#x12b;" horiz-adv-x="311" 
d="M1 608v35h302v-35h-302zM232 72q0 -29 14.5 -44t44.5 -22v-6h-266v6q30 7 44.5 22t14.5 44v318q0 39 -12.5 54t-46.5 18v6l207 58v-454z" />
    <glyph glyph-name="Ibreve" unicode="&#x12c;" horiz-adv-x="362" 
d="M182 752q-59 0 -97.5 31t-38.5 84h17q3 -29 35.5 -44.5t83.5 -15.5q110 0 118 60h17q0 -53 -38.5 -84t-96.5 -31zM332 694q-69 -17 -69 -96v-490q0 -85 69 -102v-6h-302v6q38 10 53.5 30.5t15.5 71.5v490q0 47 -15.5 67t-53.5 29v6h302v-6z" />
    <glyph glyph-name="ibreve" unicode="&#x12d;" horiz-adv-x="311" 
d="M152 562q-53 0 -87.5 36.5t-34.5 101.5h24q2 -36 29 -54.5t69 -18.5q43 0 69.5 18.5t29.5 54.5h23q0 -65 -34.5 -101.5t-87.5 -36.5zM232 72q0 -29 14.5 -44t44.5 -22v-6h-266v6q30 7 44.5 22t14.5 44v318q0 39 -12.5 54t-46.5 18v6l207 58v-454z" />
    <glyph glyph-name="Iogonek" unicode="&#x12e;" horiz-adv-x="362" 
d="M332 694q-69 -17 -69 -96v-490q0 -85 69 -102v-6h-117q-74 -25 -74 -84q0 -56 59 -56q46 0 65 45l5 -2q-17 -113 -108 -113q-45 0 -71.5 23t-26.5 63q0 42 32 75.5t94 48.5h-160v6q38 10 53.5 30.5t15.5 71.5v490q0 47 -15.5 67t-53.5 29v6h302v-6z" />
    <glyph glyph-name="iogonek" unicode="&#x12f;" horiz-adv-x="311" 
d="M152 577q-31 0 -52 21t-21 52q0 30 21 51t52 21t52 -21t21 -51q0 -31 -21 -52t-52 -21zM187 0q-74 -25 -74 -84q0 -56 59 -56q46 0 65 45l5 -2q-17 -113 -108 -113q-45 0 -71.5 23t-26.5 63q0 42 32 75.5t94 48.5h-137v6q30 7 44.5 22t14.5 44v318q0 39 -12.5 54
t-46.5 18v6l207 58v-454q0 -29 14.5 -44t44.5 -22v-6h-104z" />
    <glyph glyph-name="Idotaccent" unicode="&#x130;" horiz-adv-x="362" 
d="M181 744q-26 0 -43.5 17.5t-17.5 44.5t17.5 44t43.5 17t43.5 -17t17.5 -44t-17.5 -44.5t-43.5 -17.5zM332 694q-69 -17 -69 -96v-490q0 -85 69 -102v-6h-302v6q38 10 53.5 30.5t15.5 71.5v490q0 47 -15.5 67t-53.5 29v6h302v-6z" />
    <glyph glyph-name="dotlessi" unicode="&#x131;" horiz-adv-x="311" 
d="M232 72q0 -29 14.5 -44t44.5 -22v-6h-266v6q30 7 44.5 22t14.5 44v318q0 39 -12.5 54t-46.5 18v6l207 58v-454z" />
    <glyph glyph-name="IJ" unicode="&#x132;" horiz-adv-x="713" 
d="M332 694q-69 -17 -69 -96v-490q0 -85 69 -102v-6h-302v6q38 10 53.5 30.5t15.5 71.5v490q0 47 -15.5 67t-53.5 29v6h302v-6zM434 -78q-52 0 -84 13v6h17q49 0 78 36.5t29 106.5v514q0 47 -15.5 67t-53.5 29v6h302v-6q-69 -17 -69 -96v-474q0 -100 -54 -151t-150 -51z" />
    <glyph glyph-name="ij" unicode="&#x133;" horiz-adv-x="607" 
d="M152 561q-35 0 -59 23.5t-24 58.5t24 58.5t59 23.5t58.5 -23.5t23.5 -58.5t-23.5 -58.5t-58.5 -23.5zM458 561q-35 0 -59 23.5t-24 58.5t24 58.5t59 23.5t58.5 -23.5t23.5 -58.5t-23.5 -58.5t-58.5 -23.5zM232 72q0 -29 14.5 -44t44.5 -22v-6h-266v6q30 7 44.5 22
t14.5 44v318q0 39 -12.5 54t-46.5 18v6l207 58v-454zM360 -215q-48 0 -77 13v4q7 -1 19 -1q42 0 65.5 33.5t23.5 98.5v457q0 39 -12.5 54t-46.5 18v6l207 58v-550q0 -90 -43.5 -140.5t-135.5 -50.5z" />
    <glyph glyph-name="Jcircumflex" unicode="&#x134;" horiz-adv-x="351" 
d="M86 737h-18l119 123h20l119 -123h-18l-111 62zM72 -78q-52 0 -84 13v6h17q49 0 78 36.5t29 106.5v514q0 47 -15.5 67t-53.5 29v6h302v-6q-69 -17 -69 -96v-474q0 -100 -54 -151t-150 -51z" />
    <glyph glyph-name="jcircumflex" unicode="&#x135;" horiz-adv-x="296" 
d="M2 563l124 137h43l123 -137h-40l-105 77l-105 -77h-40zM49 -215q-48 0 -77 13v4q7 -1 19 -1q41 0 65 33.5t24 98.5v457q0 39 -12.5 54t-46.5 18v6l207 58v-550q0 -90 -43.5 -140.5t-135.5 -50.5z" />
    <glyph glyph-name="Kcommaaccent" unicode="&#x136;" horiz-adv-x="763" 
d="M332 694q-69 -17 -69 -96v-490q0 -85 69 -102v-6h-302v6q38 10 53.5 30.5t15.5 71.5v490q0 47 -15.5 67t-53.5 29v6h302v-6zM648 101q36 -52 56.5 -70t51.5 -25v-6h-246l-247 358l204 198q31 30 43 47t12 35q0 48 -80 56v6h265v-6q-48 -11 -83.5 -35.5t-86.5 -72.5
l-136 -133zM376 -213l-5 15q54 14 54 43q0 13 -7.5 19t-27.5 11q-38 9 -38 43q0 20 12.5 32t34.5 12q26 0 46 -23t20 -53q0 -74 -89 -99z" />
    <glyph glyph-name="kcommaaccent" unicode="&#x137;" horiz-adv-x="629" 
d="M20 0v6q30 7 44.5 22t14.5 44v522q0 35 -13 50t-46 19v6l207 61v-664q0 -28 13 -41t45 -19v-6h-265zM405 0l-173 268l153 120q55 45 55 76q0 41 -63 44v6h208v-6q-51 -24 -129 -88l-95 -79l173 -263q24 -35 44 -51t46 -21v-6h-219zM291 -213l-5 15q54 14 54 43
q0 13 -7.5 19t-27.5 11q-38 9 -38 43q0 20 12.5 32t34.5 12q26 0 46 -23t20 -53q0 -74 -89 -99z" />
    <glyph glyph-name="kgreenlandic" unicode="&#x138;" horiz-adv-x="644" 
d="M232 66q0 -28 13 -41t45 -19v-6h-265v6q30 7 44.5 22t14.5 44v319q0 35 -13 50t-46 19v6l207 61v-461zM549 78q46 -63 90 -72v-6h-219l-186 268l166 129q49 39 49 67q0 40 -56 44v6h209v-6q-66 -29 -126 -80l-110 -89z" />
    <glyph glyph-name="Lacute" unicode="&#x139;" horiz-adv-x="568" 
d="M196 750h-15l63 110h120v-7zM541 288h7l-30 -288h-488v6q38 10 53.5 30.5t15.5 71.5v490q0 47 -15.5 67t-53.5 29v6h302v-6q-69 -17 -69 -96v-573h29q100 0 158.5 65.5t90.5 197.5z" />
    <glyph glyph-name="lacute" unicode="&#x13a;" horiz-adv-x="306" 
d="M167 750h-15l63 110h120v-7zM227 72q0 -29 14.5 -44t44.5 -22v-6h-266v6q30 7 44.5 22t14.5 44v522q0 35 -13 50t-46 19v6l207 61v-658z" />
    <glyph glyph-name="Lcommaaccent" unicode="&#x13b;" horiz-adv-x="568" 
d="M541 288h7l-30 -288h-488v6q38 10 53.5 30.5t15.5 71.5v490q0 47 -15.5 67t-53.5 29v6h302v-6q-69 -17 -69 -96v-573h29q100 0 158.5 65.5t90.5 197.5zM270 -213l-5 15q54 14 54 43q0 13 -7.5 19t-27.5 11q-38 9 -38 43q0 20 12.5 32t34.5 12q26 0 46 -23t20 -53
q0 -74 -89 -99z" />
    <glyph glyph-name="lcommaaccent" unicode="&#x13c;" horiz-adv-x="306" 
d="M227 72q0 -29 14.5 -44t44.5 -22v-6h-266v6q30 7 44.5 22t14.5 44v522q0 35 -13 50t-46 19v6l207 61v-658zM129 -213l-5 15q54 14 54 43q0 13 -7.5 19t-27.5 11q-38 9 -38 43q0 20 12.5 32t34.5 12q26 0 46 -23t20 -53q0 -74 -89 -99z" />
    <glyph glyph-name="Lcaron" unicode="&#x13d;" horiz-adv-x="568" 
d="M373 536l-4 11q27 7 41.5 17.5t17 17t2.5 15.5q0 24 -34 27q-19 2 -32 13.5t-13 31.5q0 22 14 36.5t37 14.5q27 0 46 -21.5t19 -60.5q0 -78 -94 -102zM541 288h7l-30 -288h-488v6q38 10 53.5 30.5t15.5 71.5v490q0 47 -15.5 67t-53.5 29v6h302v-6q-69 -17 -69 -96v-573
h29q100 0 158.5 65.5t90.5 197.5z" />
    <glyph glyph-name="lcaron" unicode="&#x13e;" horiz-adv-x="386" 
d="M227 72q0 -29 14.5 -44t44.5 -22v-6h-266v6q30 7 44.5 22t14.5 44v522q0 35 -13 50t-46 19v6l207 61v-658zM285 533l-4 11q27 7 41.5 17.5t17 17t2.5 15.5q0 24 -34 27q-19 2 -32 13.5t-13 31.5q0 22 14 36.5t37 14.5q27 0 46 -21.5t19 -60.5q0 -78 -94 -102z" />
    <glyph glyph-name="Ldot" unicode="&#x13f;" horiz-adv-x="568" 
d="M541 288h7l-30 -288h-488v6q38 10 53.5 30.5t15.5 71.5v490q0 47 -15.5 67t-53.5 29v6h302v-6q-69 -17 -69 -96v-573h29q100 0 158.5 65.5t90.5 197.5zM411 340q-35 0 -59 24t-24 59q0 33 24.5 57.5t58.5 24.5t58 -24.5t24 -57.5q0 -34 -24 -58.5t-58 -24.5z" />
    <glyph glyph-name="ldot" unicode="&#x140;" horiz-adv-x="363" 
d="M227 72q0 -29 14.5 -44t44.5 -22v-6h-266v6q30 7 44.5 22t14.5 44v522q0 35 -13 50t-46 19v6l207 61v-658zM333 298q-30 0 -51 21t-21 51q0 29 21 49.5t51 20.5q29 0 50 -20.5t21 -49.5q0 -30 -21 -51t-50 -21z" />
    <glyph glyph-name="Lslash" unicode="&#x141;" horiz-adv-x="568" 
d="M541 288h7l-30 -288h-488v6q38 10 53.5 30.5t15.5 71.5v183l-65 -33v22l65 33v285q0 47 -15.5 67t-53.5 29v6h302v-6q-69 -17 -69 -96v-201l199 101v-22l-199 -101v-350h29q100 0 158.5 65.5t90.5 197.5z" />
    <glyph glyph-name="lslash" unicode="&#x142;" horiz-adv-x="286" 
d="M220 72q0 -29 14.5 -44t44.5 -22v-6h-266v6q30 7 44.5 22t14.5 44v223l-47 -42v24l47 42v275q0 35 -13 50t-46 19v6l207 61v-280l57 50v-24l-57 -50v-354z" />
    <glyph glyph-name="Nacute" unicode="&#x143;" horiz-adv-x="748" 
d="M598 850l-168 -103h-15l63 110h120v-7zM529 700h204v-6q-44 -8 -62.5 -33.5t-18.5 -76.5v-594h-5l-496 585v-453q0 -56 20.5 -80.5t70.5 -35.5v-6h-212v6q50 9 69 33.5t19 82.5v492q-46 52 -88 80v6h233l358 -413v297q0 52 -19 75t-73 35v6z" />
    <glyph glyph-name="nacute" unicode="&#x144;" horiz-adv-x="604" 
d="M316 567h-35l59 133h125v-5zM525 72q0 -29 14.5 -44t44.5 -22v-6h-252v6q25 6 35 19t10 41v305q0 92 -70 92q-51 0 -75 -49v-348q0 -28 10 -41t35 -19v-6h-252v6q30 7 44.5 22t14.5 44v319q0 39 -12.5 54.5t-46.5 18.5v6l207 57v-98q14 46 53.5 73t93.5 27
q70 0 108 -40.5t38 -111.5v-305z" />
    <glyph glyph-name="Ncommaaccent" unicode="&#x145;" horiz-adv-x="748" 
d="M529 700h204v-6q-44 -8 -62.5 -33.5t-18.5 -76.5v-594h-5l-496 585v-453q0 -56 20.5 -80.5t70.5 -35.5v-6h-212v6q50 9 69 33.5t19 82.5v492q-46 52 -88 80v6h233l358 -413v297q0 52 -19 75t-73 35v6zM387 -38q26 0 46 -23t20 -53q0 -74 -89 -99l-5 15q54 14 54 43
q0 13 -7.5 19t-27.5 11q-38 9 -38 43q0 20 12.5 32t34.5 12z" />
    <glyph glyph-name="ncommaaccent" unicode="&#x146;" horiz-adv-x="604" 
d="M525 72q0 -29 14.5 -44t44.5 -22v-6h-252v6q25 6 35 19t10 41v305q0 92 -70 92q-51 0 -75 -49v-348q0 -28 10 -41t35 -19v-6h-252v6q30 7 44.5 22t14.5 44v319q0 39 -12.5 54.5t-46.5 18.5v6l207 57v-98q14 46 53.5 73t93.5 27q70 0 108 -40.5t38 -111.5v-305zM276 -213
l-5 15q54 14 54 43q0 13 -7.5 19t-27.5 11q-38 9 -38 43q0 20 12.5 32t34.5 12q26 0 46 -23t20 -53q0 -74 -89 -99z" />
    <glyph glyph-name="Ncaron" unicode="&#x147;" horiz-adv-x="748" 
d="M425 740h-20l-119 117h18l111 -56l111 56h18zM529 700h204v-6q-44 -8 -62.5 -33.5t-18.5 -76.5v-594h-5l-496 585v-453q0 -56 20.5 -80.5t70.5 -35.5v-6h-212v6q50 9 69 33.5t19 82.5v492q-46 52 -88 80v6h233l358 -413v297q0 52 -19 75t-73 35v6z" />
    <glyph glyph-name="ncaron" unicode="&#x148;" horiz-adv-x="604" 
d="M278 566l-124 134h40l105 -74l105 74h40l-123 -134h-43zM525 72q0 -29 14.5 -44t44.5 -22v-6h-252v6q25 6 35 19t10 41v305q0 92 -70 92q-51 0 -75 -49v-348q0 -28 10 -41t35 -19v-6h-252v6q30 7 44.5 22t14.5 44v319q0 39 -12.5 54.5t-46.5 18.5v6l207 57v-98
q14 46 53.5 73t93.5 27q70 0 108 -40.5t38 -111.5v-305z" />
    <glyph glyph-name="napostrophe" unicode="&#x149;" horiz-adv-x="604" 
d="M27 536l-4 11q27 7 41.5 17.5t17 17t2.5 15.5q0 24 -34 27q-19 2 -32 13.5t-13 31.5q0 22 14 36.5t37 14.5q27 0 46 -21.5t19 -60.5q0 -78 -94 -102zM525 72q0 -29 14.5 -44t44.5 -22v-6h-252v6q25 6 35 19t10 41v305q0 92 -70 92q-51 0 -75 -49v-348q0 -28 10 -41
t35 -19v-6h-252v6q30 7 44.5 22t14.5 44v319q0 39 -12.5 54.5t-46.5 18.5v6l207 57v-98q14 46 53.5 73t93.5 27q70 0 108 -40.5t38 -111.5v-305z" />
    <glyph glyph-name="Eng" unicode="&#x14a;" horiz-adv-x="748" 
d="M500 -215q-77 0 -124 38l3 5q27 -11 54 -11q34 0 52 24.5t18 67.5v240l-352 426v-453q0 -56 20.5 -80.5t70.5 -35.5v-6h-212v6q50 9 69 33.5t19 82.5v491q-48 57 -88 81v6h233l358 -420v304q0 52 -19 75t-73 35v6h204v-6q-44 -8 -62.5 -33.5t-18.5 -76.5v-617
q-1 -96 -45 -139t-107 -43z" />
    <glyph glyph-name="eng" unicode="&#x14b;" horiz-adv-x="545" 
d="M379 529q70 0 108 -40.5t38 -111.5v-408q0 -98 -44 -141t-108 -43q-77 0 -124 38l4 5q26 -11 53 -11q34 0 52.5 25t18.5 67v462q0 92 -70 92q-51 0 -75 -49v-362q1 -21 11 -31t33 -15v-6h-251v6q30 7 44.5 22t14.5 44v319q0 39 -12.5 54.5t-46.5 18.5v6l207 57v-98
q14 46 53.5 73t93.5 27z" />
    <glyph glyph-name="Omacron" unicode="&#x14c;" horiz-adv-x="785" 
d="M241 782v35h302v-35h-302zM392 -20q-161 0 -261.5 103t-100.5 267t100.5 267t261.5 103t262 -103t101 -267t-101 -267t-262 -103zM392 15q90 0 134 82t44 253q0 172 -43.5 253.5t-134.5 81.5q-90 0 -134 -82t-44 -253q0 -335 178 -335z" />
    <glyph glyph-name="omacron" unicode="&#x14d;" horiz-adv-x="576" 
d="M137 608v35h302v-35h-302zM288 -15q-116 0 -188 76t-72 196t72 196t188 76t187.5 -76t71.5 -196t-71.5 -196t-187.5 -76zM288 17q53 0 77.5 57.5t24.5 182.5t-24.5 182.5t-77.5 57.5q-54 0 -78 -57t-24 -183q0 -125 24 -182.5t78 -57.5z" />
    <glyph glyph-name="Obreve" unicode="&#x14e;" horiz-adv-x="785" 
d="M393 752q-59 0 -97.5 31t-38.5 84h17q3 -29 35.5 -44.5t83.5 -15.5t82.5 15.5t35.5 44.5h17q0 -53 -38.5 -84t-96.5 -31zM392 -20q-161 0 -261.5 103t-100.5 267t100.5 267t261.5 103t262 -103t101 -267t-101 -267t-262 -103zM392 15q90 0 134 82t44 253
q0 172 -43.5 253.5t-134.5 81.5q-90 0 -134 -82t-44 -253q0 -335 178 -335z" />
    <glyph glyph-name="obreve" unicode="&#x14f;" horiz-adv-x="576" 
d="M288 562q-53 0 -87.5 36.5t-34.5 101.5h24q2 -36 29 -54.5t69 -18.5q43 0 69.5 18.5t29.5 54.5h23q0 -65 -34.5 -101.5t-87.5 -36.5zM288 -15q-116 0 -188 76t-72 196t72 196t188 76t187.5 -76t71.5 -196t-71.5 -196t-187.5 -76zM288 17q53 0 77.5 57.5t24.5 182.5
t-24.5 182.5t-77.5 57.5q-54 0 -78 -57t-24 -183q0 -125 24 -182.5t78 -57.5z" />
    <glyph glyph-name="Ohungarumlaut" unicode="&#x150;" horiz-adv-x="785" 
d="M341 754h-18l52 106h83v-5zM474 754h-17l52 106h83v-5zM392 -20q-161 0 -261.5 103t-100.5 267t100.5 267t261.5 103t262 -103t101 -267t-101 -267t-262 -103zM392 15q90 0 134 82t44 253q0 172 -43.5 253.5t-134.5 81.5q-90 0 -134 -82t-44 -253q0 -335 178 -335z" />
    <glyph glyph-name="ohungarumlaut" unicode="&#x151;" horiz-adv-x="576" 
d="M219 563l73 137h86v-7l-151 -130h-8zM355 563l82 137h89v-7l-163 -130h-8zM288 -15q-116 0 -188 76t-72 196t72 196t188 76t187.5 -76t71.5 -196t-71.5 -196t-187.5 -76zM288 17q53 0 77.5 57.5t24.5 182.5t-24.5 182.5t-77.5 57.5q-54 0 -78 -57t-24 -183
q0 -125 24 -182.5t78 -57.5z" />
    <glyph glyph-name="OE" unicode="&#x152;" horiz-adv-x="966" 
d="M926 271h4l-26 -271h-507q-162 0 -264.5 97.5t-102.5 252.5t102.5 252.5t264.5 97.5h490l23 -238h-4q-25 87 -92 150q-70 63 -190 64v-309h30q127 0 157 124h4v-279h-4q-31 131 -157 131h-30v-319q135 1 199 61q64 58 103 186zM460 24v652h-29q-218 0 -218 -326t218 -326
h29z" />
    <glyph glyph-name="oe" unicode="&#x153;" horiz-adv-x="873" 
d="M833 183l7 -2q-12 -69 -44.5 -114.5t-72.5 -63.5t-86 -18q-110 0 -173 89q-62 -89 -185 -89q-111 0 -181 76t-70 196t70 196t181 76q126 0 187 -95q64 95 177 95q82 0 139.5 -55.5t56.5 -170.5h-308q7 -95 53 -147t120 -52q93 0 129 79zM621 501q-42 0 -66.5 -43.5
t-24.5 -118.5v-11h173q1 173 -82 173zM279 17q53 0 77 57.5t24 182.5q0 126 -24 183t-77 57q-49 0 -71 -57.5t-22 -182.5t22 -182.5t71 -57.5z" />
    <glyph glyph-name="Racute" unicode="&#x154;" horiz-adv-x="731" 
d="M325 750h-15l63 110h120v-7zM30 0v6q38 10 53.5 30.5t15.5 71.5v490q0 47 -15.5 67t-53.5 29v6h311q266 0 266 -171q0 -74 -66 -123t-159 -49v-6q73 2 127 -30t77 -92l53 -136q29 -74 87 -86v-7h-223q-17 26 -44 99l-53 146q-22 56 -43 76t-62 20h-38v-233q0 -85 69 -102
v-6h-302zM263 363h33q131 0 131 163q0 73 -28 111.5t-96 38.5h-40v-313z" />
    <glyph glyph-name="racute" unicode="&#x155;" horiz-adv-x="408" 
d="M277 567h-35l59 133h125v-5zM386 529h11v-144h-5q-17 9 -52 9q-53 0 -80.5 -37t-27.5 -131v-154q0 -32 18 -46t61 -20v-6h-286v6q30 7 44.5 22t14.5 44v310q0 43 -13 60.5t-46 20.5v6l201 58v-224h5q11 226 155 226z" />
    <glyph glyph-name="Rcommaaccent" unicode="&#x156;" horiz-adv-x="731" 
d="M30 0v6q38 10 53.5 30.5t15.5 71.5v490q0 47 -15.5 67t-53.5 29v6h311q266 0 266 -171q0 -74 -66 -123t-159 -49v-6q73 2 127 -30t77 -92l53 -136q29 -74 87 -86v-7h-223q-17 26 -44 99l-53 146q-22 56 -43 76t-62 20h-38v-233q0 -85 69 -102v-6h-302zM263 363h33
q131 0 131 163q0 73 -28 111.5t-96 38.5h-40v-313zM359 -213l-5 15q54 14 54 43q0 13 -7.5 19t-27.5 11q-38 9 -38 43q0 20 12.5 32t34.5 12q26 0 46 -23t20 -53q0 -74 -89 -99z" />
    <glyph glyph-name="rcommaaccent" unicode="&#x157;" horiz-adv-x="408" 
d="M386 529h11v-144h-5q-17 9 -52 9q-53 0 -80.5 -37t-27.5 -131v-154q0 -32 18 -46t61 -20v-6h-286v6q30 7 44.5 22t14.5 44v310q0 43 -13 60.5t-46 20.5v6l201 58v-224h5q11 226 155 226zM135 -213l-5 15q54 14 54 43q0 13 -7.5 19t-27.5 11q-38 9 -38 43q0 20 12.5 32
t34.5 12q26 0 46 -23t20 -53q0 -74 -89 -99z" />
    <glyph glyph-name="Rcaron" unicode="&#x158;" horiz-adv-x="731" 
d="M199 860l111 -56l111 56h18l-119 -117h-20l-119 117h18zM30 0v6q38 10 53.5 30.5t15.5 71.5v490q0 47 -15.5 67t-53.5 29v6h311q266 0 266 -171q0 -74 -66 -123t-159 -49v-6q73 2 127 -30t77 -92l53 -136q29 -74 87 -86v-7h-223q-17 26 -44 99l-53 146q-22 56 -43 76
t-62 20h-38v-233q0 -85 69 -102v-6h-302zM263 363h33q131 0 131 163q0 73 -28 111.5t-96 38.5h-40v-313z" />
    <glyph glyph-name="rcaron" unicode="&#x159;" horiz-adv-x="408" 
d="M239 566l-124 134h40l105 -74l105 74h40l-123 -134h-43zM386 529h11v-144h-5q-17 9 -52 9q-53 0 -80.5 -37t-27.5 -131v-154q0 -32 18 -46t61 -20v-6h-286v6q30 7 44.5 22t14.5 44v310q0 43 -13 60.5t-46 20.5v6l201 58v-224h5q11 226 155 226z" />
    <glyph glyph-name="Sacute" unicode="&#x15a;" horiz-adv-x="561" 
d="M314 750h-15l63 110h120v-7zM276 -20q-142 0 -251 62l42 196h6q20 -104 84.5 -162.5t151.5 -58.5q54 0 87 28.5t33 78.5q0 36 -20.5 61.5t-70.5 47.5l-143 65q-152 68 -152 208q0 91 64.5 152.5t191.5 61.5t231 -56l-49 -178h-6q-22 98 -78 148t-133 50
q-58 0 -88.5 -25.5t-30.5 -64.5q0 -36 21 -60.5t72 -48.5l151 -71q77 -35 110.5 -82t33.5 -115q0 -104 -71 -170.5t-186 -66.5z" />
    <glyph glyph-name="sacute" unicode="&#x15b;" horiz-adv-x="445" 
d="M256 567h-35l59 133h125v-5zM210 -15q-104 0 -185 59l40 143l7 -1q14 -72 61.5 -118.5t107.5 -46.5q43 0 64.5 20.5t21.5 49.5q0 45 -57 68l-133 59q-96 43 -96 141q0 68 53 119t153 51q98 0 168 -47l-42 -125h-7q-37 139 -152 139q-41 0 -60.5 -17t-19.5 -44
q0 -45 56 -69l128 -57q98 -42 98 -137q0 -78 -55 -132.5t-151 -54.5z" />
    <glyph glyph-name="Scircumflex" unicode="&#x15c;" horiz-adv-x="561" 
d="M188 737h-18l119 123h20l119 -123h-18l-111 62zM276 -20q-142 0 -251 62l42 196h6q20 -104 84.5 -162.5t151.5 -58.5q54 0 87 28.5t33 78.5q0 36 -20.5 61.5t-70.5 47.5l-143 65q-152 68 -152 208q0 91 64.5 152.5t191.5 61.5t231 -56l-49 -178h-6q-22 98 -78 148
t-133 50q-58 0 -88.5 -25.5t-30.5 -64.5q0 -36 21 -60.5t72 -48.5l151 -71q77 -35 110.5 -82t33.5 -115q0 -104 -71 -170.5t-186 -66.5z" />
    <glyph glyph-name="scircumflex" unicode="&#x15d;" horiz-adv-x="445" 
d="M94 563l124 137h43l123 -137h-40l-105 77l-105 -77h-40zM210 -15q-104 0 -185 59l40 143l7 -1q14 -72 61.5 -118.5t107.5 -46.5q43 0 64.5 20.5t21.5 49.5q0 45 -57 68l-133 59q-96 43 -96 141q0 68 53 119t153 51q98 0 168 -47l-42 -125h-7q-37 139 -152 139
q-41 0 -60.5 -17t-19.5 -44q0 -45 56 -69l128 -57q98 -42 98 -137q0 -78 -55 -132.5t-151 -54.5z" />
    <glyph glyph-name="Scedilla" unicode="&#x15e;" horiz-adv-x="561" 
d="M533 217q0 -98 -64 -163.5t-170 -72.5l-26 -40q13 8 35 8q32 0 54.5 -21t22.5 -56q0 -39 -25 -63t-63 -24q-65 0 -80 66l9 4q16 -30 49 -30q20 0 32.5 13t12.5 35q0 20 -11 32t-29 12q-15 0 -26 -9l-13 7l40 65h-5q-142 0 -251 62l42 196h6q20 -104 84.5 -162.5
t151.5 -58.5q54 0 87 28.5t33 78.5q0 36 -20.5 61.5t-70.5 47.5l-143 65q-152 68 -152 208q0 91 64.5 152.5t191.5 61.5t231 -56l-49 -178h-6q-22 98 -78 148t-133 50q-58 0 -88.5 -25.5t-30.5 -64.5q0 -36 21 -60.5t72 -48.5l151 -71q77 -35 110.5 -82t33.5 -115z" />
    <glyph glyph-name="scedilla" unicode="&#x15f;" horiz-adv-x="445" 
d="M416 172q0 -72 -48 -125t-132 -61l-29 -45q13 8 35 8q32 0 54.5 -21t22.5 -56q0 -39 -25 -63t-63 -24q-65 0 -80 66l9 4q16 -30 49 -30q20 0 32.5 13t12.5 35q0 20 -11 32t-29 12q-15 0 -26 -9l-13 7l43 70h-8q-104 0 -185 59l40 143l7 -1q14 -72 61.5 -118.5
t107.5 -46.5q43 0 64.5 20.5t21.5 49.5q0 45 -57 68l-133 59q-96 43 -96 141q0 68 53 119t153 51q98 0 168 -47l-42 -125h-7q-37 139 -152 139q-41 0 -60.5 -17t-19.5 -44q0 -45 56 -69l128 -57q98 -42 98 -137z" />
    <glyph glyph-name="Scaron" unicode="&#x160;" horiz-adv-x="561" 
d="M188 860l111 -56l111 56h18l-119 -117h-20l-119 117h18zM276 -20q-142 0 -251 62l42 196h6q20 -104 84.5 -162.5t151.5 -58.5q54 0 87 28.5t33 78.5q0 36 -20.5 61.5t-70.5 47.5l-143 65q-152 68 -152 208q0 91 64.5 152.5t191.5 61.5t231 -56l-49 -178h-6
q-22 98 -78 148t-133 50q-58 0 -88.5 -25.5t-30.5 -64.5q0 -36 21 -60.5t72 -48.5l151 -71q77 -35 110.5 -82t33.5 -115q0 -104 -71 -170.5t-186 -66.5z" />
    <glyph glyph-name="scaron" unicode="&#x161;" horiz-adv-x="445" 
d="M218 566l-124 134h40l105 -74l105 74h40l-123 -134h-43zM210 -15q-104 0 -185 59l40 143l7 -1q14 -72 61.5 -118.5t107.5 -46.5q43 0 64.5 20.5t21.5 49.5q0 45 -57 68l-133 59q-96 43 -96 141q0 68 53 119t153 51q98 0 168 -47l-42 -125h-7q-37 139 -152 139
q-41 0 -60.5 -17t-19.5 -44q0 -45 56 -69l128 -57q98 -42 98 -137q0 -78 -55 -132.5t-151 -54.5z" />
    <glyph glyph-name="uni0162" unicode="&#x162;" horiz-adv-x="601" 
d="M583 726h5v-272h-6q-14 100 -59 157t-116 57h-24v-559q0 -51 21.5 -73.5t78.5 -29.5v-6h-174l-38 -59q13 8 35 8q32 0 54.5 -21t22.5 -56q0 -39 -25 -63t-63 -24q-65 0 -80 66l9 4q16 -30 49 -30q20 0 32.5 13t12.5 35q0 20 -11 32t-29 12q-15 0 -26 -9l-13 7l52 85h-173
v6q57 7 78.5 29.5t21.5 73.5v559h-24q-72 0 -116.5 -57t-58.5 -157h-6v272h5q23 -26 84 -26h397q61 0 84 26z" />
    <glyph glyph-name="uni0163" unicode="&#x163;" horiz-adv-x="367" 
d="M197 -15h-1l-28 -44q13 8 35 8q32 0 54.5 -21t22.5 -56q0 -39 -25 -63t-63 -24q-65 0 -80 66l9 4q16 -30 49 -30q20 0 32.5 13t12.5 35q0 20 -11 32t-29 12q-15 0 -26 -9l-13 7l43 71q-53 5 -79.5 40t-26.5 91v375h-58v5q128 75 203 180h4v-165h101v-20h-101v-353
q0 -35 14.5 -56t41.5 -21q53 0 74 59l8 -3q-18 -59 -59.5 -96t-103.5 -37z" />
    <glyph glyph-name="Tcaron" unicode="&#x164;" horiz-adv-x="601" 
d="M189 860l111 -56l111 56h18l-119 -117h-20l-119 117h18zM583 726h5v-272h-6q-14 100 -59 157t-116 57h-24v-559q0 -51 21.5 -73.5t78.5 -29.5v-6h-365v6q57 7 78.5 29.5t21.5 73.5v559h-24q-72 0 -116.5 -57t-58.5 -157h-6v272h5q23 -26 84 -26h397q61 0 84 26z" />
    <glyph glyph-name="tcaron" unicode="&#x165;" horiz-adv-x="367" 
d="M300 624q-19 2 -32 13.5t-13 31.5q0 22 14 36.5t37 14.5q27 0 46 -21.5t19 -60.5q0 -78 -94 -102l-4 11q27 7 41.5 17.5t17 17t2.5 15.5q0 24 -34 27zM278 62q53 0 74 59l8 -3q-18 -59 -59.5 -96t-103.5 -37q-61 0 -92.5 35.5t-31.5 96.5v375h-58v5q128 75 203 180h4
v-165h101v-20h-101v-353q0 -35 14.5 -56t41.5 -21z" />
    <glyph glyph-name="Tbar" unicode="&#x166;" horiz-adv-x="601" 
d="M583 726h5v-272h-6q-14 100 -59 157t-116 57h-24v-267h103v-21h-103v-271q0 -51 21.5 -73.5t78.5 -29.5v-6h-365v6q57 7 78.5 29.5t21.5 73.5v271h-103v21h103v267h-24q-72 0 -116.5 -57t-58.5 -157h-6v272h5q23 -26 84 -26h397q61 0 84 26z" />
    <glyph glyph-name="tbar" unicode="&#x167;" horiz-adv-x="367" 
d="M352 121l8 -3q-18 -59 -59.5 -96t-103.5 -37q-61 0 -92.5 35.5t-31.5 96.5v232h-57v16h57v127h-58v5q128 75 203 180h4v-165h101v-20h-101v-127h95v-16h-95v-210q0 -35 14.5 -56t41.5 -21q53 0 74 59z" />
    <glyph glyph-name="Utilde" unicode="&#x168;" horiz-adv-x="689" 
d="M468 756q-32 0 -71.5 20t-66.5 20q-54 0 -71 -42h-7q9 103 104 103q31 0 71 -20t67 -20q53 0 71 42h6q-9 -103 -103 -103zM682 700v-6q-38 -10 -55 -32.5t-17 -73.5v-339q0 -128 -66 -198.5t-192 -70.5q-134 0 -205.5 73.5t-71.5 214.5v330q0 47 -15 67t-53 29v6h317v-6
q-46 -11 -64.5 -33t-18.5 -73v-320q0 -107 43 -162.5t126 -55.5q168 0 168 219v309q0 55 -22.5 80t-72.5 36v6h199z" />
    <glyph glyph-name="utilde" unicode="&#x169;" horiz-adv-x="584" 
d="M341 583q-30 0 -67.5 22.5t-62.5 22.5q-52 0 -68 -48h-6q4 58 29.5 87.5t68.5 29.5q30 0 67 -23t63 -23q50 0 68 48h6q-8 -116 -98 -116zM505 79q0 -36 14 -51t45 -22v-6h-207v89q-16 -45 -53.5 -74.5t-87.5 -29.5q-68 0 -106 39.5t-38 122.5v265q0 41 -12.5 56t-46.5 18
v6l207 35v-376q0 -43 19 -65.5t53 -22.5q45 2 65 41v309q0 41 -10.5 56.5t-38.5 18.5v6l197 33v-448z" />
    <glyph glyph-name="Umacron" unicode="&#x16a;" horiz-adv-x="689" 
d="M253 782v35h302v-35h-302zM682 700v-6q-38 -10 -55 -32.5t-17 -73.5v-339q0 -128 -66 -198.5t-192 -70.5q-134 0 -205.5 73.5t-71.5 214.5v330q0 47 -15 67t-53 29v6h317v-6q-46 -11 -64.5 -33t-18.5 -73v-320q0 -107 43 -162.5t126 -55.5q168 0 168 219v309
q0 55 -22.5 80t-72.5 36v6h199z" />
    <glyph glyph-name="umacron" unicode="&#x16b;" horiz-adv-x="584" 
d="M137 608v35h302v-35h-302zM505 79q0 -36 14 -51t45 -22v-6h-207v89q-16 -45 -53.5 -74.5t-87.5 -29.5q-68 0 -106 39.5t-38 122.5v265q0 41 -12.5 56t-46.5 18v6l207 35v-376q0 -43 19 -65.5t53 -22.5q45 2 65 41v309q0 41 -10.5 56.5t-38.5 18.5v6l197 33v-448z" />
    <glyph glyph-name="Ubreve" unicode="&#x16c;" horiz-adv-x="689" 
d="M405 752q-59 0 -97.5 31t-38.5 84h17q3 -29 35.5 -44.5t83.5 -15.5t82.5 15.5t35.5 44.5h17q0 -53 -38.5 -84t-96.5 -31zM682 700v-6q-38 -10 -55 -32.5t-17 -73.5v-339q0 -128 -66 -198.5t-192 -70.5q-134 0 -205.5 73.5t-71.5 214.5v330q0 47 -15 67t-53 29v6h317v-6
q-46 -11 -64.5 -33t-18.5 -73v-320q0 -107 43 -162.5t126 -55.5q168 0 168 219v309q0 55 -22.5 80t-72.5 36v6h199z" />
    <glyph glyph-name="ubreve" unicode="&#x16d;" horiz-adv-x="584" 
d="M288 562q-53 0 -87.5 36.5t-34.5 101.5h24q2 -36 29 -54.5t69 -18.5q43 0 69.5 18.5t29.5 54.5h23q0 -65 -34.5 -101.5t-87.5 -36.5zM505 79q0 -36 14 -51t45 -22v-6h-207v89q-16 -45 -53.5 -74.5t-87.5 -29.5q-68 0 -106 39.5t-38 122.5v265q0 41 -12.5 56t-46.5 18v6
l207 35v-376q0 -43 19 -65.5t53 -22.5q45 2 65 41v309q0 41 -10.5 56.5t-38.5 18.5v6l197 33v-448z" />
    <glyph glyph-name="Uring" unicode="&#x16e;" horiz-adv-x="689" 
d="M404 719q-35 0 -57 21t-22 55q0 33 22 54t57 21t57 -21t22 -54q0 -34 -22 -55t-57 -21zM404 738q25 0 41 15t16 42t-16 41.5t-41 14.5t-41 -14.5t-16 -41.5t16 -42t41 -15zM682 700v-6q-38 -10 -55 -32.5t-17 -73.5v-339q0 -128 -66 -198.5t-192 -70.5
q-134 0 -205.5 73.5t-71.5 214.5v330q0 47 -15 67t-53 29v6h317v-6q-46 -11 -64.5 -33t-18.5 -73v-320q0 -107 43 -162.5t126 -55.5q168 0 168 219v309q0 55 -22.5 80t-72.5 36v6h199z" />
    <glyph glyph-name="uring" unicode="&#x16f;" horiz-adv-x="584" 
d="M288 558q-42 0 -69 26t-27 67t27 67t69 26q41 0 68 -26.5t27 -66.5q0 -41 -27 -67t-68 -26zM288 582q30 0 49 18.5t19 50.5q0 31 -19 49.5t-49 18.5t-49.5 -18.5t-19.5 -49.5q0 -32 19 -50.5t50 -18.5zM505 79q0 -36 14 -51t45 -22v-6h-207v89q-16 -45 -53.5 -74.5
t-87.5 -29.5q-68 0 -106 39.5t-38 122.5v265q0 41 -12.5 56t-46.5 18v6l207 35v-376q0 -43 19 -65.5t53 -22.5q45 2 65 41v309q0 41 -10.5 56.5t-38.5 18.5v6l197 33v-448z" />
    <glyph glyph-name="Uhungarumlaut" unicode="&#x170;" horiz-adv-x="689" 
d="M353 754h-18l52 106h83v-5zM486 754h-17l52 106h83v-5zM682 700v-6q-38 -10 -55 -32.5t-17 -73.5v-339q0 -128 -66 -198.5t-192 -70.5q-134 0 -205.5 73.5t-71.5 214.5v330q0 47 -15 67t-53 29v6h317v-6q-46 -11 -64.5 -33t-18.5 -73v-320q0 -107 43 -162.5t126 -55.5
q168 0 168 219v309q0 55 -22.5 80t-72.5 36v6h199z" />
    <glyph glyph-name="uhungarumlaut" unicode="&#x171;" horiz-adv-x="584" 
d="M219 563l73 137h86v-7l-151 -130h-8zM355 563l82 137h89v-7l-163 -130h-8zM505 79q0 -36 14 -51t45 -22v-6h-207v89q-16 -45 -53.5 -74.5t-87.5 -29.5q-68 0 -106 39.5t-38 122.5v265q0 41 -12.5 56t-46.5 18v6l207 35v-376q0 -43 19 -65.5t53 -22.5q45 2 65 41v309
q0 41 -10.5 56.5t-38.5 18.5v6l197 33v-448z" />
    <glyph glyph-name="Uogonek" unicode="&#x172;" horiz-adv-x="689" 
d="M483 700h199v-6q-38 -10 -55 -32.5t-17 -73.5v-339q0 -102 -42.5 -168.5t-124.5 -89.5q-53 -25 -53 -75q0 -56 59 -56q46 0 65 45l5 -2q-17 -113 -108 -113q-45 0 -71.5 23t-26.5 63q0 68 75 106q-24 -2 -36 -2q-134 0 -205.5 73.5t-71.5 214.5v330q0 47 -15 67t-53 29v6
h317v-6q-46 -11 -64.5 -33t-18.5 -73v-320q0 -107 43 -162.5t126 -55.5q168 0 168 219v309q0 55 -22.5 80t-72.5 36v6z" />
    <glyph glyph-name="uogonek" unicode="&#x173;" horiz-adv-x="584" 
d="M377 0q-74 -25 -74 -84q0 -56 59 -56q46 0 65 45l5 -2q-17 -113 -108 -113q-45 0 -71.5 23t-26.5 63q0 43 33.5 77t97.5 48v88q-16 -45 -53.5 -74.5t-87.5 -29.5q-68 0 -106 39.5t-38 122.5v265q0 41 -12.5 56t-46.5 18v6l207 35v-376q0 -43 19 -65.5t53 -22.5
q45 2 65 41v309q0 41 -10.5 56.5t-38.5 18.5v6l197 33v-448q0 -36 14 -51t45 -22v-6h-187z" />
    <glyph glyph-name="Wcircumflex" unicode="&#x174;" horiz-adv-x="1008" 
d="M502 799l-111 -62h-18l119 123h20l119 -123h-18zM821 700h182v-6q-35 -7 -55 -31.5t-44 -85.5l-226 -587h-4l-170 433l-168 -433h-4l-236 599q-19 50 -38 74.5t-53 30.5v6h308v-6q-47 -9 -47 -52q0 -27 16 -68l123 -325l82 216l-50 127q-16 41 -28 61t-35 41v6h301v-6
q-66 -8 -66 -62q0 -19 11 -50l128 -333l122 325q12 29 12 56q0 57 -61 64v6z" />
    <glyph glyph-name="wcircumflex" unicode="&#x175;" horiz-adv-x="844" 
d="M450 640l-105 -77h-40l124 137h43l123 -137h-40zM692 514h147v-6q-43 -16 -70 -82l-183 -436h-5l-157 353l-160 -353h-5l-180 436q-30 72 -74 82v6h262v-6q-36 -12 -36 -43q0 -15 13 -48l87 -224l79 183l-30 67q-23 56 -52 65v6h262v-6q-26 -2 -39 -14t-13 -29
q0 -18 11 -46l92 -227l92 225q11 28 11 47q0 17 -13 29.5t-39 14.5v6z" />
    <glyph glyph-name="Ycircumflex" unicode="&#x176;" horiz-adv-x="674" 
d="M291 737h-18l119 123h20l119 -123h-18l-111 62zM475 700h192v-6q-24 -3 -54 -31.5t-57 -77.5l-138 -255v-229q1 -46 23 -67t77 -28v-6h-365v6q57 7 78.5 29.5t21.5 73.5v218l-145 272q-48 89 -101 95v6h323v-6q-63 -9 -63 -62q0 -27 18 -60l117 -210l114 205q20 34 20 64
q0 54 -61 63v6z" />
    <glyph glyph-name="ycircumflex" unicode="&#x177;" horiz-adv-x="543" 
d="M189 563l124 137h43l123 -137h-40l-105 77l-105 -77h-40zM84 -215q-56 0 -101 27l38 127h5q19 -17 50 -27t58 -10q94 0 129 63l6 12l-189 446q-30 74 -74 85v6h276v-6q-52 -11 -52 -45q0 -23 10 -49l93 -247l95 237q11 26 11 49q0 46 -53 55v6h152v-6q-26 -8 -41.5 -28
t-31.5 -64l-178 -454q-38 -101 -87 -139t-116 -38z" />
    <glyph glyph-name="Ydieresis" unicode="&#x178;" horiz-adv-x="674" 
d="M298 759q-24 0 -41 16.5t-17 40.5q0 25 17 41.5t41 16.5t40.5 -17t16.5 -41t-16.5 -40.5t-40.5 -16.5zM506 759q-24 0 -41 16.5t-17 40.5q0 25 17 41.5t41 16.5t40.5 -17t16.5 -41t-16.5 -40.5t-40.5 -16.5zM475 700h192v-6q-24 -3 -54 -31.5t-57 -77.5l-138 -255v-229
q1 -46 23 -67t77 -28v-6h-365v6q57 7 78.5 29.5t21.5 73.5v218l-145 272q-48 89 -101 95v6h323v-6q-63 -9 -63 -62q0 -27 18 -60l117 -210l114 205q20 34 20 64q0 54 -61 63v6z" />
    <glyph glyph-name="Zacute" unicode="&#x179;" horiz-adv-x="621" 
d="M323 750h-15l63 110h120v-7zM20 0v5l384 670h-78q-64 -1 -109.5 -19t-76 -54t-49 -75t-37.5 -100h-6l27 273h521v-5l-380 -670h85q64 1 115.5 24.5t84.5 63.5t53.5 81.5t33.5 91.5h6l-29 -286h-545z" />
    <glyph glyph-name="zacute" unicode="&#x17a;" horiz-adv-x="502" 
d="M291 567h-35l59 133h125v-5zM23 0v3l282 489h-43q-78 0 -131 -51t-78 -143h-5l29 216h402v-3l-282 -489h36q169 0 229 210h5l-20 -232h-424z" />
    <glyph glyph-name="Zdotaccent" unicode="&#x17b;" horiz-adv-x="621" 
d="M308 744q-26 0 -43.5 17.5t-17.5 44.5t17.5 44t43.5 17t43.5 -17t17.5 -44t-17.5 -44.5t-43.5 -17.5zM20 0v5l384 670h-78q-64 -1 -109.5 -19t-76 -54t-49 -75t-37.5 -100h-6l27 273h521v-5l-380 -670h85q64 1 115.5 24.5t84.5 63.5t53.5 81.5t33.5 91.5h6l-29 -286h-545
z" />
    <glyph glyph-name="zdotaccent" unicode="&#x17c;" horiz-adv-x="502" 
d="M274 577q-31 0 -52 21t-21 52q0 30 21 51t52 21t52 -21t21 -51q0 -31 -21 -52t-52 -21zM23 0v3l282 489h-43q-78 0 -131 -51t-78 -143h-5l29 216h402v-3l-282 -489h36q169 0 229 210h5l-20 -232h-424z" />
    <glyph glyph-name="Zcaron" unicode="&#x17d;" horiz-adv-x="621" 
d="M197 860l111 -56l111 56h18l-119 -117h-20l-119 117h18zM20 0v5l384 670h-78q-64 -1 -109.5 -19t-76 -54t-49 -75t-37.5 -100h-6l27 273h521v-5l-380 -670h85q64 1 115.5 24.5t84.5 63.5t53.5 81.5t33.5 91.5h6l-29 -286h-545z" />
    <glyph glyph-name="zcaron" unicode="&#x17e;" horiz-adv-x="502" 
d="M253 566l-124 134h40l105 -74l105 74h40l-123 -134h-43zM23 0v3l282 489h-43q-78 0 -131 -51t-78 -143h-5l29 216h402v-3l-282 -489h36q169 0 229 210h5l-20 -232h-424z" />
    <glyph glyph-name="florin" unicode="&#x192;" horiz-adv-x="511" 
d="M490 696q39 0 66 -19l-43 -100h-13q-29 82 -75 89q-23 -6 -33 -55l-27 -119h94l-9 -26h-91l-87 -390q-29 -129 -115 -210t-157 -81q-51 0 -80 22l39 115h13q11 -52 32.5 -78.5t45.5 -26.5q18 10 29 57l126 549l12 43h-73l9 26h74q23 58 58.5 100t73 63.5t70.5 31t61 9.5z
" />
    <glyph glyph-name="AEacute" unicode="&#x1fc;" horiz-adv-x="957" 
d="M659 747h-15l63 110h120v-7zM5 0v6q38 9 64 34.5t58 83.5l319 576h431l23 -238h-6q-58 211 -275 214v-315h32q61 0 98 28t56 90h7v-265h-7q-14 58 -53.5 88.5t-100.5 30.5h-32v-309q91 1 148 29t88 78t59 140h6l-26 -271h-508v6q37 10 52.5 30.5t15.5 71.5v147h-216
l-78 -144q-18 -34 -18 -52q0 -34 53 -53v-6h-190zM252 281h202v376z" />
    <glyph glyph-name="aeacute" unicode="&#x1fd;" horiz-adv-x="738" 
d="M548 695l-149 -128h-35l59 133h125v-5zM580 100q86 0 119 89l6 -1q-27 -202 -187 -202q-126 0 -180 120q-14 -57 -54.5 -89t-100.5 -32q-71 0 -111.5 38.5t-40.5 104.5q0 78 59.5 126.5t176.5 55.5l25 1l-1 5q-13 72 -42.5 102.5t-84.5 30.5q-44 0 -74.5 -25t-37.5 -67
l-7 2q12 79 65.5 124.5t132.5 45.5q110 0 144 -95q45 95 140 95q79 0 127 -62.5t53 -172.5h-277q8 -94 46 -144t104 -50zM503 499q-75 0 -75 -156q0 -20 1 -29h141q0 99 -15.5 142t-51.5 43zM263 73q48 0 68 50q-11 30 -19 72l-17 99h-1q-65 -3 -92 -36t-27 -81t24 -76
t64 -28z" />
    <glyph glyph-name="Oslashacute" unicode="&#x1fe;" horiz-adv-x="785" 
d="M555 853l-168 -103h-15l63 110h120v-7zM638 632q117 -103 117 -282q0 -164 -101 -267t-262 -103q-126 0 -219 66l-53 -66h-39l68 85q-119 105 -119 285q0 164 100.5 267t261.5 103q129 0 222 -68l57 71h39zM214 350q0 -108 18 -180l312 393q-42 122 -152 122
q-90 0 -134 -82t-44 -253zM392 15q90 0 134 82t44 253q0 108 -16 176l-312 -392q43 -119 150 -119z" />
    <glyph glyph-name="oslashacute" unicode="&#x1ff;" horiz-adv-x="576" 
d="M438 695l-149 -128h-35l59 133h125v-5zM453 474q94 -76 94 -217q0 -120 -71.5 -196t-187.5 -76q-81 0 -140 38l-29 -43h-30l38 57q-99 77 -99 220q0 120 72 196t188 76q82 0 144 -40l32 48h31zM186 257q0 -68 8 -121l182 271q-22 90 -88 90q-54 0 -78 -57t-24 -183z
M288 17q53 0 77.5 57.5t24.5 182.5q0 71 -7 114l-182 -270q24 -84 87 -84z" />
    <glyph glyph-name="Scommaaccent" unicode="&#x218;" horiz-adv-x="561" 
d="M276 -20q-142 0 -251 62l42 196h6q20 -104 84.5 -162.5t151.5 -58.5q54 0 87 28.5t33 78.5q0 36 -20.5 61.5t-70.5 47.5l-143 65q-152 68 -152 208q0 91 64.5 152.5t191.5 61.5t231 -56l-49 -178h-6q-22 98 -78 148t-133 50q-58 0 -88.5 -25.5t-30.5 -64.5
q0 -36 21 -60.5t72 -48.5l151 -71q77 -35 110.5 -82t33.5 -115q0 -104 -71 -170.5t-186 -66.5zM279 -213l-5 15q54 14 54 43q0 13 -7.5 19t-27.5 11q-38 9 -38 43q0 20 12.5 32t34.5 12q26 0 46 -23t20 -53q0 -74 -89 -99z" />
    <glyph glyph-name="scommaaccent" unicode="&#x219;" horiz-adv-x="445" 
d="M210 -15q-104 0 -185 59l40 143l7 -1q14 -72 61.5 -118.5t107.5 -46.5q43 0 64.5 20.5t21.5 49.5q0 45 -57 68l-133 59q-96 43 -96 141q0 68 53 119t153 51q98 0 168 -47l-42 -125h-7q-37 139 -152 139q-41 0 -60.5 -17t-19.5 -44q0 -45 56 -69l128 -57q98 -42 98 -137
q0 -78 -55 -132.5t-151 -54.5zM213 -213l-5 15q54 14 54 43q0 13 -7.5 19t-27.5 11q-38 9 -38 43q0 20 12.5 32t34.5 12q26 0 46 -23t20 -53q0 -74 -89 -99z" />
    <glyph glyph-name="uni021A" unicode="&#x21a;" horiz-adv-x="601" 
d="M583 726h5v-272h-6q-14 100 -59 157t-116 57h-24v-559q0 -51 21.5 -73.5t78.5 -29.5v-6h-365v6q57 7 78.5 29.5t21.5 73.5v559h-24q-72 0 -116.5 -57t-58.5 -157h-6v272h5q23 -26 84 -26h397q61 0 84 26zM277 -213l-5 15q54 14 54 43q0 13 -7.5 19t-27.5 11q-38 9 -38 43
q0 20 12.5 32t34.5 12q26 0 46 -23t20 -53q0 -74 -89 -99z" />
    <glyph glyph-name="uni021B" unicode="&#x21b;" horiz-adv-x="367" 
d="M352 121l8 -3q-18 -59 -59.5 -96t-103.5 -37q-61 0 -92.5 35.5t-31.5 96.5v375h-58v5q128 75 203 180h4v-165h101v-20h-101v-353q0 -35 14.5 -56t41.5 -21q53 0 74 59zM197 -38q26 0 46 -23t20 -53q0 -74 -89 -99l-5 15q54 14 54 43q0 13 -7.5 19t-27.5 11q-38 9 -38 43
q0 20 12.5 32t34.5 12z" />
    <glyph glyph-name="uni0237" unicode="&#x237;" horiz-adv-x="296" 
d="M49 -215q-48 0 -77 13v4q7 -1 19 -1q41 0 65 33.5t24 98.5v457q0 39 -12.5 54t-46.5 18v6l207 58v-550q0 -90 -43.5 -140.5t-135.5 -50.5z" />
    <glyph glyph-name="uni02BC" unicode="&#x2bc;" horiz-adv-x="259" 
d="M75 433l-7 15q37 12 57 28t24 26t4 23q0 38 -47 46q-27 4 -45 21t-18 47q0 29 19.5 49.5t51.5 20.5q37 0 64 -30t27 -84t-27 -96t-103 -66z" />
    <glyph glyph-name="circumflex" unicode="&#x2c6;" horiz-adv-x="600" 
d="M50 563l124 137h43l123 -137h-40l-105 77l-105 -77h-40z" />
    <glyph glyph-name="caron" unicode="&#x2c7;" horiz-adv-x="600" 
d="M174 566l-124 134h40l105 -74l105 74h40l-123 -134h-43z" />
    <glyph glyph-name="breve" unicode="&#x2d8;" horiz-adv-x="600" 
d="M172 562q-53 0 -87.5 36.5t-34.5 101.5h24q2 -36 29 -54.5t69 -18.5q43 0 69.5 18.5t29.5 54.5h23q0 -65 -34.5 -101.5t-87.5 -36.5z" />
    <glyph glyph-name="dotaccent" unicode="&#x2d9;" horiz-adv-x="600" 
d="M123 577q-31 0 -52 21t-21 52q0 30 21 51t52 21t52 -21t21 -51q0 -31 -21 -52t-52 -21z" />
    <glyph glyph-name="ring" unicode="&#x2da;" horiz-adv-x="600" 
d="M146 558q-42 0 -69 26t-27 67t27 67t69 26q41 0 68 -26.5t27 -66.5q0 -41 -27 -67t-68 -26zM146 582q30 0 49 18.5t19 50.5q0 31 -19 49.5t-49 18.5t-49.5 -18.5t-19.5 -49.5q0 -32 19 -50.5t50 -18.5z" />
    <glyph glyph-name="ogonek" unicode="&#x2db;" horiz-adv-x="600" 
d="M148 -210q-45 0 -71.5 23t-26.5 63q0 46 38.5 81.5t112.5 47.5v-5q-74 -25 -74 -84q0 -56 59 -56q46 0 65 45l5 -2q-17 -113 -108 -113z" />
    <glyph glyph-name="tilde" unicode="&#x2dc;" horiz-adv-x="600" 
d="M254 583q-30 0 -67.5 22.5t-62.5 22.5q-52 0 -68 -48h-6q4 58 29.5 87.5t68.5 29.5q30 0 67 -23t63 -23q50 0 68 48h6q-8 -116 -98 -116z" />
    <glyph glyph-name="hungarumlaut" unicode="&#x2dd;" horiz-adv-x="600" 
d="M53 563l73 137h86v-7l-151 -130h-8zM189 563l82 137h89v-7l-163 -130h-8z" />
    <glyph glyph-name="gravecomb" unicode="&#x300;" horiz-adv-x="0" 
d="M-85 567l-149 128v5h125l59 -133h-35z" />
    <glyph glyph-name="acutecomb" unicode="&#x301;" horiz-adv-x="0" 
d="M-209 567h-35l59 133h125v-5z" />
    <glyph glyph-name="uni0302" unicode="&#x302;" horiz-adv-x="0" 
d="M-340 563l124 137h43l123 -137h-40l-105 77l-105 -77h-40z" />
    <glyph glyph-name="tildecomb" unicode="&#x303;" horiz-adv-x="0" 
d="M-148 583q-30 0 -67.5 22.5t-62.5 22.5q-52 0 -68 -48h-6q4 58 29.5 87.5t68.5 29.5q30 0 67 -23t63 -23q50 0 68 48h6q-8 -116 -98 -116z" />
    <glyph glyph-name="uni0304" unicode="&#x304;" horiz-adv-x="0" 
d="M-352 608v35h302v-35h-302z" />
    <glyph glyph-name="uni0306" unicode="&#x306;" horiz-adv-x="0" 
d="M-172 562q-53 0 -87.5 36.5t-34.5 101.5h24q2 -36 29 -54.5t69 -18.5q43 0 69.5 18.5t29.5 54.5h23q0 -65 -34.5 -101.5t-87.5 -36.5z" />
    <glyph glyph-name="uni0307" unicode="&#x307;" horiz-adv-x="0" 
d="M-123 577q-31 0 -52 21t-21 52q0 30 21 51t52 21t52 -21t21 -51q0 -31 -21 -52t-52 -21z" />
    <glyph glyph-name="uni0308" unicode="&#x308;" horiz-adv-x="0" 
d="M-301 584q-28 0 -47 18.5t-19 47.5q0 28 19 46.5t47 18.5t46.5 -18.5t18.5 -46.5q0 -29 -18.5 -47.5t-46.5 -18.5zM-116 584q-28 0 -47 18.5t-19 47.5q0 28 19 46.5t47 18.5t47 -18.5t19 -46.5q0 -29 -19 -47.5t-47 -18.5z" />
    <glyph glyph-name="uni030A" unicode="&#x30a;" horiz-adv-x="0" 
d="M-145 558q-42 0 -69 26t-27 67t27 67t69 26q41 0 68 -26.5t27 -66.5q0 -41 -27 -67t-68 -26zM-145 582q30 0 49 18.5t19 50.5q0 31 -19 49.5t-49 18.5t-49.5 -18.5t-19.5 -49.5q0 -32 19 -50.5t50 -18.5z" />
    <glyph glyph-name="uni030B" unicode="&#x30b;" horiz-adv-x="0" 
d="M-360 563l73 137h86v-7l-151 -130h-8zM-224 563l82 137h89v-7l-163 -130h-8z" />
    <glyph glyph-name="uni030C" unicode="&#x30c;" horiz-adv-x="0" 
d="M-216 566l-124 134h40l105 -74l105 74h40l-123 -134h-43z" />
    <glyph glyph-name="uni0312" unicode="&#x312;" horiz-adv-x="0" 
d="M-76 766l6 -18q-60 -17 -60 -47q0 -24 36 -32q44 -10 44 -49q0 -22 -14 -35t-38 -13q-28 0 -47.5 24t-19.5 58q0 82 93 112z" />
    <glyph glyph-name="uni0326" unicode="&#x326;" horiz-adv-x="0" 
d="M-139 -213l-5 15q54 14 54 43q0 13 -7.5 19t-27.5 11q-38 9 -38 43q0 20 12.5 32t34.5 12q26 0 46 -23t20 -53q0 -74 -89 -99z" />
    <glyph glyph-name="uni0327" unicode="&#x327;" horiz-adv-x="0" 
d="M-50 -128q0 -39 -25 -63t-63 -24q-65 0 -80 66l9 4q16 -30 49 -30q20 0 32.5 13t12.5 35q0 20 -11 32t-29 12q-15 0 -26 -9l-13 7l52 85h18l-38 -59q13 8 35 8q32 0 54.5 -21t22.5 -56z" />
    <glyph glyph-name="uni0328" unicode="&#x328;" horiz-adv-x="0" 
d="M-158 -210q-45 0 -71.5 23t-26.5 63q0 46 38.5 81.5t112.5 47.5v-5q-74 -25 -74 -84q0 -56 59 -56q46 0 65 45l5 -2q-17 -113 -108 -113z" />
    <glyph glyph-name="uni0394" unicode="&#x394;" horiz-adv-x="727" 
d="M9 0l-2 4l341 701h5l367 -701l-2 -4h-709zM48 25h484l-250 481z" />
    <glyph glyph-name="uni03A9" unicode="&#x3a9;" horiz-adv-x="693" 
d="M540 97q76 0 89 69h5v-166h-259v170q62 17 90.5 89t28.5 171q0 74 -13.5 131.5t-48 96t-86.5 38.5q-76 0 -112 -75t-36 -191q0 -98 29 -170.5t91 -89.5v-170h-259v166h5q13 -69 89 -69h138v54q-118 23 -189.5 92.5t-71.5 186.5q0 131 91.5 210.5t224.5 79.5
q134 0 225.5 -79.5t91.5 -210.5q0 -117 -71.5 -186.5t-189.5 -92.5v-54h138z" />
    <glyph glyph-name="uni03BC" unicode="&#x3bc;" horiz-adv-x="584" 
d="M72 -150v562q0 41 -12.5 56t-46.5 18v6l207 35v-376q0 -43 19 -65.5t53 -22.5q45 2 65 41v309q0 41 -10.5 56.5t-38.5 18.5v6l197 33v-448q0 -36 14 -51t45 -22v-6h-207v89q-16 -45 -53.5 -74.5t-87.5 -29.5q-88 0 -121 64v-37q0 -131 125 -157v-5h-148z" />
    <glyph glyph-name="pi" unicode="&#x3c0;" horiz-adv-x="668" 
d="M519 -15q-46 0 -78 25.5t-32 87.5v391h-137v-489h-149v489h-25q-31 0 -46 -21t-22 -65h-5v111h616v-25h-82v-391q0 -46 35 -46q26 0 43 21l5 -2q-28 -86 -123 -86z" />
    <glyph glyph-name="uni0E3F" unicode="&#xe3f;" horiz-adv-x="620" 
d="M358 344q106 0 170 -44.5t64 -123.5q0 -85 -69 -130.5t-198 -45.5h-2v-100h-23v100h-270v6q35 8 49 27.5t14 68.5v472q0 44 -14 62.5t-49 26.5v7h270v80h23v-80h1q236 0 236 -158q0 -72 -54.5 -115.5t-147.5 -49.5v-3zM235 648v-297h41q16 0 24 1v295q-8 1 -24 1h-41z
M410 504q0 115 -87 138v-285q87 23 87 147zM295 22h5v309h-13h-52v-309h60zM323 24q52 9 81 48.5t29 102.5q0 137 -110 153v-304z" />
    <glyph glyph-name="Wgrave" unicode="&#x1e80;" horiz-adv-x="1008" 
d="M502 750h-15l-168 103v7h120zM821 700h182v-6q-35 -7 -55 -31.5t-44 -85.5l-226 -587h-4l-170 433l-168 -433h-4l-236 599q-19 50 -38 74.5t-53 30.5v6h308v-6q-47 -9 -47 -52q0 -27 16 -68l123 -325l82 216l-50 127q-16 41 -28 61t-35 41v6h301v-6q-66 -8 -66 -62
q0 -19 11 -50l128 -333l122 325q12 29 12 56q0 57 -61 64v6z" />
    <glyph glyph-name="wgrave" unicode="&#x1e81;" horiz-adv-x="844" 
d="M468 567h-35l-149 128v5h125zM692 514h147v-6q-43 -16 -70 -82l-183 -436h-5l-157 353l-160 -353h-5l-180 436q-30 72 -74 82v6h262v-6q-36 -12 -36 -43q0 -15 13 -48l87 -224l79 183l-30 67q-23 56 -52 65v6h262v-6q-26 -2 -39 -14t-13 -29q0 -18 11 -46l92 -227l92 225
q11 28 11 47q0 17 -13 29.5t-39 14.5v6z" />
    <glyph glyph-name="Wacute" unicode="&#x1e82;" horiz-adv-x="1008" 
d="M685 853l-168 -103h-15l63 110h120v-7zM821 700h182v-6q-35 -7 -55 -31.5t-44 -85.5l-226 -587h-4l-170 433l-168 -433h-4l-236 599q-19 50 -38 74.5t-53 30.5v6h308v-6q-47 -9 -47 -52q0 -27 16 -68l123 -325l82 216l-50 127q-16 41 -28 61t-35 41v6h301v-6
q-66 -8 -66 -62q0 -19 11 -50l128 -333l122 325q12 29 12 56q0 57 -61 64v6z" />
    <glyph glyph-name="wacute" unicode="&#x1e83;" horiz-adv-x="844" 
d="M616 695l-149 -128h-35l59 133h125v-5zM692 514h147v-6q-43 -16 -70 -82l-183 -436h-5l-157 353l-160 -353h-5l-180 436q-30 72 -74 82v6h262v-6q-36 -12 -36 -43q0 -15 13 -48l87 -224l79 183l-30 67q-23 56 -52 65v6h262v-6q-26 -2 -39 -14t-13 -29q0 -18 11 -46
l92 -227l92 225q11 28 11 47q0 17 -13 29.5t-39 14.5v6z" />
    <glyph glyph-name="Wdieresis" unicode="&#x1e84;" horiz-adv-x="1008" 
d="M398 759q-24 0 -41 16.5t-17 40.5q0 25 17 41.5t41 16.5t40.5 -17t16.5 -41t-16.5 -40.5t-40.5 -16.5zM606 759q-24 0 -41 16.5t-17 40.5q0 25 17 41.5t41 16.5t40.5 -17t16.5 -41t-16.5 -40.5t-40.5 -16.5zM821 700h182v-6q-35 -7 -55 -31.5t-44 -85.5l-226 -587h-4
l-170 433l-168 -433h-4l-236 599q-19 50 -38 74.5t-53 30.5v6h308v-6q-47 -9 -47 -52q0 -27 16 -68l123 -325l82 216l-50 127q-16 41 -28 61t-35 41v6h301v-6q-66 -8 -66 -62q0 -19 11 -50l128 -333l122 325q12 29 12 56q0 57 -61 64v6z" />
    <glyph glyph-name="wdieresis" unicode="&#x1e85;" horiz-adv-x="844" 
d="M357 584q-28 0 -47 18.5t-19 47.5q0 28 19 46.5t47 18.5t46.5 -18.5t18.5 -46.5q0 -29 -18.5 -47.5t-46.5 -18.5zM542 584q-28 0 -47 18.5t-19 47.5q0 28 19 46.5t47 18.5t47 -18.5t19 -46.5q0 -29 -19 -47.5t-47 -18.5zM692 514h147v-6q-43 -16 -70 -82l-183 -436h-5
l-157 353l-160 -353h-5l-180 436q-30 72 -74 82v6h262v-6q-36 -12 -36 -43q0 -15 13 -48l87 -224l79 183l-30 67q-23 56 -52 65v6h262v-6q-26 -2 -39 -14t-13 -29q0 -18 11 -46l92 -227l92 225q11 28 11 47q0 17 -13 29.5t-39 14.5v6z" />
    <glyph glyph-name="Ygrave" unicode="&#x1ef2;" horiz-adv-x="674" 
d="M387 750l-168 103v7h120l63 -110h-15zM475 700h192v-6q-24 -3 -54 -31.5t-57 -77.5l-138 -255v-229q1 -46 23 -67t77 -28v-6h-365v6q57 7 78.5 29.5t21.5 73.5v218l-145 272q-48 89 -101 95v6h323v-6q-63 -9 -63 -62q0 -27 18 -60l117 -210l114 205q20 34 20 64
q0 54 -61 63v6z" />
    <glyph glyph-name="ygrave" unicode="&#x1ef3;" horiz-adv-x="543" 
d="M317 567l-149 128v5h125l59 -133h-35zM84 -215q-56 0 -101 27l38 127h5q19 -17 50 -27t58 -10q94 0 129 63l6 12l-189 446q-30 74 -74 85v6h276v-6q-52 -11 -52 -45q0 -23 10 -49l93 -247l95 237q11 26 11 49q0 46 -53 55v6h152v-6q-26 -8 -41.5 -28t-31.5 -64l-178 -454
q-38 -101 -87 -139t-116 -38z" />
    <glyph glyph-name="uni2003" unicode="&#x2003;" horiz-adv-x="600" 
 />
    <glyph glyph-name="uni2004" unicode="&#x2004;" horiz-adv-x="600" 
 />
    <glyph glyph-name="uni2005" unicode="&#x2005;" horiz-adv-x="600" 
 />
    <glyph glyph-name="uni2009" unicode="&#x2009;" horiz-adv-x="600" 
 />
    <glyph glyph-name="uni200A" unicode="&#x200a;" horiz-adv-x="600" 
 />
    <glyph glyph-name="endash" unicode="&#x2013;" horiz-adv-x="545" 
d="M35 288v35h475v-35h-475z" />
    <glyph glyph-name="emdash" unicode="&#x2014;" horiz-adv-x="810" 
d="M35 288v35h740v-35h-740z" />
    <glyph glyph-name="quoteleft" unicode="&#x2018;" horiz-adv-x="259" 
d="M184 728l6 -14q-36 -12 -56 -28t-24 -26t-4 -23q0 -39 47 -47q62 -10 62 -67q0 -29 -19 -49.5t-52 -20.5q-36 0 -63.5 29.5t-27.5 84.5q0 120 131 161z" />
    <glyph glyph-name="quoteright" unicode="&#x2019;" horiz-adv-x="259" 
d="M75 433l-7 15q37 12 57 28t24 26t4 23q0 38 -47 46q-27 4 -45 21t-18 47q0 29 19.5 49.5t51.5 20.5q37 0 64 -30t27 -84t-27 -96t-103 -66z" />
    <glyph glyph-name="quotesinglbase" unicode="&#x201a;" horiz-adv-x="259" 
d="M75 -171l-7 15q37 12 57 28t24 26t4 23q0 38 -47 46q-27 4 -45 21t-18 47q0 29 19.5 49.5t51.5 20.5q37 0 64 -30t27 -84t-27 -96t-103 -66z" />
    <glyph glyph-name="quotedblleft" unicode="&#x201c;" horiz-adv-x="449" 
d="M184 728l6 -14q-36 -12 -56 -28t-24 -26t-4 -23q0 -39 47 -47q62 -10 62 -67q0 -29 -19 -49.5t-52 -20.5q-36 0 -63.5 29.5t-27.5 84.5q0 120 131 161zM375 728l6 -14q-36 -12 -56 -28t-24 -26t-4 -23q0 -39 47 -47q62 -10 62 -67q0 -29 -19 -49.5t-52 -20.5
q-36 0 -63.5 29.5t-27.5 84.5q0 120 131 161z" />
    <glyph glyph-name="quotedblright" unicode="&#x201d;" horiz-adv-x="446" 
d="M75 433l-7 15q37 12 57 28t24 26t4 23q0 38 -47 46q-27 4 -45 21t-18 47q0 29 19.5 49.5t51.5 20.5q37 0 64 -30t27 -84t-27 -96t-103 -66zM262 433l-7 15q37 12 57 28t24 26t4 23q0 38 -47 46q-27 4 -45 21t-18 47q0 29 19.5 49.5t51.5 20.5q37 0 64 -30t27 -84t-27 -96
t-103 -66z" />
    <glyph glyph-name="quotedblbase" unicode="&#x201e;" horiz-adv-x="446" 
d="M85 -176l-7 15q37 12 57 28t24 26t4 23q0 38 -47 46q-27 4 -45 21t-18 47q0 29 19.5 49.5t51.5 20.5q37 0 64 -30t27 -84t-27 -96t-103 -66zM272 -176l-7 15q37 12 57 28t24 26t4 23q0 38 -47 46q-27 4 -45 21t-18 47q0 29 19.5 49.5t51.5 20.5q37 0 64 -30t27 -84
t-27 -96t-103 -66z" />
    <glyph glyph-name="dagger" unicode="&#x2020;" horiz-adv-x="474" 
d="M234 -85q-10 149 -32 221t-76 122v6q29 5 57 38.5t28 88.5v20q0 34 -14 48t-48 14h-8q-39 0 -64.5 -24.5t-31.5 -54.5h-5v207h5q6 -31 31.5 -55.5t64.5 -24.5h8q34 0 48 13.5t14 47.5v12q0 36 -24.5 59.5t-54.5 29.5v5h210v-5q-30 -6 -54.5 -29.5t-24.5 -59.5v-12
q0 -34 14 -47.5t48 -13.5h8q39 0 64.5 24.5t31.5 55.5h5v-207h-5q-6 30 -31.5 54.5t-64.5 24.5h-8q-34 0 -48 -14t-14 -48v-20q0 -55 27.5 -88.5t57.5 -38.5v-6q-54 -50 -76 -122.5t-32 -220.5h-6z" />
    <glyph glyph-name="daggerdbl" unicode="&#x2021;" horiz-adv-x="474" 
d="M132 -60v5q30 6 54.5 29.5t24.5 59.5v12q0 34 -14 47.5t-48 13.5h-8q-39 0 -64.5 -24.5t-31.5 -55.5h-5v207h5q6 -30 31.5 -54.5t64.5 -24.5h8q34 0 48 14t14 48q0 47 -32 69.5t-73 24.5v6q41 2 73 24.5t32 69.5q0 34 -14 48t-48 14h-8q-39 0 -64.5 -24.5t-31.5 -54.5h-5
v207h5q6 -31 31.5 -55.5t64.5 -24.5h8q34 0 48 13.5t14 47.5v12q0 36 -24.5 59.5t-54.5 29.5v5h210v-5q-30 -6 -54.5 -29.5t-24.5 -59.5v-12q0 -34 14 -47.5t48 -13.5h8q39 0 64.5 24.5t31.5 55.5h5v-207h-5q-6 30 -31.5 54.5t-64.5 24.5h-8q-34 0 -48 -14t-14 -48
q0 -47 32 -69.5t73 -24.5v-6q-41 -2 -73 -24.5t-32 -69.5q0 -34 14 -48t48 -14h8q39 0 64.5 24.5t31.5 54.5h5v-207h-5q-6 31 -31.5 55.5t-64.5 24.5h-8q-34 0 -48 -13.5t-14 -47.5v-12q0 -36 24.5 -59.5t54.5 -29.5v-5h-210z" />
    <glyph glyph-name="bullet" unicode="&#x2022;" horiz-adv-x="600" 
d="M300 217q-52 0 -87.5 36t-35.5 87q0 52 35.5 88t87.5 36t87.5 -36t35.5 -88q0 -51 -35.5 -87t-87.5 -36z" />
    <glyph glyph-name="ellipsis" unicode="&#x2026;" horiz-adv-x="698" 
d="M126 -14q-34 0 -58.5 24t-24.5 59q0 33 24.5 57.5t58.5 24.5t58 -24.5t24 -57.5q0 -34 -24 -58.5t-58 -24.5zM349 -14q-35 0 -59 24t-24 59q0 33 24.5 57.5t58.5 24.5t58 -24.5t24 -57.5q0 -34 -24 -58.5t-58 -24.5zM573 -14q-35 0 -59 24t-24 59q0 33 24.5 57.5
t58.5 24.5t58 -24.5t24 -57.5q0 -34 -24 -58.5t-58 -24.5z" />
    <glyph glyph-name="perthousand" unicode="&#x2030;" horiz-adv-x="1136" 
d="M148 -40l429 722h43l-427 -722h-45zM199 315q-73 0 -116 47t-43 126q0 78 43.5 125.5t115.5 47.5t115.5 -47.5t43.5 -125.5q0 -79 -43 -126t-116 -47zM199 333q64 0 64 155q0 154 -64 154q-63 0 -63 -154q0 -155 63 -155zM571 -20q-73 0 -116 47t-43 126q0 78 43.5 125.5
t115.5 47.5t115.5 -47.5t43.5 -125.5q0 -79 -43 -126t-116 -47zM937 -20q-73 0 -116 47t-43 126q0 78 43.5 125.5t115.5 47.5t115.5 -47.5t43.5 -125.5q0 -79 -43 -126t-116 -47zM571 -2q64 0 64 155q0 154 -64 154q-63 0 -63 -154q0 -155 63 -155zM937 -2q64 0 64 155
q0 154 -64 154q-63 0 -63 -154q0 -155 63 -155z" />
    <glyph glyph-name="guilsinglleft" unicode="&#x2039;" horiz-adv-x="319" 
d="M264 78l-218 201v4l218 201l8 -4l-123 -199l123 -199z" />
    <glyph glyph-name="guilsinglright" unicode="&#x203a;" horiz-adv-x="319" 
d="M55 78l-8 4l123 199l-123 199l8 4l218 -201v-4z" />
    <glyph glyph-name="fraction" unicode="&#x2044;" horiz-adv-x="82" 
d="M-195 -40l429 722h43l-427 -722h-45z" />
    <glyph glyph-name="Euro" unicode="&#x20ac;" horiz-adv-x="593" 
d="M392 104q113 0 147 107l8 -2q-16 -109 -71.5 -166.5t-146.5 -57.5q-113 0 -182 87t-74 234h-56v25h56q0 31 5 66h-61v25h65q23 121 98 192t183 71q106 0 193 -50l-52 -174l-7 1q-18 172 -155 172q-71 0 -113 -57.5t-44 -154.5h244v-25h-244q2 -38 7 -66h237v-25h-232
q21 -92 73 -147t122 -55z" />
    <glyph glyph-name="uni20B9" unicode="&#x20b9;" horiz-adv-x="520" 
d="M412 93q32 -74 90 -86v-7h-224q-19 31 -45 99l-53 116q-24 57 -43.5 76.5t-59.5 19.5h-44v22h39q122 0 130 144h-168v26h169q-2 71 -31 106.5t-96 35.5h-42v24l-1 1h450v-25h-210q108 -41 110 -142h100v-26h-102q-11 -63 -76 -106.5t-148 -43.5v-6q73 1 126 -30.5
t79 -91.5z" />
    <glyph glyph-name="uni20BA" unicode="&#x20ba;" horiz-adv-x="573" 
d="M327 265h226v-5q-19 -4 -25.5 -24t-6.5 -59q0 -88 -51.5 -132.5t-143.5 -44.5h-296v6q38 10 53.5 30.5t15.5 71.5v133l-64 -32v27l64 32v59l-64 -32v27l64 32v214q0 47 -15.5 67t-53.5 29v6h286v-6q-69 -17 -69 -96v-141l144 71v-27l-144 -71v-59l144 71v-27l-144 -71
v-290h24q53 0 81.5 39t28.5 112q0 36 -12 56t-42 29v5z" />
    <glyph glyph-name="uni20BD" unicode="&#x20bd;" horiz-adv-x="543" 
d="M275 288h-43v-76h190v-26h-190v-82q0 -50 18 -71t67 -27v-6h-287v6q32 8 45 28t13 69v83h-58v26h58v362q0 44 -13 63t-45 28v5h239q130 0 193 -46.5t63 -144.5q0 -92 -65 -141.5t-185 -49.5zM232 648v-338h24q55 0 88 45t33 124t-33 124t-88 45h-24z" />
    <glyph glyph-name="Bitcoin" unicode="&#x20bf;" horiz-adv-x="620" 
d="M592 176q0 -82 -63 -127t-182 -49v-100h-24v100h-66v-100h-23v100h-204v6q35 8 49 27.5t14 68.5v472q0 44 -14 62.5t-49 26.5v7h204v80h23v-80h66v80h24v-80q213 -9 213 -158q0 -72 -54.5 -115.5t-147.5 -49.5v-3q106 0 170 -44.5t64 -123.5zM410 504q0 144 -134 144h-41
v-297h41q134 0 134 153zM295 22q64 0 101 40.5t37 112.5q0 80 -36 118t-110 38h-52v-309h60z" />
    <glyph glyph-name="uni2113" unicode="&#x2113;" horiz-adv-x="569" 
d="M376 75q62 0 113 87l4 -2q-27 -93 -70 -133.5t-111 -40.5q-170 0 -189 224q-15 -6 -68 -26l-5 10q34 12 72 29q-1 13 -1 42q0 185 77.5 313t192.5 128q60 0 94 -36.5t34 -100.5q0 -166 -259 -298q10 -196 116 -196zM259 311v-4q144 120 144 296q0 38 -10 58.5t-27 20.5
q-41 0 -74 -118.5t-33 -252.5z" />
    <glyph glyph-name="uni2116" unicode="&#x2116;" horiz-adv-x="1100" 
d="M733 700v-6q-44 -8 -62.5 -33.5t-18.5 -76.5v-594h-5l-496 585v-453q0 -56 20.5 -80.5t70.5 -35.5v-6h-212v6q50 9 69 33.5t19 82.5v492q-46 52 -88 80v6h233l358 -413v297q0 52 -19 75t-73 35v6h204zM891 139q-84 0 -133 52.5t-49 133.5t49 133.5t133 52.5t132.5 -52.5
t48.5 -133.5q0 -82 -48.5 -134t-132.5 -52zM891 476q-83 0 -83 -151q0 -150 83 -150q82 0 82 150q0 151 -82 151zM728 0v52h326v-52h-326z" />
    <glyph glyph-name="trademark" unicode="&#x2122;" horiz-adv-x="809" 
d="M321 685h2v-144h-2q-8 40 -32.5 74.5t-52.5 34.5h-10v-273q0 -24 11 -37t38 -17v-3h-208v3q27 4 38 17t11 37v273h-10q-29 0 -53 -35t-32 -74h-3v144h3q14 -15 47 -15h207q32 0 46 15zM507 310l-123 295l-13 -212q-2 -25 4 -39.5t12.5 -18.5t25.5 -12v-3h-100v3
q21 10 28.5 23.5t9.5 47.5l13 223q2 35 -31 50v3h143l81 -191l80 191h135v-3q-34 -14 -31 -55l14 -237q3 -40 35 -52v-3h-185v3q17 8 28 28t10 44l-11 210l-122 -295h-3z" />
    <glyph glyph-name="uni2126" unicode="&#x2126;" horiz-adv-x="693" 
d="M540 97q76 0 89 69h5v-166h-259v170q62 17 90.5 89t28.5 171q0 74 -13.5 131.5t-48 96t-86.5 38.5q-76 0 -112 -75t-36 -191q0 -98 29 -170.5t91 -89.5v-170h-259v166h5q13 -69 89 -69h138v54q-118 23 -189.5 92.5t-71.5 186.5q0 131 91.5 210.5t224.5 79.5
q134 0 225.5 -79.5t91.5 -210.5q0 -117 -71.5 -186.5t-189.5 -92.5v-54h138z" />
    <glyph glyph-name="estimated" unicode="&#x212e;" horiz-adv-x="681" 
d="M342 13q151 0 226 104l17 -13q-40 -60 -104.5 -88t-138.5 -28q-136 0 -220 91t-84 228q0 138 85.5 230.5t218.5 92.5q137 0 218.5 -90t82.5 -236h-532v-173q79 -118 231 -118zM342 605q-153 0 -231 -122v-156h452v174q-77 104 -221 104z" />
    <glyph glyph-name="uni2153" unicode="&#x2153;" horiz-adv-x="787" 
d="M55 298v4q33 7 48 19.5t15 40.5v237q0 40 -36 40q-12 0 -28 -5l-3 6l170 69h6v-347q0 -49 63 -60v-4h-235zM140 -40l429 722h43l-427 -722h-45zM603 -9q-44 0 -81 18t-57 53l7 5q26 -37 70 -37q34 0 58 25.5t24 59.5q0 40 -20 63t-56 23h-13v11h14q35 0 58 24.5t23 61.5
q0 34 -17.5 54t-49.5 20q-54 0 -81 -61l-7 2q10 46 47 72t93 26q58 0 91.5 -25.5t33.5 -68.5t-29.5 -72t-79.5 -36v-4q47 0 78.5 -25.5t31.5 -70.5q0 -48 -37.5 -83t-100.5 -35z" />
    <glyph glyph-name="uni2154" unicode="&#x2154;" horiz-adv-x="845" 
d="M45 298v5l80 93q49 49 72.5 87t23.5 85q0 76 -67 76q-29 0 -54.5 -19t-35.5 -61h-5q4 58 39 101.5t109 43.5q61 0 93 -33t31 -78q-1 -52 -36 -92t-124 -96l-26 -21h132q53 0 69 32h5l-40 -123h-266zM198 -40l429 722h43l-427 -722h-45zM661 -9q-44 0 -81 18t-57 53l7 5
q26 -37 70 -37q34 0 58 25.5t24 59.5q0 40 -20 63t-56 23h-13v11h14q35 0 58 24.5t23 61.5q0 34 -17.5 54t-49.5 20q-54 0 -81 -61l-7 2q10 46 47 72t93 26q58 0 91.5 -25.5t33.5 -68.5t-29.5 -72t-79.5 -36v-4q47 0 78.5 -25.5t31.5 -70.5q0 -48 -37.5 -83t-100.5 -35z" />
    <glyph glyph-name="oneeighth" unicode="&#x215b;" horiz-adv-x="827" 
d="M55 302q33 7 48 19.5t15 40.5v237q0 40 -36 40q-12 0 -28 -5l-3 6l170 69h6v-347q0 -49 63 -60v-4h-235v4zM569 682h43l-427 -722h-45zM727 208q54 -31 54 -93q0 -54 -44 -89t-122 -35q-68 0 -110 28.5t-42 74.5q0 33 24 57t69 36l-23 15q-59 38 -59 98q0 52 39 81.5
t108 29.5q64 0 103.5 -25t39.5 -67q0 -30 -21.5 -52.5t-60.5 -29.5zM615 395q-49 0 -49 -47q0 -37 40 -62l58 -37q15 24 15 64q0 82 -64 82zM625 7q29 0 46 15.5t17 43.5q0 34 -31 53l-88 59q-19 -28 -19 -74t20 -71.5t55 -25.5z" />
    <glyph glyph-name="threeeighths" unicode="&#x215c;" horiz-adv-x="862" 
d="M324 407q0 -48 -37.5 -83t-100.5 -35q-44 0 -81 18t-57 53l7 5q26 -37 70 -37q34 0 58 25.5t24 59.5q0 40 -20 63t-56 23h-13v11h14q35 0 58 24.5t23 61.5q0 34 -17.5 54t-49.5 20q-54 0 -81 -61l-7 2q10 46 47 72t93 26q58 0 91.5 -25.5t33.5 -68.5t-29.5 -72t-79.5 -36
v-4q47 0 78.5 -25.5t31.5 -70.5zM604 682h43l-427 -722h-45zM762 208q54 -31 54 -93q0 -54 -44 -89t-122 -35q-68 0 -110 28.5t-42 74.5q0 33 24 57t69 36l-23 15q-59 38 -59 98q0 52 39 81.5t108 29.5q64 0 103.5 -25t39.5 -67q0 -30 -21.5 -52.5t-60.5 -29.5zM650 395
q-49 0 -49 -47q0 -37 40 -62l58 -37q15 24 15 64q0 82 -64 82zM660 7q29 0 46 15.5t17 43.5q0 34 -31 53l-88 59q-19 -28 -19 -74t20 -71.5t55 -25.5z" />
    <glyph glyph-name="fiveeighths" unicode="&#x215d;" horiz-adv-x="878" 
d="M321 423q0 -60 -44.5 -97t-112.5 -37q-94 0 -128 67l8 5q23 -39 72 -39q38 0 63.5 26.5t25.5 72.5q0 43 -20 68.5t-55 25.5q-28 0 -46 -13l-11 7l47 191h166q44 0 60 18h4l-32 -104h-203l-24 -95q35 23 95 23q62 0 98.5 -35.5t36.5 -83.5zM620 682h43l-427 -722h-45z
M778 208q54 -31 54 -93q0 -54 -44 -89t-122 -35q-68 0 -110 28.5t-42 74.5q0 33 24 57t69 36l-23 15q-59 38 -59 98q0 52 39 81.5t108 29.5q64 0 103.5 -25t39.5 -67q0 -30 -21.5 -52.5t-60.5 -29.5zM666 395q-49 0 -49 -47q0 -37 40 -62l58 -37q15 24 15 64q0 82 -64 82z
M676 7q29 0 46 15.5t17 43.5q0 34 -31 53l-88 59q-19 -28 -19 -74t20 -71.5t55 -25.5z" />
    <glyph glyph-name="arrowleft" unicode="&#x2190;" horiz-adv-x="793" 
d="M758 324v-36h-592l140 -155v-17l-259 190l259 190v-17l-140 -155h592z" />
    <glyph glyph-name="arrowup" unicode="&#x2191;" horiz-adv-x="466" 
d="M423 491h-17l-155 140v-671h-36v671l-155 -140h-17l190 259z" />
    <glyph glyph-name="arrowright" unicode="&#x2192;" horiz-adv-x="793" 
d="M487 116v17l140 155h-592v36h592l-140 155v17l259 -190z" />
    <glyph glyph-name="arrowdown" unicode="&#x2193;" horiz-adv-x="466" 
d="M406 219h17l-190 -259l-190 259h17l155 -140v671h36v-671z" />
    <glyph glyph-name="arrowboth" unicode="&#x2194;" horiz-adv-x="995" 
d="M692 116v17l140 155h-669l140 -155v-17l-259 190l259 190v-17l-140 -155h669l-140 155v17l259 -190z" />
    <glyph glyph-name="arrowupdn" unicode="&#x2195;" horiz-adv-x="466" 
d="M251 79l155 140h17l-190 -259l-190 259h17l155 -140v552l-155 -140h-17l190 259l190 -259h-17l-155 140v-552z" />
    <glyph glyph-name="uni2196" unicode="&#x2196;" horiz-adv-x="787" 
d="M744 25l-26 -25l-603 603l-11 -208l-13 -12l-48 317l317 -48l-12 -13l-207 -11z" />
    <glyph glyph-name="uni2197" unicode="&#x2197;" horiz-adv-x="787" 
d="M427 652l317 48l-48 -317l-13 12l-11 208l-603 -603l-26 25l603 603l-207 11z" />
    <glyph glyph-name="uni2198" unicode="&#x2198;" horiz-adv-x="787" 
d="M427 48l12 13l207 11l-603 603l26 25l603 -603l11 208l13 12l48 -317z" />
    <glyph glyph-name="uni2199" unicode="&#x2199;" horiz-adv-x="787" 
d="M141 72l207 -11l12 -13l-317 -48l48 317l13 -12l11 -208l603 603l26 -25z" />
    <glyph glyph-name="partialdiff" unicode="&#x2202;" horiz-adv-x="539" 
d="M300 715q99 0 154.5 -72t55.5 -209q0 -204 -88 -326.5t-228 -122.5q-78 0 -122 47.5t-44 125.5q0 77 30 136t79 93t104 51.5t114 19.5q-20 180 -130 180q-42 0 -76.5 -23t-68.5 -77l-4 2q73 175 224 175zM244 13q37 0 64.5 66.5t39 145.5t11.5 147q0 40 -3 75
q-69 -10 -123 -85.5t-54 -201.5q0 -147 65 -147z" />
    <glyph glyph-name="emptyset" unicode="&#x2205;" 
d="M538 584l-57 -52q57 -70 57 -166q0 -108 -69.5 -180t-178.5 -72q-111 0 -181 75l-57 -52l-9 11l56 52q-57 70 -57 166q0 108 69.5 180t178.5 72q111 0 182 -76l57 53zM85 366q0 -81 44 -139l313 288q-57 65 -152 65q-91 0 -148 -60.5t-57 -153.5zM495 366q0 80 -44 138
l-313 -288q59 -64 152 -64q91 0 148 60.5t57 153.5z" />
    <glyph glyph-name="uni2206" unicode="&#x2206;" horiz-adv-x="727" 
d="M9 0l-2 4l341 701h5l367 -701l-2 -4h-709zM48 25h484l-250 481z" />
    <glyph glyph-name="product" unicode="&#x220f;" horiz-adv-x="767" 
d="M737 694q-69 -17 -69 -96v-490q0 -85 69 -102v-6h-301v6q37 10 52.5 30.5t15.5 71.5v567h-242v-567q0 -85 69 -102v-6h-301v6q38 10 53.5 30.5t15.5 71.5v490q0 47 -15.5 67t-53.5 29v6h707v-6z" />
    <glyph glyph-name="summation" unicode="&#x2211;" horiz-adv-x="654" 
d="M612 51h5v-202h-584l-3 5l300 404l-291 438l2 4h546v-238h-5q-19 114 -65.5 166t-149.5 52h-139l212 -319v-4l-270 -365h376q52 0 66 59z" />
    <glyph glyph-name="minus" unicode="&#x2212;" 
d="M90 296v25h400v-25h-400z" />
    <glyph glyph-name="radical" unicode="&#x221a;" horiz-adv-x="813" 
d="M297 -15l-185 470h-107v15h121l175 -449l306 745h201v-15h-189l-316 -766h-6z" />
    <glyph glyph-name="infinity" unicode="&#x221e;" horiz-adv-x="615" 
d="M160 141q-55 0 -90 35.5t-35 87.5t35 87.5t90 35.5q43 0 76.5 -26.5t71.5 -75.5q38 49 71.5 75.5t76.5 26.5q55 0 89.5 -35.5t34.5 -87.5t-34.5 -87.5t-89.5 -35.5q-43 0 -77 26.5t-71 75.5q-37 -49 -71 -75.5t-77 -26.5zM160 165q25 0 49.5 15.5t40 32.5t42.5 51
q-27 34 -42.5 51t-40 32.5t-49.5 15.5q-38 0 -68 -25.5t-30 -73.5t30 -73.5t68 -25.5zM455 165q38 0 68 25.5t30 73.5t-30 73.5t-68 25.5q-25 0 -49.5 -15.5t-40 -32.5t-42.5 -51q27 -34 42.5 -51t40 -32.5t49.5 -15.5z" />
    <glyph glyph-name="integral" unicode="&#x222b;" horiz-adv-x="500" 
d="M62 -213q-80 0 -131 44l84 126l5 -1q13 -79 27.5 -113t37.5 -34q25 0 44 44t34 151l68 494q8 63 35 108.5t65 67.5t75 31.5t77 9.5q79 0 130 -44l-83 -126l-5 1q-13 79 -27.5 113t-37.5 34q-52 0 -78 -195l-68 -494q-7 -51 -26.5 -90.5t-45 -63t-58 -38t-62 -20
t-60.5 -5.5z" />
    <glyph glyph-name="approxequal" unicode="&#x2248;" 
d="M382 332q-61 0 -136.5 30.5t-119.5 30.5q-68 0 -100 -56l-7 2q29 95 139 95q44 0 119.5 -30.5t136.5 -30.5q68 0 100 56l7 -2q-29 -95 -139 -95zM372 172q-61 0 -136.5 30.5t-119.5 30.5q-68 0 -100 -56l-7 2q29 95 139 95q44 0 119.5 -30.5t136.5 -30.5q68 0 100 56
l7 -2q-29 -95 -139 -95z" />
    <glyph glyph-name="notequal" unicode="&#x2260;" 
d="M490 375h-155l-66 -134h221v-25h-234l-72 -147h-28l72 147h-137v25h150l66 134h-216v25h228l77 156h28l-77 -156h143v-25z" />
    <glyph glyph-name="lessequal" unicode="&#x2264;" 
d="M490 64l-400 201v24l400 201v-30l-365 -183l365 -183v-30zM90 0v25h400v-25h-400z" />
    <glyph glyph-name="greaterequal" unicode="&#x2265;" 
d="M89 64v30l365 183l-365 183v30l400 -201v-24zM489 0h-400v25h400v-25z" />
    <glyph glyph-name="uni2460" unicode="&#x2460;" horiz-adv-x="840" 
d="M420 -40q-173 0 -281.5 108t-108.5 282t108.5 282t281.5 108t281.5 -108t108.5 -282t-108.5 -282t-281.5 -108zM421 6q146 0 239 95.5t93 248.5t-93 248.5t-239 95.5t-239 -95.5t-93 -248.5t93 -248.5t239 -95.5zM316 171v4q30 7 43.5 18t13.5 36v216q0 36 -32 36
q-11 0 -26 -5l-3 6l155 63h5v-316q0 -44 58 -54v-4h-214z" />
    <glyph glyph-name="uni2461" unicode="&#x2461;" horiz-adv-x="840" 
d="M420 -40q-173 0 -281.5 108t-108.5 282t108.5 282t281.5 108t281.5 -108t108.5 -282t-108.5 -282t-281.5 -108zM421 6q146 0 239 95.5t93 248.5t-93 248.5t-239 95.5t-239 -95.5t-93 -248.5t93 -248.5t239 -95.5zM281 171v5l73 84q45 45 66 79.5t21 76.5q0 70 -61 70
q-26 0 -49 -17.5t-33 -55.5h-4q3 53 35 92.5t99 39.5q55 0 84.5 -30t28.5 -71q-1 -48 -33 -84.5t-113 -86.5l-23 -19h120q48 0 63 29h4l-36 -112h-242z" />
    <glyph glyph-name="uni2462" unicode="&#x2462;" horiz-adv-x="840" 
d="M420 -40q-173 0 -281.5 108t-108.5 282t108.5 282t281.5 108t281.5 -108t108.5 -282t-108.5 -282t-281.5 -108zM421 6q146 0 239 95.5t93 248.5t-93 248.5t-239 95.5t-239 -95.5t-93 -248.5t93 -248.5t239 -95.5zM420 163q-89 0 -125 64l6 5q23 -34 64 -34q30 0 52 23.5
t22 54.5q0 37 -18 57.5t-51 20.5h-12v10h13q32 0 53 22t21 56q0 31 -16 49t-45 18q-49 0 -74 -55l-6 2q9 42 43 65.5t84 23.5q52 0 83 -23.5t31 -62.5t-27 -65.5t-72 -32.5v-4q42 0 71 -23.5t29 -63.5q0 -44 -34.5 -75.5t-91.5 -31.5z" />
    <glyph glyph-name="uni2463" unicode="&#x2463;" horiz-adv-x="840" 
d="M420 740q173 0 281.5 -108t108.5 -282t-108.5 -282t-281.5 -108t-281.5 108t-108.5 282t108.5 282t281.5 108zM421 6q146 0 239 95.5t93 248.5t-93 248.5t-239 95.5t-239 -95.5t-93 -248.5t93 -248.5t239 -95.5zM496 537v-234h63v-24h-63v-46q0 -45 35 -58v-3h-186v3
q29 5 41 18t12 40v46h-140v19l196 239h42zM280 303h118v142z" />
    <glyph glyph-name="uni2464" unicode="&#x2464;" horiz-adv-x="840" 
d="M420 -40q-173 0 -281.5 108t-108.5 282t108.5 282t281.5 108t281.5 -108t108.5 -282t-108.5 -282t-281.5 -108zM421 6q146 0 239 95.5t93 248.5t-93 248.5t-239 95.5t-239 -95.5t-93 -248.5t93 -248.5t239 -95.5zM394 165q-86 0 -116 61l7 4q22 -35 65 -35q35 0 58 24
t23 66q0 40 -18 62.5t-50 22.5q-27 0 -42 -12l-10 7l43 173h151q40 0 55 17h3l-29 -95h-184l-22 -86q32 21 86 21q56 0 89.5 -32t33.5 -76q0 -55 -40.5 -88.5t-102.5 -33.5z" />
    <glyph glyph-name="uni2465" unicode="&#x2465;" horiz-adv-x="840" 
d="M420 740q173 0 281.5 -108t108.5 -282t-108.5 -282t-281.5 -108t-281.5 108t-108.5 282t108.5 282t281.5 108zM421 6q146 0 239 95.5t93 248.5t-93 248.5t-239 95.5t-239 -95.5t-93 -248.5t93 -248.5t239 -95.5zM507 535q-70 0 -101.5 -41.5t-37.5 -124.5q32 32 81 32
q45 0 73 -29.5t28 -80.5q0 -54 -37.5 -88.5t-100.5 -34.5q-65 0 -105.5 44t-40.5 118q0 92 64 156t161 64q29 0 62 -10l-4 -10q-17 5 -42 5zM394 367q-14 0 -26 -9q-1 -11 -1 -34q0 -143 45 -143q38 0 38 88q0 98 -56 98z" />
    <glyph glyph-name="uni2466" unicode="&#x2466;" horiz-adv-x="840" 
d="M420 -40q-173 0 -281.5 108t-108.5 282t108.5 282t281.5 108t281.5 -108t108.5 -282t-108.5 -282t-281.5 -108zM421 6q146 0 239 95.5t93 248.5t-93 248.5t-239 95.5t-239 -95.5t-93 -248.5t93 -248.5t239 -95.5zM331 169q17 160 159 287h-142q-39 0 -54 -17h-4l31 95
h242v-6q-76 -103 -99 -174t-23 -185h-110z" />
    <glyph glyph-name="uni2467" unicode="&#x2467;" horiz-adv-x="840" 
d="M420 740q173 0 281.5 -108t108.5 -282t-108.5 -282t-281.5 -108t-281.5 108t-108.5 282t108.5 282t281.5 108zM421 6q146 0 239 95.5t93 248.5t-93 248.5t-239 95.5t-239 -95.5t-93 -248.5t93 -248.5t239 -95.5zM516 360q49 -28 49 -84q0 -50 -40 -81.5t-111 -31.5
q-62 0 -100 25.5t-38 67.5q0 64 84 85l-21 14q-53 34 -53 89q0 47 35.5 74t97.5 27q59 0 94.5 -23t35.5 -61q0 -28 -19.5 -48t-54.5 -27zM414 530q-45 0 -45 -43q0 -34 37 -56l53 -34q13 22 13 59q0 74 -58 74zM423 177q27 0 42 14t15 40q0 30 -28 48l-79 53
q-18 -26 -18 -66q0 -42 18 -65.5t50 -23.5z" />
    <glyph glyph-name="uni2468" unicode="&#x2468;" horiz-adv-x="840" 
d="M420 740q173 0 281.5 -108t108.5 -282t-108.5 -282t-281.5 -108t-281.5 108t-108.5 282t108.5 282t281.5 108zM421 6q146 0 239 95.5t93 248.5t-93 248.5t-239 95.5t-239 -95.5t-93 -248.5t93 -248.5t239 -95.5zM434 543q65 0 105.5 -44.5t40.5 -117.5q0 -93 -64 -156.5
t-161 -63.5q-37 0 -62 10l4 10q15 -6 42 -6q71 0 102 42t37 125q-33 -33 -81 -33q-45 0 -73 29.5t-28 81.5q0 53 37.5 88t100.5 35zM452 344q16 0 26 9q1 10 1 33q0 144 -45 144q-38 0 -38 -88q0 -98 56 -98z" />
    <glyph glyph-name="uni24EA" unicode="&#x24ea;" horiz-adv-x="840" 
d="M420 -40q-173 0 -281.5 108t-108.5 282t108.5 282t281.5 108t281.5 -108t108.5 -282t-108.5 -282t-281.5 -108zM421 6q146 0 239 95.5t93 248.5t-93 248.5t-239 95.5t-239 -95.5t-93 -248.5t93 -248.5t239 -95.5zM421 163q-63 0 -105 49.5t-42 141.5t42 141.5t105 49.5
t104 -49.5t41 -141.5t-41 -141.5t-104 -49.5zM421 184q25 0 33.5 34.5t8.5 135.5q0 100 -8.5 135t-33.5 35q-26 0 -34 -34.5t-8 -135.5q0 -102 8 -136t34 -34z" />
    <glyph glyph-name="uni24FF" unicode="&#x24ff;" horiz-adv-x="840" 
d="M420 -40q-173 0 -281.5 108t-108.5 282t108.5 282t281.5 108t281.5 -108t108.5 -282t-108.5 -282t-281.5 -108zM420 163q63 0 104.5 49.5t41.5 141.5t-41.5 141.5t-104.5 49.5t-104.5 -49.5t-41.5 -141.5t41.5 -141.5t104.5 -49.5zM420 184q-25 0 -33.5 34.5t-8.5 135.5
t8.5 135.5t33.5 34.5t33.5 -34.5t8.5 -135.5t-8.5 -135.5t-33.5 -34.5z" />
    <glyph glyph-name="lozenge" unicode="&#x25ca;" horiz-adv-x="541" 
d="M269 -16l-264 366v4l262 361h5l264 -366v-4l-262 -361h-5zM333 113l108 148l-234 325l-107 -149z" />
    <glyph glyph-name="circle" unicode="&#x25cb;" horiz-adv-x="840" 
d="M420 -40q-173 0 -281.5 108t-108.5 282t108.5 282t281.5 108t281.5 -108t108.5 -282t-108.5 -282t-281.5 -108zM421 6q146 0 239 95.5t93 248.5t-93 248.5t-239 95.5t-239 -95.5t-93 -248.5t93 -248.5t239 -95.5z" />
    <glyph glyph-name="uni25CF" unicode="&#x25cf;" horiz-adv-x="840" 
d="M420 -40q-173 0 -281.5 108t-108.5 282t108.5 282t281.5 108t281.5 -108t108.5 -282t-108.5 -282t-281.5 -108z" />
    <glyph glyph-name="uni2776" unicode="&#x2776;" horiz-adv-x="840" 
d="M420 -40q-173 0 -281.5 108t-108.5 282t108.5 282t281.5 108t281.5 -108t108.5 -282t-108.5 -282t-281.5 -108zM315 171h214v4q-58 10 -58 54v316h-5l-155 -63l3 -6q15 5 26 5q33 0 33 -37v-215q0 -25 -14 -36t-44 -18v-4z" />
    <glyph glyph-name="uni2777" unicode="&#x2777;" horiz-adv-x="840" 
d="M420 -40q-173 0 -281.5 108t-108.5 282t108.5 282t281.5 108t281.5 -108t108.5 -282t-108.5 -282t-281.5 -108zM281 171h242l36 112h-5q-14 -29 -62 -29h-120l23 19q81 50 113 86.5t33 84.5q1 41 -28.5 71t-84.5 30q-67 0 -99 -39.5t-36 -92.5l5 -1q10 39 33 56.5
t49 17.5q61 0 61 -70q0 -43 -21 -76.5t-66 -79.5l-73 -85v-4z" />
    <glyph glyph-name="uni2778" unicode="&#x2778;" horiz-adv-x="840" 
d="M420 -40q-173 0 -281.5 108t-108.5 282t108.5 282t281.5 108t281.5 -108t108.5 -282t-108.5 -282t-281.5 -108zM413 163q57 0 91.5 31.5t34.5 75.5q0 40 -29 63.5t-72 24.5v3q45 7 72.5 33t27.5 65t-31 62.5t-83 23.5q-50 0 -83.5 -23.5t-43.5 -65.5l6 -2q24 55 73 55
q30 0 45.5 -18t15.5 -49q0 -34 -20.5 -56.5t-52.5 -22.5h-13v-9h12q33 0 51 -20.5t18 -57.5q0 -31 -22 -54.5t-53 -23.5q-39 0 -63 33l-6 -3q35 -65 125 -65z" />
    <glyph glyph-name="uni2779" unicode="&#x2779;" horiz-adv-x="840" 
d="M420 -40q-173 0 -281.5 108t-108.5 282t108.5 282t281.5 108t281.5 -108t108.5 -282t-108.5 -282t-281.5 -108zM328 172h187v3q-16 5 -26 21t-10 37v46h63v23h-63v235h-42l-196 -239v-19h140v-46q0 -27 -12.5 -40.5t-40.5 -17.5v-3zM263 303l118 141v-141h-118z" />
    <glyph glyph-name="uni277A" unicode="&#x277a;" horiz-adv-x="840" 
d="M420 -40q-173 0 -281.5 108t-108.5 282t108.5 282t281.5 108t281.5 -108t108.5 -282t-108.5 -282t-281.5 -108zM383 165q62 0 102.5 33.5t40.5 88.5q0 44 -33 76t-90 32q-52 0 -86 -21l22 86h184l29 95h-3q-15 -17 -55 -17h-151l-42 -174l9 -6q19 12 42 12q32 0 50.5 -23
t18.5 -62q0 -42 -23 -66.5t-59 -24.5q-43 0 -65 36l-7 -5q32 -60 116 -60z" />
    <glyph glyph-name="uni277B" unicode="&#x277b;" horiz-adv-x="840" 
d="M420 740q173 0 281.5 -108t108.5 -282t-108.5 -282t-281.5 -108t-281.5 108t-108.5 282t108.5 282t281.5 108zM538 530l4 9q-25 10 -63 10q-97 0 -160.5 -63.5t-63.5 -156.5q0 -73 40.5 -117.5t105.5 -44.5q62 0 99.5 35t37.5 88q0 52 -27.5 81.5t-73.5 29.5
q-48 0 -81 -33q6 83 38 125t102 42q24 0 42 -5zM340 341l8 18q6 6 8 9v-11q-9 -6 -16 -16zM400 180q-45 0 -45 143q0 23 1 34q12 9 27 9q55 0 55 -98q0 -88 -38 -88z" />
    <glyph glyph-name="uni277C" unicode="&#x277c;" horiz-adv-x="840" 
d="M420 -40q-173 0 -281.5 108t-108.5 282t108.5 282t281.5 108t281.5 -108t108.5 -282t-108.5 -282t-281.5 -108zM316 169h110q0 114 23.5 185t98.5 174v6h-242l-31 -95h3q16 17 56 17h141q-142 -127 -159 -287z" />
    <glyph glyph-name="uni277D" unicode="&#x277d;" horiz-adv-x="840" 
d="M420 -40q-173 0 -281.5 108t-108.5 282t108.5 282t281.5 108t281.5 -108t108.5 -282t-108.5 -282t-281.5 -108zM414 163q70 0 110.5 32t40.5 81q0 54 -50 84l-39 26q34 7 53 27.5t19 47.5q0 38 -35 61t-94 23q-62 0 -98 -27t-36 -74q0 -54 54 -89l21 -15q-85 -20 -85 -84
q0 -42 38.5 -67.5t100.5 -25.5zM455 400l-50 31q-36 22 -36 56q0 42 45 42q58 0 58 -73q0 -34 -17 -56zM422 177q-31 0 -49 23.5t-18 64.5q0 43 21 64l75 -49q29 -19 29 -49q0 -25 -15.5 -39.5t-42.5 -14.5z" />
    <glyph glyph-name="uni277E" unicode="&#x277e;" horiz-adv-x="840" 
d="M420 -40q-173 0 -281.5 108t-108.5 282t108.5 282t281.5 108t281.5 -108t108.5 -282t-108.5 -282t-281.5 -108zM357 160q96 0 160 64t64 157q0 73 -41 117t-105 44q-62 0 -99.5 -34.5t-37.5 -87.5q0 -52 27.5 -81.5t73.5 -29.5q45 0 81 33q-5 -83 -37 -125t-103 -42
q-24 0 -42 5l-4 -9q28 -11 63 -11zM452 343q-54 0 -54 99q0 88 38 88q44 0 44 -170q-10 -17 -28 -17z" />
    <glyph glyph-name="uniF8FF" unicode="&#xf8ff;" horiz-adv-x="662" 
d="M460 479q182 -89 182 -256q0 -132 -93 -215.5t-241 -83.5q-128 0 -208 58t-80 150q0 70 46 111t126 41q89 0 152.5 -50t63.5 -120q0 -45 -27.5 -72.5t-72.5 -27.5q-43 0 -70.5 27.5t-27.5 69.5q0 38 28 64.5t68 26.5q22 0 40 -6q-39 52 -114 52q-51 0 -81 -31.5
t-30 -86.5q0 -77 58 -127t147 -50q82 0 132.5 41t50.5 106q0 93 -129 156l-152 74q-153 75 -153 211q0 99 75.5 161t196.5 62q68 0 142.5 -17.5t121.5 -44.5l-72 -194h-5q-22 93 -93 156t-154 63q-43 0 -67 -18t-24 -49q0 -28 23.5 -52t77.5 -50z" />
    <glyph glyph-name="bar.case" horiz-adv-x="166" 
d="M100 760v-854h-34v854h34z" />
    <glyph glyph-name="brokenbar.case" horiz-adv-x="166" 
d="M100 760v-362h-34v362h34zM66 -94v392h34v-392h-34z" />
    <glyph glyph-name="parenleft.case" horiz-adv-x="327" 
d="M317 -117q-48 19 -94 56t-88.5 91.5t-68.5 133.5t-26 169t26 169t68.5 133.5t88.5 91.5t94 56l4 -4q-78 -58 -123 -181.5t-45 -264.5t45 -264.5t123 -181.5z" />
    <glyph glyph-name="parenright.case" horiz-adv-x="327" 
d="M10 783q48 -19 94 -56t88.5 -91.5t68.5 -133.5t26 -169t-26 -169t-68.5 -133.5t-88.5 -91.5t-94 -56l-4 4q78 58 123 181.5t45 264.5t-45 264.5t-123 181.5z" />
    <glyph glyph-name="hyphen.case" horiz-adv-x="357" 
d="M35 330v51h287v-51h-287z" />
    <glyph glyph-name="bracketleft.case" horiz-adv-x="263" 
d="M253 755q-22 -2 -35 -5t-28 -10t-22.5 -21.5t-7.5 -36.5v-698q0 -22 7.5 -36.5t22.5 -21.5t28 -10t35 -5v-5h-187v854h187v-5z" />
    <glyph glyph-name="bracketright.case" horiz-adv-x="263" 
d="M10 755v5h187v-854h-187v5q22 2 35 5t28 10t22.5 21.5t7.5 36.5v698q0 22 -7.5 36.5t-22.5 21.5t-28 10t-35 5z" />
    <glyph glyph-name="braceleft.case" horiz-adv-x="306" 
d="M294 -107q-90 5 -144 55t-54 128v156q0 74 -63 104v5q63 30 63 108v141q0 78 54 128t144 55v-5q-44 -11 -71 -56.5t-27 -106.5v-133q0 -74 -61 -108q61 -34 61 -108v-195q0 -61 27 -106t71 -57v-5z" />
    <glyph glyph-name="braceright.case" horiz-adv-x="306" 
d="M12 -107v5q44 11 71 56.5t27 106.5v169q0 74 61 108q-61 34 -61 108v159q0 60 -27.5 106t-70.5 57v5q95 -5 146.5 -56.5t51.5 -126.5v-120q0 -74 63 -104v-5q-63 -30 -63 -108v-177q0 -75 -51.5 -126.5t-146.5 -56.5z" />
    <glyph glyph-name="endash.case" horiz-adv-x="545" 
d="M35 338v35h475v-35h-475z" />
    <glyph glyph-name="emdash.case" horiz-adv-x="810" 
d="M35 338v35h740v-35h-740z" />
    <glyph glyph-name="guilsinglleft.case" horiz-adv-x="319" 
d="M264 108l-218 201v4l218 201l8 -4l-123 -199l123 -199z" />
    <glyph glyph-name="guilsinglright.case" horiz-adv-x="319" 
d="M55 108l-8 4l123 199l-123 199l8 4l218 -201v-4z" />
    <glyph glyph-name="exclamdown.case" horiz-adv-x="306" 
d="M154 713q34 0 58 -24.5t24 -58.5q0 -33 -24 -57.5t-58 -24.5t-58.5 24.5t-24.5 57.5q0 34 24.5 58.5t58.5 24.5zM143 482h20l72 -377q4 -22 4 -38q0 -41 -24.5 -64t-61.5 -23q-38 0 -62 23t-24 64q0 23 4 38z" />
    <glyph glyph-name="questiondown.case" horiz-adv-x="417" 
d="M257 715q35 0 59 -24.5t24 -58.5q0 -33 -24.5 -57.5t-58.5 -24.5t-58 24.5t-24 57.5q0 34 24 58.5t58 24.5zM269 484l-1 -31q0 -34 -9.5 -55t-33.5 -50q-64 -76 -64 -159q0 -62 36 -99.5t94 -37.5q97 0 127 79l7 -2q-14 -69 -68 -109t-142 -40q-84 0 -138 48.5t-54 123.5
q0 123 136 196q48 27 67.5 53.5t19.5 66.5v16h23z" />
    <glyph glyph-name="a.sc" horiz-adv-x="617" 
d="M536 88q12 -35 27 -54.5t40 -28.5v-5h-271v5q59 24 30 112l-29 84h-178l-36 -102q-23 -72 38 -94v-5h-142v5q26 9 42 31.5t32 66.5l159 451h121zM163 224h163l-81 237z" />
    <glyph glyph-name="b.sc" horiz-adv-x="571" 
d="M344 284q91 1 143.5 -35.5t52.5 -101.5q0 -147 -231 -147h-275v5q30 10 41.5 28.5t11.5 54.5v381q0 36 -11 52.5t-42 27.5v5h279q198 0 198 -130q0 -60 -43.5 -95.5t-123.5 -40.5v-4zM262 532h-24v-240h25q90 0 90 123q0 117 -91 117zM275 22q44 0 70 33.5t26 90.5
q0 67 -25.5 97.5t-79.5 30.5h-28v-252h37z" />
    <glyph glyph-name="c.sc" horiz-adv-x="540" 
d="M279 -16q-112 0 -179.5 73.5t-67.5 202.5q0 135 79.5 222t202.5 87q106 0 192 -44l-56 -181l-4 1q-23 169 -158 169q-63 0 -100 -48.5t-37 -130.5q0 -101 58 -165t151 -64q109 0 138 78l6 -3q-44 -197 -225 -197z" />
    <glyph glyph-name="d.sc" horiz-adv-x="606" 
d="M288 554q132 0 209 -74.5t77 -200.5q0 -134 -81 -206.5t-203 -72.5h-256v5q28 9 40.5 26.5t12.5 56.5v381q0 39 -12 55t-41 25v5h254zM255 22q55 0 86.5 16.5t50.5 71t19 156.5q0 81 -10.5 134.5t-32 81.5t-48 39t-65.5 11h-17v-510h17z" />
    <glyph glyph-name="e.sc" horiz-adv-x="516" 
d="M475 218h4l-21 -218h-424v5q30 10 41.5 28.5t11.5 54.5v381q0 36 -11 52.5t-42 27.5v5h415l14 -194h-5q-22 82 -71.5 127t-114.5 45h-34v-237h19q45 0 77.5 24.5t46.5 69.5h4v-218h-4q-31 101 -124 101h-19v-250h34q75 0 122.5 46t80.5 150z" />
    <glyph glyph-name="f.sc" horiz-adv-x="486" 
d="M444 554l19 -194h-5q-22 83 -73 127.5t-117 44.5h-30v-245h22q41 0 74.5 28t46.5 72h4v-218h-4q-13 45 -47 72.5t-74 27.5h-22v-181q0 -39 18 -58.5t60 -24.5v-5h-281v4q29 10 40.5 26t11.5 45v394q0 35 -11 52t-42 28v5h410z" />
    <glyph glyph-name="g.sc" horiz-adv-x="603" 
d="M317 -13q-131 0 -208 77t-77 207q0 137 88 219t235 82q96 0 182 -43l-51 -162h-4q-12 170 -137 170q-70 0 -106.5 -59t-36.5 -171q0 -125 41.5 -209.5t104.5 -87.5q28 0 38 13v147q0 41 -15.5 61t-55.5 28v4h268v-4q-53 -22 -53 -79v-134q-38 -27 -96 -43t-117 -16z" />
    <glyph glyph-name="h.sc" horiz-adv-x="651" 
d="M617 549q-30 -10 -41 -28t-11 -53v-382q0 -36 11 -53.5t41 -27.5v-5h-257v5q30 10 41.5 27.5t11.5 53.5v185h-175v-185q0 -36 11.5 -53.5t41.5 -27.5v-5h-257v5q30 10 41 27.5t11 53.5v382q0 35 -11 53t-41 28v5h257v-5q-30 -10 -41.5 -27.5t-11.5 -53.5v-174h175v174
q0 36 -11.5 53.5t-41.5 27.5v5h257v-5z" />
    <glyph glyph-name="i.sc" horiz-adv-x="325" 
d="M291 549q-30 -10 -41.5 -28t-11.5 -53v-382q0 -36 11.5 -53.5t41.5 -27.5v-5h-257v5q30 10 41.5 27.5t11.5 53.5v382q0 35 -11.5 53t-41.5 28v5h257v-5z" />
    <glyph glyph-name="j.sc" horiz-adv-x="317" 
d="M302 554v-5q-29 -10 -41 -26t-12 -54v-368q0 -76 -46.5 -119t-123.5 -43q-53 0 -80 24l6 7q15 -10 36 -10q57 0 57 70v439q0 38 -12 54t-41 26v5h257z" />
    <glyph glyph-name="k.sc" horiz-adv-x="655" 
d="M291 549q-28 -9 -40.5 -27t-12.5 -53v-381q0 -66 53 -83v-5h-257v5q31 10 42 27.5t11 55.5v381q0 36 -11 52.5t-42 27.5v5h257v-5zM422 0l-184 282l157 150q24 24 33.5 37.5t9.5 29.5q0 42 -66 50v5h224v-5q-65 -16 -138 -86l-100 -97l199 -280q33 -46 47 -60.5t37 -20.5
v-5h-219z" />
    <glyph glyph-name="l.sc" horiz-adv-x="479" 
d="M450 235h6l-25 -235h-397v5q28 9 40.5 26.5t12.5 56.5v381q0 39 -12 55t-41 25v5h257v-5q-28 -9 -40.5 -25.5t-12.5 -54.5v-447h22q63 0 113 55.5t77 157.5z" />
    <glyph glyph-name="m.sc" horiz-adv-x="763" 
d="M320 -16l-192 477l-21 -349q-3 -49 10.5 -70t59.5 -37v-5h-157v5q33 11 44.5 32t14.5 75l21 356q3 62 -50 81v5h204l134 -335l135 335h193v-5q-54 -19 -50 -86l20 -377q5 -65 57 -81v-5h-268v5q63 24 59 108l-17 349l-193 -478h-4z" />
    <glyph glyph-name="n.sc" horiz-adv-x="629" 
d="M448 554h159v-5q-34 -7 -48 -27t-14 -59v-478h-4l-404 463v-354q0 -39 15 -58.5t55 -30.5v-5h-167v5q40 8 54.5 27.5t14.5 61.5v385q-43 47 -75 70v5h211l273 -301v210q0 36 -12.5 55t-57.5 31v5z" />
    <glyph glyph-name="o.sc" horiz-adv-x="655" 
d="M328 -16q-132 0 -214 81t-82 212t81.5 211.5t214.5 80.5q132 0 213.5 -80.5t81.5 -211.5t-82 -212t-213 -81zM328 15q65 0 95.5 62.5t30.5 199.5q0 136 -30.5 199t-95.5 63t-95.5 -62.5t-30.5 -199.5q0 -136 30.5 -199t95.5 -63z" />
    <glyph glyph-name="p.sc" horiz-adv-x="544" 
d="M291 233h-53v-145q0 -39 18 -58.5t60 -24.5v-5h-282v5q30 10 41.5 28.5t11.5 54.5v381q0 36 -11 52.5t-42 27.5v5h257q111 0 170.5 -41.5t59.5 -118.5q0 -78 -59 -119.5t-171 -41.5zM264 532h-26v-277h26q45 0 73 39.5t28 99.5t-28 99t-73 39z" />
    <glyph glyph-name="q.sc" horiz-adv-x="655" 
d="M673 -174q-158 0 -300.5 62.5t-259.5 179.5q-81 81 -81 209q0 131 81.5 211.5t214.5 80.5q132 0 213.5 -80.5t81.5 -211.5q0 -114 -63 -191t-177 -98q170 -110 401 -110q120 0 177 30l5 -6q-99 -76 -293 -76zM328 15q65 0 95.5 62.5t30.5 199.5q0 136 -30.5 199t-95.5 63
t-95.5 -62.5t-30.5 -199.5q0 -136 30.5 -199t95.5 -63z" />
    <glyph glyph-name="r.sc" horiz-adv-x="621" 
d="M543 69q21 -54 64 -64v-5h-197q-14 24 -33 75l-42 121q-15 40 -29.5 56t-43.5 16h-24v-180q0 -68 53 -83v-5h-257v5q28 9 40.5 26.5t12.5 56.5v381q0 39 -12 55t-41 25v5h250q231 0 231 -136q0 -57 -54 -96.5t-128 -39.5v-6q62 2 106 -23.5t63 -73.5zM258 287
q43 0 66.5 33t23.5 95q0 117 -86 117h-24v-245h20z" />
    <glyph glyph-name="s.sc" horiz-adv-x="477" 
d="M237 -12q-121 0 -211 48l43 152h4q17 -75 70 -121t123 -46q39 0 63 19.5t24 51.5q0 27 -15 45t-50 34l-124 57q-120 55 -120 165q0 81 57 128.5t153 47.5q104 0 195 -47l-50 -134h-4q-19 69 -65 109t-106 40q-39 0 -63 -17t-24 -45q0 -46 65 -75l129 -61q61 -28 88 -65.5
t27 -94.5q0 -84 -58.5 -137.5t-150.5 -53.5z" />
    <glyph glyph-name="t.sc" horiz-adv-x="503" 
d="M480 576h4v-221h-5q-11 71 -48 121t-88 50h-16v-438q0 -39 17.5 -58t59.5 -25v-5h-306v5q42 5 60 24t18 59v438h-18q-48 0 -85.5 -49.5t-48.5 -121.5h-5v221h4q19 -22 69 -22h318q49 0 70 22z" />
    <glyph glyph-name="u.sc" horiz-adv-x="574" 
d="M559 554v-5q-30 -10 -42 -28t-12 -55v-253q0 -111 -54 -170t-157 -59q-110 0 -168 58.5t-58 170.5v256q0 36 -11 53t-42 27v5h271v-5q-37 -12 -51.5 -31.5t-14.5 -57.5v-250q0 -80 32.5 -121.5t94.5 -41.5q63 0 96 41.5t33 121.5v247q0 39 -16 59.5t-55 32.5v5h154z" />
    <glyph glyph-name="v.sc" horiz-adv-x="603" 
d="M299 -8l-210 474q-17 39 -32.5 58.5t-42.5 24.5v5h288v-5q-54 -7 -54 -52q0 -19 10 -43l112 -244l106 242q11 25 11 45q0 22 -13 35.5t-33 16.5v5h148v-5q-30 -7 -47 -27.5t-36 -66.5l-203 -463h-4z" />
    <glyph glyph-name="w.sc" horiz-adv-x="840" 
d="M682 554h144v-5q-28 -7 -43.5 -25.5t-35.5 -67.5l-187 -464h-4l-137 334l-135 -334h-3l-194 473q-15 39 -30.5 59t-42.5 25v5h263v-5q-32 -8 -32 -40q0 -26 13 -56l93 -228l55 135l-44 107q-22 54 -50 82v5h262v-5q-52 -7 -52 -52q0 -18 10 -42l93 -230l92 228
q10 23 10 43q0 22 -12 36t-33 17v5z" />
    <glyph glyph-name="x.sc" horiz-adv-x="656" 
d="M552 85q25 -36 44.5 -54t45.5 -26v-5h-299v5q40 13 40 51q0 21 -33 71l-68 98l-73 -97q-38 -49 -38 -72q0 -38 42 -51v-5h-195v5q79 20 134 92l113 153l-151 218q-47 68 -98 81v5h309v-5q-43 -6 -43 -44q0 -24 36 -77l62 -91l67 91q38 51 38 76q0 39 -47 45v5h175v-5
q-52 -15 -115 -99l-101 -138z" />
    <glyph glyph-name="y.sc" horiz-adv-x="569" 
d="M399 554h155v-5q-18 -3 -42.5 -28.5t-45.5 -62.5l-107 -193v-177q0 -40 18.5 -59t58.5 -24v-5h-306v5q42 5 60 24t18 59v173l-114 212q-37 72 -79 76v5h278v-5q-49 -8 -49 -54q0 -21 15 -49l87 -153l86 151q16 29 16 51q0 46 -49 54v5z" />
    <glyph glyph-name="z.sc" horiz-adv-x="526" 
d="M24 0v4l298 526h-45q-93 0 -141.5 -50t-84.5 -150h-5l22 224h430v-4l-294 -526h48q50 0 92 20t70.5 53.5t47 68t29.5 71.5h5l-25 -237h-447z" />
    <glyph glyph-name="aacute.sc" horiz-adv-x="617" 
d="M469 696l-144 -106h-34l60 110h118v-4zM536 88q12 -35 27 -54.5t40 -28.5v-5h-271v5q59 24 30 112l-29 84h-178l-36 -102q-23 -72 38 -94v-5h-142v5q26 9 42 31.5t32 66.5l159 451h121zM163 224h163l-81 237z" />
    <glyph glyph-name="abreve.sc" horiz-adv-x="617" 
d="M309 592q-49 0 -80.5 28.5t-31.5 79.5h25q4 -54 87 -54q82 0 86 54h25q0 -51 -31.5 -79.5t-79.5 -28.5zM536 88q12 -35 27 -54.5t40 -28.5v-5h-271v5q59 24 30 112l-29 84h-178l-36 -102q-23 -72 38 -94v-5h-142v5q26 9 42 31.5t32 66.5l159 451h121zM163 224h163
l-81 237z" />
    <glyph glyph-name="acircumflex.sc" horiz-adv-x="617" 
d="M308 650l-93 -59h-40l113 109h42l113 -109h-41zM536 88q12 -35 27 -54.5t40 -28.5v-5h-271v5q59 24 30 112l-29 84h-178l-36 -102q-23 -72 38 -94v-5h-142v5q26 9 42 31.5t32 66.5l159 451h121zM163 224h163l-81 237z" />
    <glyph glyph-name="adieresis.sc" horiz-adv-x="617" 
d="M215 591q-27 0 -44.5 18t-17.5 45t17.5 45t44.5 18t45 -18t18 -45t-18 -45t-45 -18zM404 591q-28 0 -45.5 18t-17.5 45t17.5 45t45.5 18q26 0 44 -18t18 -45t-18 -45t-44 -18zM536 88q12 -35 27 -54.5t40 -28.5v-5h-271v5q59 24 30 112l-29 84h-178l-36 -102
q-23 -72 38 -94v-5h-142v5q26 9 42 31.5t32 66.5l159 451h121zM163 224h163l-81 237z" />
    <glyph glyph-name="agrave.sc" horiz-adv-x="617" 
d="M326 590h-34l-144 106v4h118zM536 88q12 -35 27 -54.5t40 -28.5v-5h-271v5q59 24 30 112l-29 84h-178l-36 -102q-23 -72 38 -94v-5h-142v5q26 9 42 31.5t32 66.5l159 451h121zM163 224h163l-81 237z" />
    <glyph glyph-name="amacron.sc" horiz-adv-x="617" 
d="M447 655v-31h-276v31h276zM536 88q12 -35 27 -54.5t40 -28.5v-5h-271v5q59 24 30 112l-29 84h-178l-36 -102q-23 -72 38 -94v-5h-142v5q26 9 42 31.5t32 66.5l159 451h121zM163 224h163l-81 237z" />
    <glyph glyph-name="aogonek.sc" horiz-adv-x="617" 
d="M334 0q-74 -25 -74 -84q0 -56 59 -56q46 0 65 45l5 -2q-17 -113 -108 -113q-45 0 -71.5 23t-26.5 63q0 46 38 81t111 48q59 24 30 112l-29 84h-178l-36 -102q-23 -72 38 -94v-5h-142v5q26 9 42 31.5t32 66.5l159 451h121l167 -466q12 -35 27 -54.5t40 -28.5v-5h-269z
M163 224h163l-81 237z" />
    <glyph glyph-name="aring.sc" horiz-adv-x="617" 
d="M308 564q-36 0 -59 22.5t-23 58.5q0 35 23 57.5t59 22.5q37 0 60 -22.5t23 -57.5q0 -36 -23 -58.5t-60 -22.5zM308 703q-25 0 -41 -15.5t-16 -42.5t16 -43t41 -16q26 0 42 16t16 43t-16 42.5t-42 15.5zM536 88q12 -35 27 -54.5t40 -28.5v-5h-271v5q59 24 30 112l-29 84
h-178l-36 -102q-23 -72 38 -94v-5h-142v5q26 9 42 31.5t32 66.5l159 451h121zM163 224h163l-81 237z" />
    <glyph glyph-name="atilde.sc" horiz-adv-x="617" 
d="M238 641q-45 0 -61 -39h-6q9 101 90 101q27 0 61 -19.5t57 -19.5q45 0 61 39h6q-7 -100 -89 -100q-28 0 -62 19t-57 19zM536 88q12 -35 27 -54.5t40 -28.5v-5h-271v5q59 24 30 112l-29 84h-178l-36 -102q-23 -72 38 -94v-5h-142v5q26 9 42 31.5t32 66.5l159 451h121z
M163 224h163l-81 237z" />
    <glyph glyph-name="ae.sc" horiz-adv-x="788" 
d="M748 218h3l-21 -218h-409v5q30 10 41.5 28.5t11.5 54.5v113h-171l-58 -106q-15 -25 -15 -42q0 -29 40 -48v-5h-156v5q31 8 52 29t47 68l255 452h347l20 -194h-4q-21 67 -74 115q-60 55 -126 58h-16v-246h17q90 0 125 94h4v-214h-4q-13 44 -46 69t-79 25h-17v-240h15
q76 3 133 55q46 43 85 142zM215 223h159v292z" />
    <glyph glyph-name="aeacute.sc" horiz-adv-x="788" 
d="M670 696l-144 -106h-34l60 110h118v-4zM748 218h3l-21 -218h-409v5q30 10 41.5 28.5t11.5 54.5v113h-171l-58 -106q-15 -25 -15 -42q0 -29 40 -48v-5h-156v5q31 8 52 29t47 68l255 452h347l20 -194h-4q-21 67 -74 115q-60 55 -126 58h-16v-246h17q90 0 125 94h4v-214h-4
q-13 44 -46 69t-79 25h-17v-240h15q76 3 133 55q46 43 85 142zM215 223h159v292z" />
    <glyph glyph-name="cacute.sc" horiz-adv-x="540" 
d="M323 590h-34l60 110h118v-4zM279 -16q-112 0 -179.5 73.5t-67.5 202.5q0 135 79.5 222t202.5 87q106 0 192 -44l-56 -181l-4 1q-23 169 -158 169q-63 0 -100 -48.5t-37 -130.5q0 -101 58 -165t151 -64q109 0 138 78l6 -3q-44 -197 -225 -197z" />
    <glyph glyph-name="ccaron.sc" horiz-adv-x="540" 
d="M286 591l-113 109h40l93 -59l94 59h41l-113 -109h-42zM279 -16q-112 0 -179.5 73.5t-67.5 202.5q0 135 79.5 222t202.5 87q106 0 192 -44l-56 -181l-4 1q-23 169 -158 169q-63 0 -100 -48.5t-37 -130.5q0 -101 58 -165t151 -64q109 0 138 78l6 -3q-44 -197 -225 -197z
" />
    <glyph glyph-name="ccedilla.sc" horiz-adv-x="540" 
d="M360 106q109 0 138 78l6 -3q-41 -182 -200 -196l-28 -44q13 8 35 8q32 0 54.5 -21t22.5 -56q0 -39 -25 -63t-63 -24q-65 0 -80 66l9 4q16 -30 49 -30q20 0 32.5 13t12.5 35q0 20 -11 32t-29 12q-15 0 -26 -9l-13 7l42 69h-7q-112 0 -179.5 73.5t-67.5 202.5
q0 135 79.5 222t202.5 87q106 0 192 -44l-56 -181l-4 1q-23 169 -158 169q-63 0 -100 -48.5t-37 -130.5q0 -101 58 -165t151 -64z" />
    <glyph glyph-name="ccircumflex.sc" horiz-adv-x="540" 
d="M173 591l113 109h42l113 -109h-41l-94 59l-93 -59h-40zM279 -16q-112 0 -179.5 73.5t-67.5 202.5q0 135 79.5 222t202.5 87q106 0 192 -44l-56 -181l-4 1q-23 169 -158 169q-63 0 -100 -48.5t-37 -130.5q0 -101 58 -165t151 -64q109 0 138 78l6 -3q-44 -197 -225 -197z
" />
    <glyph glyph-name="cdotaccent.sc" horiz-adv-x="540" 
d="M307 592q-27 0 -45.5 18.5t-18.5 45.5t18.5 46t45.5 19q28 0 46.5 -19t18.5 -46t-18.5 -45.5t-46.5 -18.5zM279 -16q-112 0 -179.5 73.5t-67.5 202.5q0 135 79.5 222t202.5 87q106 0 192 -44l-56 -181l-4 1q-23 169 -158 169q-63 0 -100 -48.5t-37 -130.5q0 -101 58 -165
t151 -64q109 0 138 78l6 -3q-44 -197 -225 -197z" />
    <glyph glyph-name="eth.sc" horiz-adv-x="606" 
d="M288 554q132 0 209 -74.5t77 -200.5q0 -134 -81 -206.5t-203 -72.5h-256v5q28 9 40.5 26.5t12.5 56.5v174h-53v16h53v191q0 39 -12 55t-41 25v5h254zM255 22q55 0 86.5 16.5t50.5 71t19 156.5q0 81 -10.5 134.5t-32 81.5t-48 39t-65.5 11h-17v-254h97v-16h-97v-240h17z
" />
    <glyph glyph-name="dcaron.sc" horiz-adv-x="606" 
d="M265 591l-113 109h40l93 -59l94 59h41l-113 -109h-42zM288 554q132 0 209 -74.5t77 -200.5q0 -134 -81 -206.5t-203 -72.5h-256v5q28 9 40.5 26.5t12.5 56.5v381q0 39 -12 55t-41 25v5h254zM255 22q55 0 86.5 16.5t50.5 71t19 156.5q0 81 -10.5 134.5t-32 81.5t-48 39
t-65.5 11h-17v-510h17z" />
    <glyph glyph-name="dcroat.sc" horiz-adv-x="606" 
d="M288 554q132 0 209 -74.5t77 -200.5q0 -134 -81 -206.5t-203 -72.5h-256v5q28 9 40.5 26.5t12.5 56.5v174h-53v16h53v191q0 39 -12 55t-41 25v5h254zM255 22q55 0 86.5 16.5t50.5 71t19 156.5q0 81 -10.5 134.5t-32 81.5t-48 39t-65.5 11h-17v-254h97v-16h-97v-240h17z
" />
    <glyph glyph-name="eacute.sc" horiz-adv-x="516" 
d="M432 696l-144 -106h-34l60 110h118v-4zM475 218h4l-21 -218h-424v5q30 10 41.5 28.5t11.5 54.5v381q0 36 -11 52.5t-42 27.5v5h415l14 -194h-5q-22 82 -71.5 127t-114.5 45h-34v-237h19q45 0 77.5 24.5t46.5 69.5h4v-218h-4q-31 101 -124 101h-19v-250h34q75 0 122.5 46
t80.5 150z" />
    <glyph glyph-name="ebreve.sc" horiz-adv-x="516" 
d="M272 592q-49 0 -80.5 28.5t-31.5 79.5h25q4 -54 87 -54q82 0 86 54h25q0 -51 -31.5 -79.5t-79.5 -28.5zM475 218h4l-21 -218h-424v5q30 10 41.5 28.5t11.5 54.5v381q0 36 -11 52.5t-42 27.5v5h415l14 -194h-5q-22 82 -71.5 127t-114.5 45h-34v-237h19q45 0 77.5 24.5
t46.5 69.5h4v-218h-4q-31 101 -124 101h-19v-250h34q75 0 122.5 46t80.5 150z" />
    <glyph glyph-name="ecaron.sc" horiz-adv-x="516" 
d="M293 591h-42l-113 109h40l93 -59l94 59h41zM475 218h4l-21 -218h-424v5q30 10 41.5 28.5t11.5 54.5v381q0 36 -11 52.5t-42 27.5v5h415l14 -194h-5q-22 82 -71.5 127t-114.5 45h-34v-237h19q45 0 77.5 24.5t46.5 69.5h4v-218h-4q-31 101 -124 101h-19v-250h34
q75 0 122.5 46t80.5 150z" />
    <glyph glyph-name="ecircumflex.sc" horiz-adv-x="516" 
d="M271 650l-93 -59h-40l113 109h42l113 -109h-41zM475 218h4l-21 -218h-424v5q30 10 41.5 28.5t11.5 54.5v381q0 36 -11 52.5t-42 27.5v5h415l14 -194h-5q-22 82 -71.5 127t-114.5 45h-34v-237h19q45 0 77.5 24.5t46.5 69.5h4v-218h-4q-31 101 -124 101h-19v-250h34
q75 0 122.5 46t80.5 150z" />
    <glyph glyph-name="edieresis.sc" horiz-adv-x="516" 
d="M178 591q-27 0 -44.5 18t-17.5 45t17.5 45t44.5 18t45 -18t18 -45t-18 -45t-45 -18zM367 591q-28 0 -45.5 18t-17.5 45t17.5 45t45.5 18q26 0 44 -18t18 -45t-18 -45t-44 -18zM475 218h4l-21 -218h-424v5q30 10 41.5 28.5t11.5 54.5v381q0 36 -11 52.5t-42 27.5v5h415
l14 -194h-5q-22 82 -71.5 127t-114.5 45h-34v-237h19q45 0 77.5 24.5t46.5 69.5h4v-218h-4q-31 101 -124 101h-19v-250h34q75 0 122.5 46t80.5 150z" />
    <glyph glyph-name="edotaccent.sc" horiz-adv-x="516" 
d="M272 592q-27 0 -45.5 18.5t-18.5 45.5t18.5 46t45.5 19q28 0 46.5 -19t18.5 -46t-18.5 -45.5t-46.5 -18.5zM475 218h4l-21 -218h-424v5q30 10 41.5 28.5t11.5 54.5v381q0 36 -11 52.5t-42 27.5v5h415l14 -194h-5q-22 82 -71.5 127t-114.5 45h-34v-237h19q45 0 77.5 24.5
t46.5 69.5h4v-218h-4q-31 101 -124 101h-19v-250h34q75 0 122.5 46t80.5 150z" />
    <glyph glyph-name="egrave.sc" horiz-adv-x="516" 
d="M289 590h-34l-144 106v4h118zM475 218h4l-21 -218h-424v5q30 10 41.5 28.5t11.5 54.5v381q0 36 -11 52.5t-42 27.5v5h415l14 -194h-5q-22 82 -71.5 127t-114.5 45h-34v-237h19q45 0 77.5 24.5t46.5 69.5h4v-218h-4q-31 101 -124 101h-19v-250h34q75 0 122.5 46t80.5 150z
" />
    <glyph glyph-name="emacron.sc" horiz-adv-x="516" 
d="M410 655v-31h-276v31h276zM475 218h4l-21 -218h-424v5q30 10 41.5 28.5t11.5 54.5v381q0 36 -11 52.5t-42 27.5v5h415l14 -194h-5q-22 82 -71.5 127t-114.5 45h-34v-237h19q45 0 77.5 24.5t46.5 69.5h4v-218h-4q-31 101 -124 101h-19v-250h34q75 0 122.5 46t80.5 150z
" />
    <glyph glyph-name="eogonek.sc" horiz-adv-x="516" 
d="M379 0q-74 -25 -74 -84q0 -56 59 -56q46 0 65 45l5 -2q-17 -113 -108 -113q-45 0 -71.5 23t-26.5 63q0 42 32 75.5t94 48.5h-320v5q30 10 41.5 28.5t11.5 54.5v381q0 36 -11 52.5t-42 27.5v5h415l14 -194h-5q-22 82 -71.5 127t-114.5 45h-34v-237h19q45 0 77.5 24.5
t46.5 69.5h4v-218h-4q-31 101 -124 101h-19v-250h34q75 0 122.5 46t80.5 150h4l-21 -218h-79z" />
    <glyph glyph-name="gbreve.sc" horiz-adv-x="603" 
d="M346 592q-49 0 -80.5 28.5t-31.5 79.5h25q4 -54 87 -54q82 0 86 54h25q0 -51 -31.5 -79.5t-79.5 -28.5zM317 -13q-131 0 -208 77t-77 207q0 137 88 219t235 82q96 0 182 -43l-51 -162h-4q-12 170 -137 170q-70 0 -106.5 -59t-36.5 -171q0 -125 41.5 -209.5t104.5 -87.5
q28 0 38 13v147q0 41 -15.5 61t-55.5 28v4h268v-4q-53 -22 -53 -79v-134q-38 -27 -96 -43t-117 -16z" />
    <glyph glyph-name="gcircumflex.sc" horiz-adv-x="603" 
d="M212 591l113 109h42l113 -109h-41l-94 59l-93 -59h-40zM317 -13q-131 0 -208 77t-77 207q0 137 88 219t235 82q96 0 182 -43l-51 -162h-4q-12 170 -137 170q-70 0 -106.5 -59t-36.5 -171q0 -125 41.5 -209.5t104.5 -87.5q28 0 38 13v147q0 41 -15.5 61t-55.5 28v4h268v-4
q-53 -22 -53 -79v-134q-38 -27 -96 -43t-117 -16z" />
    <glyph glyph-name="gcommaaccent.sc" horiz-adv-x="603" 
d="M317 -13q-131 0 -208 77t-77 207q0 137 88 219t235 82q96 0 182 -43l-51 -162h-4q-12 170 -137 170q-70 0 -106.5 -59t-36.5 -171q0 -125 41.5 -209.5t104.5 -87.5q28 0 38 13v147q0 41 -15.5 61t-55.5 28v4h268v-4q-53 -22 -53 -79v-134q-38 -27 -96 -43t-117 -16z
M317 -213l-5 15q54 14 54 43q0 13 -7.5 19t-27.5 11q-38 9 -38 43q0 20 12.5 32t34.5 12q26 0 46 -23t20 -53q0 -74 -89 -99z" />
    <glyph glyph-name="gdotaccent.sc" horiz-adv-x="603" 
d="M346 592q-27 0 -45.5 18.5t-18.5 45.5t18.5 46t45.5 19q28 0 46.5 -19t18.5 -46t-18.5 -45.5t-46.5 -18.5zM317 -13q-131 0 -208 77t-77 207q0 137 88 219t235 82q96 0 182 -43l-51 -162h-4q-12 170 -137 170q-70 0 -106.5 -59t-36.5 -171q0 -125 41.5 -209.5
t104.5 -87.5q28 0 38 13v147q0 41 -15.5 61t-55.5 28v4h268v-4q-53 -22 -53 -79v-134q-38 -27 -96 -43t-117 -16z" />
    <glyph glyph-name="hbar.sc" horiz-adv-x="651" 
d="M627 368h-62v-282q0 -36 11 -53.5t41 -27.5v-5h-257v5q30 10 41.5 27.5t11.5 53.5v185h-175v-185q0 -36 11.5 -53.5t41.5 -27.5v-5h-257v5q30 10 41 27.5t11 53.5v282h-60v20h60v80q0 35 -11 53t-41 28v5h257v-5q-30 -10 -41.5 -27.5t-11.5 -53.5v-80h175v80
q0 36 -11.5 53.5t-41.5 27.5v5h257v-5q-30 -10 -41 -28t-11 -53v-80h62v-20zM413 294v74h-175v-74h175z" />
    <glyph glyph-name="hcircumflex.sc" horiz-adv-x="651" 
d="M192 591l113 109h42l113 -109h-41l-94 59l-93 -59h-40zM617 549q-30 -10 -41 -28t-11 -53v-382q0 -36 11 -53.5t41 -27.5v-5h-257v5q30 10 41.5 27.5t11.5 53.5v185h-175v-185q0 -36 11.5 -53.5t41.5 -27.5v-5h-257v5q30 10 41 27.5t11 53.5v382q0 35 -11 53t-41 28v5
h257v-5q-30 -10 -41.5 -27.5t-11.5 -53.5v-174h175v174q0 36 -11.5 53.5t-41.5 27.5v5h257v-5z" />
    <glyph glyph-name="ij.sc" horiz-adv-x="642" 
d="M291 549q-30 -10 -41.5 -28t-11.5 -53v-382q0 -36 11.5 -53.5t41.5 -27.5v-5h-257v5q30 10 41.5 27.5t11.5 53.5v382q0 35 -11.5 53t-41.5 28v5h257v-5zM627 554v-5q-29 -10 -41 -26t-12 -54v-368q0 -76 -46.5 -119t-123.5 -43q-53 0 -80 24l6 7q15 -10 36 -10
q57 0 57 70v439q0 38 -12 54t-41 26v5h257z" />
    <glyph glyph-name="iacute.sc" horiz-adv-x="325" 
d="M179 590h-34l60 110h118v-4zM291 549q-30 -10 -41.5 -28t-11.5 -53v-382q0 -36 11.5 -53.5t41.5 -27.5v-5h-257v5q30 10 41.5 27.5t11.5 53.5v382q0 35 -11.5 53t-41.5 28v5h257v-5z" />
    <glyph glyph-name="ibreve.sc" horiz-adv-x="325" 
d="M163 592q-49 0 -80.5 28.5t-31.5 79.5h25q4 -54 87 -54q82 0 86 54h25q0 -51 -31.5 -79.5t-79.5 -28.5zM291 549q-30 -10 -41.5 -28t-11.5 -53v-382q0 -36 11.5 -53.5t41.5 -27.5v-5h-257v5q30 10 41.5 27.5t11.5 53.5v382q0 35 -11.5 53t-41.5 28v5h257v-5z" />
    <glyph glyph-name="icircumflex.sc" horiz-adv-x="325" 
d="M29 591l113 109h42l113 -109h-41l-94 59l-93 -59h-40zM291 549q-30 -10 -41.5 -28t-11.5 -53v-382q0 -36 11.5 -53.5t41.5 -27.5v-5h-257v5q30 10 41.5 27.5t11.5 53.5v382q0 35 -11.5 53t-41.5 28v5h257v-5z" />
    <glyph glyph-name="idieresis.sc" horiz-adv-x="325" 
d="M69 591q-27 0 -44.5 18t-17.5 45t17.5 45t44.5 18t45 -18t18 -45t-18 -45t-45 -18zM258 591q-28 0 -45.5 18t-17.5 45t17.5 45t45.5 18q26 0 44 -18t18 -45t-18 -45t-44 -18zM291 549q-30 -10 -41.5 -28t-11.5 -53v-382q0 -36 11.5 -53.5t41.5 -27.5v-5h-257v5
q30 10 41.5 27.5t11.5 53.5v382q0 35 -11.5 53t-41.5 28v5h257v-5z" />
    <glyph glyph-name="i.sc.loclTRK" horiz-adv-x="325" 
d="M163 592q-27 0 -45.5 18.5t-18.5 45.5t18.5 46t45.5 19q28 0 46.5 -19t18.5 -46t-18.5 -45.5t-46.5 -18.5zM291 549q-30 -10 -41.5 -28t-11.5 -53v-382q0 -36 11.5 -53.5t41.5 -27.5v-5h-257v5q30 10 41.5 27.5t11.5 53.5v382q0 35 -11.5 53t-41.5 28v5h257v-5z" />
    <glyph glyph-name="igrave.sc" horiz-adv-x="325" 
d="M146 590l-144 106v4h118l60 -110h-34zM291 549q-30 -10 -41.5 -28t-11.5 -53v-382q0 -36 11.5 -53.5t41.5 -27.5v-5h-257v5q30 10 41.5 27.5t11.5 53.5v382q0 35 -11.5 53t-41.5 28v5h257v-5z" />
    <glyph glyph-name="imacron.sc" horiz-adv-x="325" 
d="M25 624v31h276v-31h-276zM291 549q-30 -10 -41.5 -28t-11.5 -53v-382q0 -36 11.5 -53.5t41.5 -27.5v-5h-257v5q30 10 41.5 27.5t11.5 53.5v382q0 35 -11.5 53t-41.5 28v5h257v-5z" />
    <glyph glyph-name="iogonek.sc" horiz-adv-x="325" 
d="M291 549q-30 -10 -41.5 -28t-11.5 -53v-382q0 -36 11.5 -53.5t41.5 -27.5v-5h-95q-74 -25 -74 -84q0 -56 59 -56q46 0 65 45l5 -2q-17 -113 -108 -113q-45 0 -71.5 23t-26.5 63q0 42 32 75.5t94 48.5h-137v5q30 10 41.5 27.5t11.5 53.5v382q0 35 -11.5 53t-41.5 28v5h257
v-5z" />
    <glyph glyph-name="itilde.sc" horiz-adv-x="325" 
d="M211 603q-28 0 -62 19t-57 19q-45 0 -61 -39h-6q9 101 90 101q27 0 61 -19.5t57 -19.5q45 0 61 39h6q-7 -100 -89 -100zM291 549q-30 -10 -41.5 -28t-11.5 -53v-382q0 -36 11.5 -53.5t41.5 -27.5v-5h-257v5q30 10 41.5 27.5t11.5 53.5v382q0 35 -11.5 53t-41.5 28v5h257
v-5z" />
    <glyph glyph-name="jcircumflex.sc" horiz-adv-x="317" 
d="M40 591l113 109h42l113 -109h-41l-94 59l-93 -59h-40zM302 554v-5q-29 -10 -41 -26t-12 -54v-368q0 -76 -46.5 -119t-123.5 -43q-53 0 -80 24l6 7q15 -10 36 -10q57 0 57 70v439q0 38 -12 54t-41 26v5h257z" />
    <glyph glyph-name="kcommaaccent.sc" horiz-adv-x="655" 
d="M291 549q-28 -9 -40.5 -27t-12.5 -53v-381q0 -66 53 -83v-5h-257v5q31 10 42 27.5t11 55.5v381q0 36 -11 52.5t-42 27.5v5h257v-5zM422 0l-184 282l157 150q24 24 33.5 37.5t9.5 29.5q0 42 -66 50v5h224v-5q-65 -16 -138 -86l-100 -97l199 -280q33 -46 47 -60.5t37 -20.5
v-5h-219zM305 -213l-5 15q54 14 54 43q0 13 -7.5 19t-27.5 11q-38 9 -38 43q0 20 12.5 32t34.5 12q26 0 46 -23t20 -53q0 -74 -89 -99z" />
    <glyph glyph-name="lacute.sc" horiz-adv-x="479" 
d="M184 590h-34l60 110h118v-4zM450 235h6l-25 -235h-397v5q28 9 40.5 26.5t12.5 56.5v381q0 39 -12 55t-41 25v5h257v-5q-28 -9 -40.5 -25.5t-12.5 -54.5v-447h22q63 0 113 55.5t77 157.5z" />
    <glyph glyph-name="lcaron.sc" horiz-adv-x="479" 
d="M147 591l-113 109h40l93 -59l94 59h41l-113 -109h-42zM450 235h6l-25 -235h-397v5q28 9 40.5 26.5t12.5 56.5v381q0 39 -12 55t-41 25v5h257v-5q-28 -9 -40.5 -25.5t-12.5 -54.5v-447h22q63 0 113 55.5t77 157.5z" />
    <glyph glyph-name="lcommaaccent.sc" horiz-adv-x="479" 
d="M450 235h6l-25 -235h-397v5q28 9 40.5 26.5t12.5 56.5v381q0 39 -12 55t-41 25v5h257v-5q-28 -9 -40.5 -25.5t-12.5 -54.5v-447h22q63 0 113 55.5t77 157.5zM217 -213l-5 15q54 14 54 43q0 13 -7.5 19t-27.5 11q-38 9 -38 43q0 20 12.5 32t34.5 12q26 0 46 -23t20 -53
q0 -74 -89 -99z" />
    <glyph glyph-name="ldot.sc" horiz-adv-x="479" 
d="M450 235h6l-25 -235h-397v5q28 9 40.5 26.5t12.5 56.5v381q0 39 -12 55t-41 25v5h257v-5q-28 -9 -40.5 -25.5t-12.5 -54.5v-447h22q63 0 113 55.5t77 157.5zM356 261q-30 0 -51 21t-21 51q0 29 21 50.5t51 21.5q29 0 50.5 -21.5t21.5 -50.5q0 -30 -21.5 -51t-50.5 -21z
" />
    <glyph glyph-name="lslash.sc" horiz-adv-x="479" 
d="M450 235h6l-25 -235h-397v5q28 9 40.5 26.5t12.5 56.5v118l-58 -34v22l58 34v241q0 39 -12 55t-41 25v5h257v-5q-28 -9 -40.5 -25.5t-12.5 -54.5v-153l163 96v-22l-163 -96v-272h22q63 0 113 55.5t77 157.5z" />
    <glyph glyph-name="nacute.sc" horiz-adv-x="629" 
d="M522 696l-144 -106h-34l60 110h118v-4zM448 554h159v-5q-34 -7 -48 -27t-14 -59v-478h-4l-404 463v-354q0 -39 15 -58.5t55 -30.5v-5h-167v5q40 8 54.5 27.5t14.5 61.5v385q-43 47 -75 70v5h211l273 -301v210q0 36 -12.5 55t-57.5 31v5z" />
    <glyph glyph-name="ncaron.sc" horiz-adv-x="629" 
d="M383 591h-42l-113 109h40l93 -59l94 59h41zM448 554h159v-5q-34 -7 -48 -27t-14 -59v-478h-4l-404 463v-354q0 -39 15 -58.5t55 -30.5v-5h-167v5q40 8 54.5 27.5t14.5 61.5v385q-43 47 -75 70v5h211l273 -301v210q0 36 -12.5 55t-57.5 31v5z" />
    <glyph glyph-name="ncommaaccent.sc" horiz-adv-x="629" 
d="M448 554h159v-5q-34 -7 -48 -27t-14 -59v-478h-4l-404 463v-354q0 -39 15 -58.5t55 -30.5v-5h-167v5q40 8 54.5 27.5t14.5 61.5v385q-43 47 -75 70v5h211l273 -301v210q0 36 -12.5 55t-57.5 31v5zM318 -38q26 0 46 -23t20 -53q0 -74 -89 -99l-5 15q54 14 54 43
q0 13 -7.5 19t-27.5 11q-38 9 -38 43q0 20 12.5 32t34.5 12z" />
    <glyph glyph-name="eng.sc" horiz-adv-x="629" 
d="M448 554h159v-5q-34 -7 -48 -27t-14 -59v-494q0 -98 -44 -141t-108 -43q-77 0 -124 38l3 5q28 -11 54 -11q34 0 52.5 25t18.5 67v238l-260 301v-354q0 -39 15 -58.5t55 -30.5v-5h-167v5q40 8 54.5 27.5t14.5 61.5v385q-43 48 -75 70v5h211l273 -301v210q0 36 -12.5 55
t-57.5 31v5z" />
    <glyph glyph-name="ntilde.sc" horiz-adv-x="629" 
d="M291 641q-45 0 -61 -39h-6q9 101 90 101q27 0 61 -19.5t57 -19.5q45 0 61 39h6q-7 -100 -89 -100q-28 0 -62 19t-57 19zM448 554h159v-5q-34 -7 -48 -27t-14 -59v-478h-4l-404 463v-354q0 -39 15 -58.5t55 -30.5v-5h-167v5q40 8 54.5 27.5t14.5 61.5v385q-43 47 -75 70v5
h211l273 -301v210q0 36 -12.5 55t-57.5 31v5z" />
    <glyph glyph-name="oacute.sc" horiz-adv-x="655" 
d="M344 590h-34l60 110h118v-4zM328 -16q-132 0 -214 81t-82 212t81.5 211.5t214.5 80.5q132 0 213.5 -80.5t81.5 -211.5t-82 -212t-213 -81zM328 15q65 0 95.5 62.5t30.5 199.5q0 136 -30.5 199t-95.5 63t-95.5 -62.5t-30.5 -199.5q0 -136 30.5 -199t95.5 -63z" />
    <glyph glyph-name="obreve.sc" horiz-adv-x="655" 
d="M328 592q-49 0 -80.5 28.5t-31.5 79.5h25q4 -54 87 -54q82 0 86 54h25q0 -51 -31.5 -79.5t-79.5 -28.5zM328 -16q-132 0 -214 81t-82 212t81.5 211.5t214.5 80.5q132 0 213.5 -80.5t81.5 -211.5t-82 -212t-213 -81zM328 15q65 0 95.5 62.5t30.5 199.5q0 136 -30.5 199
t-95.5 63t-95.5 -62.5t-30.5 -199.5q0 -136 30.5 -199t95.5 -63z" />
    <glyph glyph-name="ocircumflex.sc" horiz-adv-x="655" 
d="M194 591l113 109h42l113 -109h-41l-94 59l-93 -59h-40zM328 -16q-132 0 -214 81t-82 212t81.5 211.5t214.5 80.5q132 0 213.5 -80.5t81.5 -211.5t-82 -212t-213 -81zM328 15q65 0 95.5 62.5t30.5 199.5q0 136 -30.5 199t-95.5 63t-95.5 -62.5t-30.5 -199.5
q0 -136 30.5 -199t95.5 -63z" />
    <glyph glyph-name="odieresis.sc" horiz-adv-x="655" 
d="M234 591q-27 0 -44.5 18t-17.5 45t17.5 45t44.5 18t45 -18t18 -45t-18 -45t-45 -18zM423 591q-28 0 -45.5 18t-17.5 45t17.5 45t45.5 18q26 0 44 -18t18 -45t-18 -45t-44 -18zM328 -16q-132 0 -214 81t-82 212t81.5 211.5t214.5 80.5q132 0 213.5 -80.5t81.5 -211.5
t-82 -212t-213 -81zM328 15q65 0 95.5 62.5t30.5 199.5q0 136 -30.5 199t-95.5 63t-95.5 -62.5t-30.5 -199.5q0 -136 30.5 -199t95.5 -63z" />
    <glyph glyph-name="ograve.sc" horiz-adv-x="655" 
d="M311 590l-144 106v4h118l60 -110h-34zM328 -16q-132 0 -214 81t-82 212t81.5 211.5t214.5 80.5q132 0 213.5 -80.5t81.5 -211.5t-82 -212t-213 -81zM328 15q65 0 95.5 62.5t30.5 199.5q0 136 -30.5 199t-95.5 63t-95.5 -62.5t-30.5 -199.5q0 -136 30.5 -199t95.5 -63z
" />
    <glyph glyph-name="ohungarumlaut.sc" horiz-adv-x="655" 
d="M264 591l63 109h81v-6l-137 -103h-7zM388 591l71 109h82v-6l-147 -103h-6zM328 -16q-132 0 -214 81t-82 212t81.5 211.5t214.5 80.5q132 0 213.5 -80.5t81.5 -211.5t-82 -212t-213 -81zM328 15q65 0 95.5 62.5t30.5 199.5q0 136 -30.5 199t-95.5 63t-95.5 -62.5
t-30.5 -199.5q0 -136 30.5 -199t95.5 -63z" />
    <glyph glyph-name="omacron.sc" horiz-adv-x="655" 
d="M190 624v31h276v-31h-276zM328 -16q-132 0 -214 81t-82 212t81.5 211.5t214.5 80.5q132 0 213.5 -80.5t81.5 -211.5t-82 -212t-213 -81zM328 15q65 0 95.5 62.5t30.5 199.5q0 136 -30.5 199t-95.5 63t-95.5 -62.5t-30.5 -199.5q0 -136 30.5 -199t95.5 -63z" />
    <glyph glyph-name="oslash.sc" horiz-adv-x="655" 
d="M528 501q95 -81 95 -224q0 -131 -82 -212t-213 -81q-102 0 -177 50l-40 -50h-34l53 66q-98 82 -98 227q0 131 81.5 211.5t214.5 80.5q104 0 178 -51l42 52h35zM202 277q0 -75 9 -126l228 283q-28 105 -111 105q-65 0 -95.5 -62.5t-30.5 -199.5zM328 15q65 0 95.5 62.5
t30.5 199.5q0 67 -8 123l-228 -283q28 -102 110 -102z" />
    <glyph glyph-name="oslashacute.sc" horiz-adv-x="655" 
d="M488 696l-144 -106h-34l60 110h118v-4zM528 501q95 -81 95 -224q0 -131 -82 -212t-213 -81q-102 0 -177 50l-40 -50h-34l53 66q-98 82 -98 227q0 131 81.5 211.5t214.5 80.5q104 0 178 -51l42 52h35zM202 277q0 -75 9 -126l228 283q-28 105 -111 105q-65 0 -95.5 -62.5
t-30.5 -199.5zM328 15q65 0 95.5 62.5t30.5 199.5q0 67 -8 123l-228 -283q28 -102 110 -102z" />
    <glyph glyph-name="otilde.sc" horiz-adv-x="655" 
d="M376 603q-28 0 -62 19t-57 19q-45 0 -61 -39h-6q9 101 90 101q27 0 61 -19.5t57 -19.5q45 0 61 39h6q-7 -100 -89 -100zM328 -16q-132 0 -214 81t-82 212t81.5 211.5t214.5 80.5q132 0 213.5 -80.5t81.5 -211.5t-82 -212t-213 -81zM328 15q65 0 95.5 62.5t30.5 199.5
q0 136 -30.5 199t-95.5 63t-95.5 -62.5t-30.5 -199.5q0 -136 30.5 -199t95.5 -63z" />
    <glyph glyph-name="oe.sc" horiz-adv-x="800" 
d="M760 218h3l-21 -218h-412q-131 0 -214.5 77.5t-83.5 199.5t83.5 199.5t214.5 77.5h398l19 -194h-4q-19 64 -73 115q-61 55 -135 58h-10v-240h15q99 0 127 95h4v-219h-4q-12 45 -44 74t-83 29h-15v-251h10q84 3 137 50q52 47 88 147zM384 21v512h-19q-165 0 -165 -256
t165 -256h19z" />
    <glyph glyph-name="thorn.sc" horiz-adv-x="530" 
d="M273 122h-35v-36q0 -36 11.5 -53.5t41.5 -27.5v-5h-257v5q30 10 41.5 27.5t11.5 53.5v382q0 35 -11.5 53t-41.5 28v5h257v-5q-30 -10 -41.5 -28t-11.5 -53v-25h35q115 0 174.5 -41.5t59.5 -118.5t-59.5 -119t-174.5 -42zM246 421h-8v-278h8q45 0 71.5 39t26.5 101
t-26.5 100t-71.5 38z" />
    <glyph glyph-name="racute.sc" horiz-adv-x="621" 
d="M471 696l-144 -106h-34l60 110h118v-4zM543 69q21 -54 64 -64v-5h-197q-14 24 -33 75l-42 121q-15 40 -29.5 56t-43.5 16h-24v-180q0 -68 53 -83v-5h-257v5q28 9 40.5 26.5t12.5 56.5v381q0 39 -12 55t-41 25v5h250q231 0 231 -136q0 -57 -54 -96.5t-128 -39.5v-6
q62 2 106 -23.5t63 -73.5zM258 287q43 0 66.5 33t23.5 95q0 117 -86 117h-24v-245h20z" />
    <glyph glyph-name="rcaron.sc" horiz-adv-x="621" 
d="M332 591h-42l-113 109h40l93 -59l94 59h41zM543 69q21 -54 64 -64v-5h-197q-14 24 -33 75l-42 121q-15 40 -29.5 56t-43.5 16h-24v-180q0 -68 53 -83v-5h-257v5q28 9 40.5 26.5t12.5 56.5v381q0 39 -12 55t-41 25v5h250q231 0 231 -136q0 -57 -54 -96.5t-128 -39.5v-6
q62 2 106 -23.5t63 -73.5zM258 287q43 0 66.5 33t23.5 95q0 117 -86 117h-24v-245h20z" />
    <glyph glyph-name="rcommaaccent.sc" horiz-adv-x="621" 
d="M543 69q21 -54 64 -64v-5h-197q-14 24 -33 75l-42 121q-15 40 -29.5 56t-43.5 16h-24v-180q0 -68 53 -83v-5h-257v5q28 9 40.5 26.5t12.5 56.5v381q0 39 -12 55t-41 25v5h250q231 0 231 -136q0 -57 -54 -96.5t-128 -39.5v-6q62 2 106 -23.5t63 -73.5zM258 287
q43 0 66.5 33t23.5 95q0 117 -86 117h-24v-245h20zM311 -38q26 0 46 -23t20 -53q0 -74 -89 -99l-5 15q54 14 54 43q0 13 -7.5 19t-27.5 11q-38 9 -38 43q0 20 12.5 32t34.5 12z" />
    <glyph glyph-name="sacute.sc" horiz-adv-x="477" 
d="M258 590h-34l60 110h118v-4zM237 -12q-121 0 -211 48l43 152h4q17 -75 70 -121t123 -46q39 0 63 19.5t24 51.5q0 27 -15 45t-50 34l-124 57q-120 55 -120 165q0 81 57 128.5t153 47.5q104 0 195 -47l-50 -134h-4q-19 69 -65 109t-106 40q-39 0 -63 -17t-24 -45
q0 -46 65 -75l129 -61q61 -28 88 -65.5t27 -94.5q0 -84 -58.5 -137.5t-150.5 -53.5z" />
    <glyph glyph-name="scaron.sc" horiz-adv-x="477" 
d="M221 591l-113 109h40l93 -59l94 59h41l-113 -109h-42zM237 -12q-121 0 -211 48l43 152h4q17 -75 70 -121t123 -46q39 0 63 19.5t24 51.5q0 27 -15 45t-50 34l-124 57q-120 55 -120 165q0 81 57 128.5t153 47.5q104 0 195 -47l-50 -134h-4q-19 69 -65 109t-106 40
q-39 0 -63 -17t-24 -45q0 -46 65 -75l129 -61q61 -28 88 -65.5t27 -94.5q0 -84 -58.5 -137.5t-150.5 -53.5z" />
    <glyph glyph-name="scedilla.sc" horiz-adv-x="477" 
d="M331 339q61 -28 88 -65.5t27 -94.5q0 -83 -57.5 -136.5t-148.5 -54.5l-30 -47q13 8 35 8q32 0 54.5 -21t22.5 -56q0 -39 -25 -63t-63 -24q-65 0 -80 66l9 4q16 -30 49 -30q20 0 32.5 13t12.5 35q0 20 -11 32t-29 12q-15 0 -26 -9l-13 7l45 73q-113 3 -197 48l43 152h4
q17 -75 70 -121t123 -46q39 0 63 19.5t24 51.5q0 27 -15 45t-50 34l-124 57q-120 55 -120 165q0 81 57 128.5t153 47.5q104 0 195 -47l-50 -134h-4q-19 69 -65 109t-106 40q-39 0 -63 -17t-24 -45q0 -46 65 -75z" />
    <glyph glyph-name="scircumflex.sc" horiz-adv-x="477" 
d="M108 591l113 109h42l113 -109h-41l-94 59l-93 -59h-40zM237 -12q-121 0 -211 48l43 152h4q17 -75 70 -121t123 -46q39 0 63 19.5t24 51.5q0 27 -15 45t-50 34l-124 57q-120 55 -120 165q0 81 57 128.5t153 47.5q104 0 195 -47l-50 -134h-4q-19 69 -65 109t-106 40
q-39 0 -63 -17t-24 -45q0 -46 65 -75l129 -61q61 -28 88 -65.5t27 -94.5q0 -84 -58.5 -137.5t-150.5 -53.5z" />
    <glyph glyph-name="scommaaccent.sc" horiz-adv-x="477" 
d="M237 -12q-121 0 -211 48l43 152h4q17 -75 70 -121t123 -46q39 0 63 19.5t24 51.5q0 27 -15 45t-50 34l-124 57q-120 55 -120 165q0 81 57 128.5t153 47.5q104 0 195 -47l-50 -134h-4q-19 69 -65 109t-106 40q-39 0 -63 -17t-24 -45q0 -46 65 -75l129 -61q61 -28 88 -65.5
t27 -94.5q0 -84 -58.5 -137.5t-150.5 -53.5zM216 -213l-5 15q54 14 54 43q0 13 -7.5 19t-27.5 11q-38 9 -38 43q0 20 12.5 32t34.5 12q26 0 46 -23t20 -53q0 -74 -89 -99z" />
    <glyph glyph-name="tbar.sc" horiz-adv-x="503" 
d="M480 576h4v-221h-5q-11 71 -48 121t-88 50h-16v-223h124v-16h-124v-199q0 -39 17.5 -58t59.5 -25v-5h-306v5q42 5 60 24t18 59v199h-122v16h122v223h-18q-48 0 -85.5 -49.5t-48.5 -121.5h-5v221h4q19 -22 69 -22h318q49 0 70 22z" />
    <glyph glyph-name="tcaron.sc" horiz-adv-x="503" 
d="M231 591l-113 109h40l93 -59l94 59h41l-113 -109h-42zM480 576h4v-221h-5q-11 71 -48 121t-88 50h-16v-438q0 -39 17.5 -58t59.5 -25v-5h-306v5q42 5 60 24t18 59v438h-18q-48 0 -85.5 -49.5t-48.5 -121.5h-5v221h4q19 -22 69 -22h318q49 0 70 22z" />
    <glyph glyph-name="uni0163.sc" horiz-adv-x="503" 
d="M480 576h4v-221h-5q-11 71 -48 121t-88 50h-16v-438q0 -39 17.5 -58t59.5 -25v-5h-144l-38 -59q13 8 35 8q32 0 54.5 -21t22.5 -56q0 -39 -25 -63t-63 -24q-65 0 -80 66l9 4q16 -30 49 -30q20 0 32.5 13t12.5 35q0 20 -11 32t-29 12q-15 0 -26 -9l-13 7l52 85h-144v5
q42 5 60 24t18 59v438h-18q-48 0 -85.5 -49.5t-48.5 -121.5h-5v221h4q19 -22 69 -22h318q49 0 70 22z" />
    <glyph glyph-name="uni021B.sc" horiz-adv-x="503" 
d="M480 576h4v-221h-5q-11 71 -48 121t-88 50h-16v-438q0 -39 17.5 -58t59.5 -25v-5h-306v5q42 5 60 24t18 59v438h-18q-48 0 -85.5 -49.5t-48.5 -121.5h-5v221h4q19 -22 69 -22h318q49 0 70 22zM228 -213l-5 15q54 14 54 43q0 13 -7.5 19t-27.5 11q-38 9 -38 43
q0 20 12.5 32t34.5 12q26 0 46 -23t20 -53q0 -74 -89 -99z" />
    <glyph glyph-name="uacute.sc" horiz-adv-x="574" 
d="M335 590h-34l60 110h118v-4zM559 554v-5q-30 -10 -42 -28t-12 -55v-253q0 -111 -54 -170t-157 -59q-110 0 -168 58.5t-58 170.5v256q0 36 -11 53t-42 27v5h271v-5q-37 -12 -51.5 -31.5t-14.5 -57.5v-250q0 -80 32.5 -121.5t94.5 -41.5q63 0 96 41.5t33 121.5v247
q0 39 -16 59.5t-55 32.5v5h154z" />
    <glyph glyph-name="ubreve.sc" horiz-adv-x="574" 
d="M319 592q-49 0 -80.5 28.5t-31.5 79.5h25q4 -54 87 -54q82 0 86 54h25q0 -51 -31.5 -79.5t-79.5 -28.5zM559 554v-5q-30 -10 -42 -28t-12 -55v-253q0 -111 -54 -170t-157 -59q-110 0 -168 58.5t-58 170.5v256q0 36 -11 53t-42 27v5h271v-5q-37 -12 -51.5 -31.5
t-14.5 -57.5v-250q0 -80 32.5 -121.5t94.5 -41.5q63 0 96 41.5t33 121.5v247q0 39 -16 59.5t-55 32.5v5h154z" />
    <glyph glyph-name="ucircumflex.sc" horiz-adv-x="574" 
d="M185 591l113 109h42l113 -109h-41l-94 59l-93 -59h-40zM559 554v-5q-30 -10 -42 -28t-12 -55v-253q0 -111 -54 -170t-157 -59q-110 0 -168 58.5t-58 170.5v256q0 36 -11 53t-42 27v5h271v-5q-37 -12 -51.5 -31.5t-14.5 -57.5v-250q0 -80 32.5 -121.5t94.5 -41.5
q63 0 96 41.5t33 121.5v247q0 39 -16 59.5t-55 32.5v5h154z" />
    <glyph glyph-name="udieresis.sc" horiz-adv-x="574" 
d="M225 591q-27 0 -44.5 18t-17.5 45t17.5 45t44.5 18t45 -18t18 -45t-18 -45t-45 -18zM414 591q-28 0 -45.5 18t-17.5 45t17.5 45t45.5 18q26 0 44 -18t18 -45t-18 -45t-44 -18zM559 554v-5q-30 -10 -42 -28t-12 -55v-253q0 -111 -54 -170t-157 -59q-110 0 -168 58.5
t-58 170.5v256q0 36 -11 53t-42 27v5h271v-5q-37 -12 -51.5 -31.5t-14.5 -57.5v-250q0 -80 32.5 -121.5t94.5 -41.5q63 0 96 41.5t33 121.5v247q0 39 -16 59.5t-55 32.5v5h154z" />
    <glyph glyph-name="ugrave.sc" horiz-adv-x="574" 
d="M302 590l-144 106v4h118l60 -110h-34zM559 554v-5q-30 -10 -42 -28t-12 -55v-253q0 -111 -54 -170t-157 -59q-110 0 -168 58.5t-58 170.5v256q0 36 -11 53t-42 27v5h271v-5q-37 -12 -51.5 -31.5t-14.5 -57.5v-250q0 -80 32.5 -121.5t94.5 -41.5q63 0 96 41.5t33 121.5
v247q0 39 -16 59.5t-55 32.5v5h154z" />
    <glyph glyph-name="uhungarumlaut.sc" horiz-adv-x="574" 
d="M255 591l63 109h81v-6l-137 -103h-7zM379 591l71 109h82v-6l-147 -103h-6zM559 554v-5q-30 -10 -42 -28t-12 -55v-253q0 -111 -54 -170t-157 -59q-110 0 -168 58.5t-58 170.5v256q0 36 -11 53t-42 27v5h271v-5q-37 -12 -51.5 -31.5t-14.5 -57.5v-250q0 -80 32.5 -121.5
t94.5 -41.5q63 0 96 41.5t33 121.5v247q0 39 -16 59.5t-55 32.5v5h154z" />
    <glyph glyph-name="umacron.sc" horiz-adv-x="574" 
d="M181 624v31h276v-31h-276zM559 554v-5q-30 -10 -42 -28t-12 -55v-253q0 -111 -54 -170t-157 -59q-110 0 -168 58.5t-58 170.5v256q0 36 -11 53t-42 27v5h271v-5q-37 -12 -51.5 -31.5t-14.5 -57.5v-250q0 -80 32.5 -121.5t94.5 -41.5q63 0 96 41.5t33 121.5v247
q0 39 -16 59.5t-55 32.5v5h154z" />
    <glyph glyph-name="uogonek.sc" horiz-adv-x="574" 
d="M405 554h154v-5q-30 -10 -42 -28t-12 -55v-253q0 -180 -135 -219q-58 -25 -58 -78q0 -56 59 -56q46 0 65 45l5 -2q-17 -113 -108 -113q-45 0 -71.5 23t-26.5 63q0 72 82 109q-8 -1 -23 -1q-110 0 -168 58.5t-58 170.5v256q0 36 -11 53t-42 27v5h271v-5
q-37 -12 -51.5 -31.5t-14.5 -57.5v-250q0 -80 32.5 -121.5t94.5 -41.5q63 0 96 41.5t33 121.5v247q0 39 -16 59.5t-55 32.5v5z" />
    <glyph glyph-name="uring.sc" horiz-adv-x="574" 
d="M318 564q-36 0 -59 22.5t-23 58.5q0 35 23 57.5t59 22.5q37 0 60 -22.5t23 -57.5q0 -36 -23 -58.5t-60 -22.5zM318 586q26 0 42 16t16 43t-16 42.5t-42 15.5q-25 0 -41 -15.5t-16 -42.5t16 -43t41 -16zM559 554v-5q-30 -10 -42 -28t-12 -55v-253q0 -111 -54 -170
t-157 -59q-110 0 -168 58.5t-58 170.5v256q0 36 -11 53t-42 27v5h271v-5q-37 -12 -51.5 -31.5t-14.5 -57.5v-250q0 -80 32.5 -121.5t94.5 -41.5q63 0 96 41.5t33 121.5v247q0 39 -16 59.5t-55 32.5v5h154z" />
    <glyph glyph-name="utilde.sc" horiz-adv-x="574" 
d="M367 603q-28 0 -62 19t-57 19q-45 0 -61 -39h-6q9 101 90 101q27 0 61 -19.5t57 -19.5q45 0 61 39h6q-7 -100 -89 -100zM559 554v-5q-30 -10 -42 -28t-12 -55v-253q0 -111 -54 -170t-157 -59q-110 0 -168 58.5t-58 170.5v256q0 36 -11 53t-42 27v5h271v-5
q-37 -12 -51.5 -31.5t-14.5 -57.5v-250q0 -80 32.5 -121.5t94.5 -41.5q63 0 96 41.5t33 121.5v247q0 39 -16 59.5t-55 32.5v5h154z" />
    <glyph glyph-name="wacute.sc" horiz-adv-x="840" 
d="M577 696l-144 -106h-34l60 110h118v-4zM682 554h144v-5q-28 -7 -43.5 -25.5t-35.5 -67.5l-187 -464h-4l-137 334l-135 -334h-3l-194 473q-15 39 -30.5 59t-42.5 25v5h263v-5q-32 -8 -32 -40q0 -26 13 -56l93 -228l55 135l-44 107q-22 54 -50 82v5h262v-5q-52 -7 -52 -52
q0 -18 10 -42l93 -230l92 228q10 23 10 43q0 22 -12 36t-33 17v5z" />
    <glyph glyph-name="wcircumflex.sc" horiz-adv-x="840" 
d="M416 650l-93 -59h-40l113 109h42l113 -109h-41zM682 554h144v-5q-28 -7 -43.5 -25.5t-35.5 -67.5l-187 -464h-4l-137 334l-135 -334h-3l-194 473q-15 39 -30.5 59t-42.5 25v5h263v-5q-32 -8 -32 -40q0 -26 13 -56l93 -228l55 135l-44 107q-22 54 -50 82v5h262v-5
q-52 -7 -52 -52q0 -18 10 -42l93 -230l92 228q10 23 10 43q0 22 -12 36t-33 17v5z" />
    <glyph glyph-name="wdieresis.sc" horiz-adv-x="840" 
d="M323 591q-27 0 -44.5 18t-17.5 45t17.5 45t44.5 18t45 -18t18 -45t-18 -45t-45 -18zM512 591q-28 0 -45.5 18t-17.5 45t17.5 45t45.5 18q26 0 44 -18t18 -45t-18 -45t-44 -18zM682 554h144v-5q-28 -7 -43.5 -25.5t-35.5 -67.5l-187 -464h-4l-137 334l-135 -334h-3
l-194 473q-15 39 -30.5 59t-42.5 25v5h263v-5q-32 -8 -32 -40q0 -26 13 -56l93 -228l55 135l-44 107q-22 54 -50 82v5h262v-5q-52 -7 -52 -52q0 -18 10 -42l93 -230l92 228q10 23 10 43q0 22 -12 36t-33 17v5z" />
    <glyph glyph-name="wgrave.sc" horiz-adv-x="840" 
d="M434 590h-34l-144 106v4h118zM682 554h144v-5q-28 -7 -43.5 -25.5t-35.5 -67.5l-187 -464h-4l-137 334l-135 -334h-3l-194 473q-15 39 -30.5 59t-42.5 25v5h263v-5q-32 -8 -32 -40q0 -26 13 -56l93 -228l55 135l-44 107q-22 54 -50 82v5h262v-5q-52 -7 -52 -52
q0 -18 10 -42l93 -230l92 228q10 23 10 43q0 22 -12 36t-33 17v5z" />
    <glyph glyph-name="yacute.sc" horiz-adv-x="569" 
d="M300 590h-34l60 110h118v-4zM399 554h155v-5q-18 -3 -42.5 -28.5t-45.5 -62.5l-107 -193v-177q0 -40 18.5 -59t58.5 -24v-5h-306v5q42 5 60 24t18 59v173l-114 212q-37 72 -79 76v5h278v-5q-49 -8 -49 -54q0 -21 15 -49l87 -153l86 151q16 29 16 51q0 46 -49 54v5z" />
    <glyph glyph-name="ycircumflex.sc" horiz-adv-x="569" 
d="M150 591l113 109h42l113 -109h-41l-94 59l-93 -59h-40zM399 554h155v-5q-18 -3 -42.5 -28.5t-45.5 -62.5l-107 -193v-177q0 -40 18.5 -59t58.5 -24v-5h-306v5q42 5 60 24t18 59v173l-114 212q-37 72 -79 76v5h278v-5q-49 -8 -49 -54q0 -21 15 -49l87 -153l86 151
q16 29 16 51q0 46 -49 54v5z" />
    <glyph glyph-name="ydieresis.sc" horiz-adv-x="569" 
d="M190 591q-27 0 -44.5 18t-17.5 45t17.5 45t44.5 18t45 -18t18 -45t-18 -45t-45 -18zM379 591q-28 0 -45.5 18t-17.5 45t17.5 45t45.5 18q26 0 44 -18t18 -45t-18 -45t-44 -18zM399 554h155v-5q-18 -3 -42.5 -28.5t-45.5 -62.5l-107 -193v-177q0 -40 18.5 -59t58.5 -24v-5
h-306v5q42 5 60 24t18 59v173l-114 212q-37 72 -79 76v5h278v-5q-49 -8 -49 -54q0 -21 15 -49l87 -153l86 151q16 29 16 51q0 46 -49 54v5z" />
    <glyph glyph-name="ygrave.sc" horiz-adv-x="569" 
d="M267 590l-144 106v4h118l60 -110h-34zM399 554h155v-5q-18 -3 -42.5 -28.5t-45.5 -62.5l-107 -193v-177q0 -40 18.5 -59t58.5 -24v-5h-306v5q42 5 60 24t18 59v173l-114 212q-37 72 -79 76v5h278v-5q-49 -8 -49 -54q0 -21 15 -49l87 -153l86 151q16 29 16 51q0 46 -49 54
v5z" />
    <glyph glyph-name="zacute.sc" horiz-adv-x="526" 
d="M287 590h-34l60 110h118v-4zM24 0v4l298 526h-45q-93 0 -141.5 -50t-84.5 -150h-5l22 224h430v-4l-294 -526h48q50 0 92 20t70.5 53.5t47 68t29.5 71.5h5l-25 -237h-447z" />
    <glyph glyph-name="zcaron.sc" horiz-adv-x="526" 
d="M250 591l-113 109h40l93 -59l94 59h41l-113 -109h-42zM24 0v4l298 526h-45q-93 0 -141.5 -50t-84.5 -150h-5l22 224h430v-4l-294 -526h48q50 0 92 20t70.5 53.5t47 68t29.5 71.5h5l-25 -237h-447z" />
    <glyph glyph-name="zdotaccent.sc" horiz-adv-x="526" 
d="M271 592q-27 0 -45.5 18.5t-18.5 45.5t18.5 46t45.5 19q28 0 46.5 -19t18.5 -46t-18.5 -45.5t-46.5 -18.5zM24 0v4l298 526h-45q-93 0 -141.5 -50t-84.5 -150h-5l22 224h430v-4l-294 -526h48q50 0 92 20t70.5 53.5t47 68t29.5 71.5h5l-25 -237h-447z" />
    <glyph glyph-name="germandbls.sc" horiz-adv-x="959" 
d="M237 -12q-121 0 -211 48l43 152h4q17 -75 70 -121t123 -46q39 0 63 19.5t24 51.5q0 27 -15 45t-50 34l-124 57q-120 55 -120 165q0 81 57 128.5t153 47.5q104 0 195 -47l-50 -134h-4q-19 69 -65 109t-106 40q-39 0 -63 -17t-24 -45q0 -46 65 -75l129 -61q61 -28 88 -65.5
t27 -94.5q0 -84 -58.5 -137.5t-150.5 -53.5zM719 -12q-121 0 -211 48l43 152h4q17 -75 70 -121t123 -46q39 0 63 19.5t24 51.5q0 27 -15 45t-50 34l-124 57q-120 55 -120 165q0 81 57 128.5t153 47.5q104 0 195 -47l-50 -134h-4q-19 69 -65 109t-106 40q-39 0 -63 -17
t-24 -45q0 -46 65 -75l129 -61q61 -28 88 -65.5t27 -94.5q0 -84 -58.5 -137.5t-150.5 -53.5z" />
    <glyph glyph-name="ampersand.sc" horiz-adv-x="636" 
d="M619 95l3 -3q-18 -47 -57.5 -76.5t-84.5 -29.5q-42 0 -70 16t-61 60l-17 22q-47 -98 -154 -98q-66 0 -106.5 39.5t-40.5 106.5q0 119 136 162l-6 8q-58 75 -58 137q0 58 45.5 94t117.5 36q81 0 139 -40l-59 -104h-4q1 58 -21 92t-60 34q-50 0 -50 -39q0 -32 52 -100
l214 -272q50 -64 94 -64q26 0 48 19zM266 70q36 0 58 24l-150 191q-34 -27 -34 -77q0 -55 37 -96.5t89 -41.5z" />
    <glyph glyph-name="uni00A40301" horiz-adv-x="351" 
d="M212 750h-15l63 110h120v-7zM72 -78q-52 0 -84 13v6h17q49 0 78 36.5t29 106.5v514q0 47 -15.5 67t-53.5 29v6h302v-6q-69 -17 -69 -96v-474q0 -100 -54 -151t-150 -51z" />
    <glyph glyph-name="i.loclTRK" horiz-adv-x="311" 
d="M152 561q-35 0 -59 23.5t-24 58.5t24 58.5t59 23.5t58.5 -23.5t23.5 -58.5t-23.5 -58.5t-58.5 -23.5zM232 72q0 -29 14.5 -44t44.5 -22v-6h-266v6q30 7 44.5 22t14.5 44v318q0 39 -12.5 54t-46.5 18v6l207 58v-454z" />
    </font>
</defs>
</svg>
